<svg width="23" height="25" viewBox="0 0 23 25" fill="none" xmlns="http://www.w3.org/2000/svg">
<path d="M6.61624 17.8662L8.38374 19.6337L11.25 16.7675L14.1162 19.6337L15.8837 17.8662L13.0175 15L15.8837 12.1337L14.1162 10.3662L11.25 13.2325L8.38374 10.3662L6.61624 12.1337L9.48249 15L6.61624 17.8662Z" fill="#0E185F"/>
<path d="M20 2.5H17.5V0H15V2.5H7.5V0H5V2.5H2.5C1.12125 2.5 0 3.62125 0 5V22.5C0 23.8788 1.12125 25 2.5 25H20C21.3788 25 22.5 23.8788 22.5 22.5V5C22.5 3.62125 21.3788 2.5 20 2.5ZM20.0025 22.5H2.5V7.5H20L20.0025 22.5Z" fill="#0E185F"/>
</svg>
