<svg width="1373" height="257" viewBox="0 0 1373 257" fill="none" xmlns="http://www.w3.org/2000/svg">
<rect width="1373" height="257" rx="33" fill="#2FA4FF"/>
<path d="M99.2302 97.13C99.2302 98.4367 98.9152 99.6617 98.2852 100.805C97.6785 101.948 96.7102 102.87 95.3802 103.57C94.0735 104.27 92.4168 104.62 90.4102 104.62H86.3152V114H81.4152V89.57H90.4102C92.3002 89.57 93.9102 89.8967 95.2402 90.55C96.5702 91.2033 97.5618 92.1017 98.2152 93.245C98.8918 94.3883 99.2302 95.6833 99.2302 97.13ZM90.2002 100.665C91.5535 100.665 92.5568 100.362 93.2102 99.755C93.8635 99.125 94.1902 98.25 94.1902 97.13C94.1902 94.75 92.8602 93.56 90.2002 93.56H86.3152V100.665H90.2002ZM120.681 94.61V114H115.746V111.55C115.116 112.39 114.287 113.055 113.261 113.545C112.257 114.012 111.161 114.245 109.971 114.245C108.454 114.245 107.112 113.93 105.946 113.3C104.779 112.647 103.857 111.702 103.181 110.465C102.527 109.205 102.201 107.712 102.201 105.985V94.61H107.101V105.285C107.101 106.825 107.486 108.015 108.256 108.855C109.026 109.672 110.076 110.08 111.406 110.08C112.759 110.08 113.821 109.672 114.591 108.855C115.361 108.015 115.746 106.825 115.746 105.285V94.61H120.681ZM135.927 94.33C138.237 94.33 140.104 95.065 141.527 96.535C142.95 97.9817 143.662 100.012 143.662 102.625V114H138.762V103.29C138.762 101.75 138.377 100.572 137.607 99.755C136.837 98.915 135.787 98.495 134.457 98.495C133.104 98.495 132.03 98.915 131.237 99.755C130.467 100.572 130.082 101.75 130.082 103.29V114H125.182V94.61H130.082V97.025C130.735 96.185 131.564 95.5317 132.567 95.065C133.594 94.575 134.714 94.33 135.927 94.33ZM166.538 94.61L154.533 123.17H149.318L153.518 113.51L145.748 94.61H151.243L156.248 108.155L161.323 94.61H166.538ZM167.586 104.235C167.586 102.275 167.971 100.537 168.741 99.02C169.535 97.5033 170.596 96.3367 171.926 95.52C173.28 94.7033 174.785 94.295 176.441 94.295C177.888 94.295 179.148 94.5867 180.221 95.17C181.318 95.7533 182.193 96.4883 182.846 97.375V94.61H187.781V114H182.846V111.165C182.216 112.075 181.341 112.833 180.221 113.44C179.125 114.023 177.853 114.315 176.406 114.315C174.773 114.315 173.28 113.895 171.926 113.055C170.596 112.215 169.535 111.037 168.741 109.52C167.971 107.98 167.586 106.218 167.586 104.235ZM182.846 104.305C182.846 103.115 182.613 102.1 182.146 101.26C181.68 100.397 181.05 99.7433 180.256 99.3C179.463 98.8333 178.611 98.6 177.701 98.6C176.791 98.6 175.951 98.8217 175.181 99.265C174.411 99.7083 173.781 100.362 173.291 101.225C172.825 102.065 172.591 103.068 172.591 104.235C172.591 105.402 172.825 106.428 173.291 107.315C173.781 108.178 174.411 108.843 175.181 109.31C175.975 109.777 176.815 110.01 177.701 110.01C178.611 110.01 179.463 109.788 180.256 109.345C181.05 108.878 181.68 108.225 182.146 107.385C182.613 106.522 182.846 105.495 182.846 104.305ZM205.14 97.41C205.77 96.5233 206.634 95.7883 207.73 95.205C208.85 94.5983 210.122 94.295 211.545 94.295C213.202 94.295 214.695 94.7033 216.025 95.52C217.379 96.3367 218.44 97.5033 219.21 99.02C220.004 100.513 220.4 102.252 220.4 104.235C220.4 106.218 220.004 107.98 219.21 109.52C218.44 111.037 217.379 112.215 216.025 113.055C214.695 113.895 213.202 114.315 211.545 114.315C210.122 114.315 208.862 114.023 207.765 113.44C206.692 112.857 205.817 112.122 205.14 111.235V123.24H200.24V94.61H205.14V97.41ZM215.395 104.235C215.395 103.068 215.15 102.065 214.66 101.225C214.194 100.362 213.564 99.7083 212.77 99.265C212 98.8217 211.16 98.6 210.25 98.6C209.364 98.6 208.524 98.8333 207.73 99.3C206.96 99.7433 206.33 100.397 205.84 101.26C205.374 102.123 205.14 103.138 205.14 104.305C205.14 105.472 205.374 106.487 205.84 107.35C206.33 108.213 206.96 108.878 207.73 109.345C208.524 109.788 209.364 110.01 210.25 110.01C211.16 110.01 212 109.777 212.77 109.31C213.564 108.843 214.194 108.178 214.66 107.315C215.15 106.452 215.395 105.425 215.395 104.235ZM241.653 103.885C241.653 104.585 241.606 105.215 241.513 105.775H227.338C227.454 107.175 227.944 108.272 228.808 109.065C229.671 109.858 230.733 110.255 231.993 110.255C233.813 110.255 235.108 109.473 235.878 107.91H241.163C240.603 109.777 239.529 111.317 237.943 112.53C236.356 113.72 234.408 114.315 232.098 114.315C230.231 114.315 228.551 113.907 227.058 113.09C225.588 112.25 224.433 111.072 223.593 109.555C222.776 108.038 222.368 106.288 222.368 104.305C222.368 102.298 222.776 100.537 223.593 99.02C224.409 97.5033 225.553 96.3367 227.023 95.52C228.493 94.7033 230.184 94.295 232.098 94.295C233.941 94.295 235.586 94.6917 237.033 95.485C238.503 96.2783 239.634 97.41 240.428 98.88C241.244 100.327 241.653 101.995 241.653 103.885ZM236.578 102.485C236.554 101.225 236.099 100.222 235.213 99.475C234.326 98.705 233.241 98.32 231.958 98.32C230.744 98.32 229.718 98.6933 228.878 99.44C228.061 100.163 227.559 101.178 227.373 102.485H236.578ZM249.796 97.62C250.426 96.5933 251.243 95.7883 252.246 95.205C253.273 94.6217 254.439 94.33 255.746 94.33V99.475H254.451C252.911 99.475 251.744 99.8367 250.951 100.56C250.181 101.283 249.796 102.543 249.796 104.34V114H244.896V94.61H249.796V97.62ZM264.418 98.635V108.015C264.418 108.668 264.57 109.147 264.873 109.45C265.2 109.73 265.736 109.87 266.483 109.87H268.758V114H265.678C261.548 114 259.483 111.993 259.483 107.98V98.635H257.173V94.61H259.483V89.815H264.418V94.61H268.758V98.635H264.418ZM270.689 104.235C270.689 102.275 271.074 100.537 271.844 99.02C272.637 97.5033 273.699 96.3367 275.029 95.52C276.382 94.7033 277.887 94.295 279.544 94.295C280.991 94.295 282.251 94.5867 283.324 95.17C284.421 95.7533 285.296 96.4883 285.949 97.375V94.61H290.884V114H285.949V111.165C285.319 112.075 284.444 112.833 283.324 113.44C282.227 114.023 280.956 114.315 279.509 114.315C277.876 114.315 276.382 113.895 275.029 113.055C273.699 112.215 272.637 111.037 271.844 109.52C271.074 107.98 270.689 106.218 270.689 104.235ZM285.949 104.305C285.949 103.115 285.716 102.1 285.249 101.26C284.782 100.397 284.152 99.7433 283.359 99.3C282.566 98.8333 281.714 98.6 280.804 98.6C279.894 98.6 279.054 98.8217 278.284 99.265C277.514 99.7083 276.884 100.362 276.394 101.225C275.927 102.065 275.694 103.068 275.694 104.235C275.694 105.402 275.927 106.428 276.394 107.315C276.884 108.178 277.514 108.843 278.284 109.31C279.077 109.777 279.917 110.01 280.804 110.01C281.714 110.01 282.566 109.788 283.359 109.345C284.152 108.878 284.782 108.225 285.249 107.385C285.716 106.522 285.949 105.495 285.949 104.305ZM306.081 94.33C308.391 94.33 310.258 95.065 311.681 96.535C313.105 97.9817 313.816 100.012 313.816 102.625V114H308.916V103.29C308.916 101.75 308.531 100.572 307.761 99.755C306.991 98.915 305.941 98.495 304.611 98.495C303.258 98.495 302.185 98.915 301.391 99.755C300.621 100.572 300.236 101.75 300.236 103.29V114H295.336V94.61H300.236V97.025C300.89 96.185 301.718 95.5317 302.721 95.065C303.748 94.575 304.868 94.33 306.081 94.33ZM336.693 94.61L324.688 123.17H319.473L323.673 113.51L315.903 94.61H321.398L326.403 108.155L331.478 94.61H336.693ZM337.741 104.235C337.741 102.275 338.126 100.537 338.896 99.02C339.689 97.5033 340.751 96.3367 342.081 95.52C343.434 94.7033 344.939 94.295 346.596 94.295C348.042 94.295 349.302 94.5867 350.376 95.17C351.472 95.7533 352.347 96.4883 353.001 97.375V94.61H357.936V114H353.001V111.165C352.371 112.075 351.496 112.833 350.376 113.44C349.279 114.023 348.007 114.315 346.561 114.315C344.927 114.315 343.434 113.895 342.081 113.055C340.751 112.215 339.689 111.037 338.896 109.52C338.126 107.98 337.741 106.218 337.741 104.235ZM353.001 104.305C353.001 103.115 352.767 102.1 352.301 101.26C351.834 100.397 351.204 99.7433 350.411 99.3C349.617 98.8333 348.766 98.6 347.856 98.6C346.946 98.6 346.106 98.8217 345.336 99.265C344.566 99.7083 343.936 100.362 343.446 101.225C342.979 102.065 342.746 103.068 342.746 104.235C342.746 105.402 342.979 106.428 343.446 107.315C343.936 108.178 344.566 108.843 345.336 109.31C346.129 109.777 346.969 110.01 347.856 110.01C348.766 110.01 349.617 109.788 350.411 109.345C351.204 108.878 351.834 108.225 352.301 107.385C352.767 106.522 353.001 105.495 353.001 104.305ZM361.128 104.235C361.128 102.275 361.513 100.537 362.283 99.02C363.076 97.5033 364.138 96.3367 365.468 95.52C366.821 94.7033 368.326 94.295 369.983 94.295C371.43 94.295 372.69 94.5867 373.763 95.17C374.86 95.7533 375.735 96.4883 376.388 97.375V94.61H381.323V114H376.388V111.165C375.758 112.075 374.883 112.833 373.763 113.44C372.666 114.023 371.395 114.315 369.948 114.315C368.315 114.315 366.821 113.895 365.468 113.055C364.138 112.215 363.076 111.037 362.283 109.52C361.513 107.98 361.128 106.218 361.128 104.235ZM376.388 104.305C376.388 103.115 376.155 102.1 375.688 101.26C375.221 100.397 374.591 99.7433 373.798 99.3C373.005 98.8333 372.153 98.6 371.243 98.6C370.333 98.6 369.493 98.8217 368.723 99.265C367.953 99.7083 367.323 100.362 366.833 101.225C366.366 102.065 366.133 103.068 366.133 104.235C366.133 105.402 366.366 106.428 366.833 107.315C367.323 108.178 367.953 108.843 368.723 109.31C369.516 109.777 370.356 110.01 371.243 110.01C372.153 110.01 373.005 109.788 373.798 109.345C374.591 108.878 375.221 108.225 375.688 107.385C376.155 106.522 376.388 105.495 376.388 104.305ZM396.521 94.33C398.831 94.33 400.697 95.065 402.121 96.535C403.544 97.9817 404.256 100.012 404.256 102.625V114H399.356V103.29C399.356 101.75 398.971 100.572 398.201 99.755C397.431 98.915 396.381 98.495 395.051 98.495C393.697 98.495 392.624 98.915 391.831 99.755C391.061 100.572 390.676 101.75 390.676 103.29V114H385.776V94.61H390.676V97.025C391.329 96.185 392.157 95.5317 393.161 95.065C394.187 94.575 395.307 94.33 396.521 94.33ZM415.407 88.73C417.833 88.73 419.782 89.395 421.252 90.725C422.745 92.0317 423.492 93.84 423.492 96.15C423.492 98.4367 422.757 100.187 421.287 101.4C419.817 102.59 417.868 103.185 415.442 103.185L415.302 105.88H410.997L410.822 99.93H412.397C414.427 99.93 415.99 99.6617 417.087 99.125C418.183 98.5883 418.732 97.6083 418.732 96.185C418.732 95.1583 418.428 94.3417 417.822 93.735C417.238 93.1283 416.433 92.825 415.407 92.825C414.333 92.825 413.493 93.1167 412.887 93.7C412.303 94.2833 412.012 95.0883 412.012 96.115H407.392C407.368 94.6917 407.672 93.42 408.302 92.3C408.932 91.18 409.853 90.305 411.067 89.675C412.303 89.045 413.75 88.73 415.407 88.73ZM413.132 114.245C412.245 114.245 411.51 113.977 410.927 113.44C410.367 112.88 410.087 112.192 410.087 111.375C410.087 110.558 410.367 109.882 410.927 109.345C411.51 108.785 412.245 108.505 413.132 108.505C413.995 108.505 414.707 108.785 415.267 109.345C415.827 109.882 416.107 110.558 416.107 111.375C416.107 112.192 415.827 112.88 415.267 113.44C414.707 113.977 413.995 114.245 413.132 114.245Z" fill="white"/>
<path d="M101.096 155.33C103.476 155.33 105.389 156.065 106.836 157.535C108.306 158.982 109.041 161.012 109.041 163.625V175H104.141V164.29C104.141 162.773 103.756 161.618 102.986 160.825C102.216 160.008 101.166 159.6 99.8358 159.6C98.5058 159.6 97.4441 160.008 96.6508 160.825C95.8808 161.618 95.4958 162.773 95.4958 164.29V175H90.5958V164.29C90.5958 162.773 90.2108 161.618 89.4408 160.825C88.6708 160.008 87.6208 159.6 86.2908 159.6C84.9374 159.6 83.8641 160.008 83.0708 160.825C82.3008 161.618 81.9158 162.773 81.9158 164.29V175H77.0158V155.61H81.9158V157.955C82.5458 157.138 83.3508 156.497 84.3308 156.03C85.3341 155.563 86.4308 155.33 87.6208 155.33C89.1374 155.33 90.4908 155.657 91.6808 156.31C92.8708 156.94 93.7924 157.85 94.4458 159.04C95.0758 157.92 95.9858 157.022 97.1758 156.345C98.3891 155.668 99.6958 155.33 101.096 155.33ZM131.662 155.61V175H126.727V172.55C126.097 173.39 125.269 174.055 124.242 174.545C123.239 175.012 122.142 175.245 120.952 175.245C119.436 175.245 118.094 174.93 116.927 174.3C115.761 173.647 114.839 172.702 114.162 171.465C113.509 170.205 113.182 168.712 113.182 166.985V155.61H118.082V166.285C118.082 167.825 118.467 169.015 119.237 169.855C120.007 170.672 121.057 171.08 122.387 171.08C123.741 171.08 124.802 170.672 125.572 169.855C126.342 169.015 126.727 167.825 126.727 166.285V155.61H131.662ZM134.904 165.235C134.904 163.275 135.289 161.537 136.059 160.02C136.852 158.503 137.925 157.337 139.279 156.52C140.632 155.703 142.137 155.295 143.794 155.295C145.054 155.295 146.255 155.575 147.399 156.135C148.542 156.672 149.452 157.395 150.129 158.305V149.1H155.099V175H150.129V172.13C149.522 173.087 148.67 173.857 147.574 174.44C146.477 175.023 145.205 175.315 143.759 175.315C142.125 175.315 140.632 174.895 139.279 174.055C137.925 173.215 136.852 172.037 136.059 170.52C135.289 168.98 134.904 167.218 134.904 165.235ZM150.164 165.305C150.164 164.115 149.93 163.1 149.464 162.26C148.997 161.397 148.367 160.743 147.574 160.3C146.78 159.833 145.929 159.6 145.019 159.6C144.109 159.6 143.269 159.822 142.499 160.265C141.729 160.708 141.099 161.362 140.609 162.225C140.142 163.065 139.909 164.068 139.909 165.235C139.909 166.402 140.142 167.428 140.609 168.315C141.099 169.178 141.729 169.843 142.499 170.31C143.292 170.777 144.132 171.01 145.019 171.01C145.929 171.01 146.78 170.788 147.574 170.345C148.367 169.878 148.997 169.225 149.464 168.385C149.93 167.522 150.164 166.495 150.164 165.305ZM158.291 165.235C158.291 163.275 158.676 161.537 159.446 160.02C160.239 158.503 161.301 157.337 162.631 156.52C163.984 155.703 165.489 155.295 167.146 155.295C168.593 155.295 169.853 155.587 170.926 156.17C172.023 156.753 172.898 157.488 173.551 158.375V155.61H178.486V175H173.551V172.165C172.921 173.075 172.046 173.833 170.926 174.44C169.829 175.023 168.558 175.315 167.111 175.315C165.478 175.315 163.984 174.895 162.631 174.055C161.301 173.215 160.239 172.037 159.446 170.52C158.676 168.98 158.291 167.218 158.291 165.235ZM173.551 165.305C173.551 164.115 173.318 163.1 172.851 162.26C172.384 161.397 171.754 160.743 170.961 160.3C170.168 159.833 169.316 159.6 168.406 159.6C167.496 159.6 166.656 159.822 165.886 160.265C165.116 160.708 164.486 161.362 163.996 162.225C163.529 163.065 163.296 164.068 163.296 165.235C163.296 166.402 163.529 167.428 163.996 168.315C164.486 169.178 165.116 169.843 165.886 170.31C166.679 170.777 167.519 171.01 168.406 171.01C169.316 171.01 170.168 170.788 170.961 170.345C171.754 169.878 172.384 169.225 172.851 168.385C173.318 167.522 173.551 166.495 173.551 165.305ZM207.018 155.33C209.398 155.33 211.312 156.065 212.758 157.535C214.228 158.982 214.963 161.012 214.963 163.625V175H210.063V164.29C210.063 162.773 209.678 161.618 208.908 160.825C208.138 160.008 207.088 159.6 205.758 159.6C204.428 159.6 203.367 160.008 202.573 160.825C201.803 161.618 201.418 162.773 201.418 164.29V175H196.518V164.29C196.518 162.773 196.133 161.618 195.363 160.825C194.593 160.008 193.543 159.6 192.213 159.6C190.86 159.6 189.787 160.008 188.993 160.825C188.223 161.618 187.838 162.773 187.838 164.29V175H182.938V155.61H187.838V157.955C188.468 157.138 189.273 156.497 190.253 156.03C191.257 155.563 192.353 155.33 193.543 155.33C195.06 155.33 196.413 155.657 197.603 156.31C198.793 156.94 199.715 157.85 200.368 159.04C200.998 157.92 201.908 157.022 203.098 156.345C204.312 155.668 205.618 155.33 207.018 155.33ZM237.585 155.61V175H232.65V172.55C232.02 173.39 231.191 174.055 230.165 174.545C229.161 175.012 228.065 175.245 226.875 175.245C225.358 175.245 224.016 174.93 222.85 174.3C221.683 173.647 220.761 172.702 220.085 171.465C219.431 170.205 219.105 168.712 219.105 166.985V155.61H224.005V166.285C224.005 167.825 224.39 169.015 225.16 169.855C225.93 170.672 226.98 171.08 228.31 171.08C229.663 171.08 230.725 170.672 231.495 169.855C232.265 169.015 232.65 167.825 232.65 166.285V155.61H237.585ZM240.826 165.235C240.826 163.275 241.211 161.537 241.981 160.02C242.774 158.503 243.848 157.337 245.201 156.52C246.554 155.703 248.059 155.295 249.716 155.295C250.976 155.295 252.178 155.575 253.321 156.135C254.464 156.672 255.374 157.395 256.051 158.305V149.1H261.021V175H256.051V172.13C255.444 173.087 254.593 173.857 253.496 174.44C252.399 175.023 251.128 175.315 249.681 175.315C248.048 175.315 246.554 174.895 245.201 174.055C243.848 173.215 242.774 172.037 241.981 170.52C241.211 168.98 240.826 167.218 240.826 165.235ZM256.086 165.305C256.086 164.115 255.853 163.1 255.386 162.26C254.919 161.397 254.289 160.743 253.496 160.3C252.703 159.833 251.851 159.6 250.941 159.6C250.031 159.6 249.191 159.822 248.421 160.265C247.651 160.708 247.021 161.362 246.531 162.225C246.064 163.065 245.831 164.068 245.831 165.235C245.831 166.402 246.064 167.428 246.531 168.315C247.021 169.178 247.651 169.843 248.421 170.31C249.214 170.777 250.054 171.01 250.941 171.01C251.851 171.01 252.703 170.788 253.496 170.345C254.289 169.878 254.919 169.225 255.386 168.385C255.853 167.522 256.086 166.495 256.086 165.305ZM283.498 164.885C283.498 165.585 283.452 166.215 283.358 166.775H269.183C269.3 168.175 269.79 169.272 270.653 170.065C271.517 170.858 272.578 171.255 273.838 171.255C275.658 171.255 276.953 170.473 277.723 168.91H283.008C282.448 170.777 281.375 172.317 279.788 173.53C278.202 174.72 276.253 175.315 273.943 175.315C272.077 175.315 270.397 174.907 268.903 174.09C267.433 173.25 266.278 172.072 265.438 170.555C264.622 169.038 264.213 167.288 264.213 165.305C264.213 163.298 264.622 161.537 265.438 160.02C266.255 158.503 267.398 157.337 268.868 156.52C270.338 155.703 272.03 155.295 273.943 155.295C275.787 155.295 277.432 155.692 278.878 156.485C280.348 157.278 281.48 158.41 282.273 159.88C283.09 161.327 283.498 162.995 283.498 164.885ZM278.423 163.485C278.4 162.225 277.945 161.222 277.058 160.475C276.172 159.705 275.087 159.32 273.803 159.32C272.59 159.32 271.563 159.693 270.723 160.44C269.907 161.163 269.405 162.178 269.218 163.485H278.423ZM305.397 152.04C308.103 152.04 310.448 152.542 312.432 153.545C314.415 154.548 315.932 155.96 316.982 157.78C318.055 159.6 318.592 161.7 318.592 164.08C318.592 165.993 318.253 167.802 317.577 169.505C316.923 171.208 315.967 172.585 314.707 173.635C313.447 174.685 311.953 175.21 310.227 175.21C309.013 175.21 308.033 174.965 307.287 174.475C306.54 173.962 306.062 173.238 305.852 172.305C305.175 173.215 304.3 173.938 303.227 174.475C302.153 174.988 301.022 175.245 299.832 175.245C298.058 175.245 296.67 174.72 295.667 173.67C294.663 172.597 294.162 171.138 294.162 169.295C294.162 167.545 294.523 165.912 295.247 164.395C295.97 162.878 296.973 161.665 298.257 160.755C299.54 159.822 300.987 159.355 302.597 159.355C304.603 159.355 305.98 160.055 306.727 161.455L307.042 159.635H311.137L309.492 169.085C309.422 169.528 309.387 169.937 309.387 170.31C309.387 170.87 309.503 171.29 309.737 171.57C309.97 171.85 310.367 171.99 310.927 171.99C311.767 171.99 312.467 171.593 313.027 170.8C313.61 170.007 314.042 169.015 314.322 167.825C314.625 166.635 314.777 165.445 314.777 164.255C314.777 161.432 313.913 159.25 312.187 157.71C310.46 156.147 308.022 155.365 304.872 155.365C302.188 155.365 299.762 156.018 297.592 157.325C295.422 158.608 293.718 160.37 292.482 162.61C291.268 164.827 290.662 167.3 290.662 170.03C290.662 172.923 291.513 175.152 293.217 176.715C294.943 178.278 297.382 179.06 300.532 179.06C302.795 179.06 304.79 178.652 306.517 177.835L307.217 181.055C305 181.988 302.538 182.455 299.832 182.455C297.218 182.455 294.932 181.953 292.972 180.95C291.012 179.97 289.495 178.57 288.422 176.75C287.348 174.93 286.812 172.818 286.812 170.415C286.812 166.985 287.605 163.87 289.192 161.07C290.802 158.27 293.018 156.065 295.842 154.455C298.688 152.845 301.873 152.04 305.397 152.04ZM301.372 171.605C302.212 171.605 302.982 171.36 303.682 170.87C304.382 170.38 304.93 169.727 305.327 168.91C305.747 168.093 305.957 167.218 305.957 166.285C305.957 165.305 305.688 164.512 305.152 163.905C304.615 163.298 303.868 162.995 302.912 162.995C302.048 162.995 301.29 163.263 300.637 163.8C299.983 164.313 299.47 164.99 299.097 165.83C298.747 166.67 298.572 167.557 298.572 168.49C298.572 169.447 298.805 170.205 299.272 170.765C299.738 171.325 300.438 171.605 301.372 171.605ZM321.926 165.305C321.926 163.298 322.334 161.548 323.151 160.055C323.967 158.538 325.099 157.372 326.546 156.555C327.992 155.715 329.649 155.295 331.516 155.295C333.919 155.295 335.902 155.902 337.466 157.115C339.052 158.305 340.114 159.985 340.651 162.155H335.366C335.086 161.315 334.607 160.662 333.931 160.195C333.277 159.705 332.461 159.46 331.481 159.46C330.081 159.46 328.972 159.973 328.156 161C327.339 162.003 326.931 163.438 326.931 165.305C326.931 167.148 327.339 168.583 328.156 169.61C328.972 170.613 330.081 171.115 331.481 171.115C333.464 171.115 334.759 170.228 335.366 168.455H340.651C340.114 170.555 339.052 172.223 337.466 173.46C335.879 174.697 333.896 175.315 331.516 175.315C329.649 175.315 327.992 174.907 326.546 174.09C325.099 173.25 323.967 172.083 323.151 170.59C322.334 169.073 321.926 167.312 321.926 165.305ZM352.517 175.315C350.65 175.315 348.97 174.907 347.477 174.09C345.984 173.25 344.805 172.072 343.942 170.555C343.102 169.038 342.682 167.288 342.682 165.305C342.682 163.322 343.114 161.572 343.977 160.055C344.864 158.538 346.065 157.372 347.582 156.555C349.099 155.715 350.79 155.295 352.657 155.295C354.524 155.295 356.215 155.715 357.732 156.555C359.249 157.372 360.439 158.538 361.302 160.055C362.189 161.572 362.632 163.322 362.632 165.305C362.632 167.288 362.177 169.038 361.267 170.555C360.38 172.072 359.167 173.25 357.627 174.09C356.11 174.907 354.407 175.315 352.517 175.315ZM352.517 171.045C353.404 171.045 354.232 170.835 355.002 170.415C355.795 169.972 356.425 169.318 356.892 168.455C357.359 167.592 357.592 166.542 357.592 165.305C357.592 163.462 357.102 162.05 356.122 161.07C355.165 160.067 353.987 159.565 352.587 159.565C351.187 159.565 350.009 160.067 349.052 161.07C348.119 162.05 347.652 163.462 347.652 165.305C347.652 167.148 348.107 168.572 349.017 169.575C349.95 170.555 351.117 171.045 352.517 171.045ZM389.973 155.33C392.353 155.33 394.266 156.065 395.713 157.535C397.183 158.982 397.918 161.012 397.918 163.625V175H393.018V164.29C393.018 162.773 392.633 161.618 391.863 160.825C391.093 160.008 390.043 159.6 388.713 159.6C387.383 159.6 386.321 160.008 385.528 160.825C384.758 161.618 384.373 162.773 384.373 164.29V175H379.473V164.29C379.473 162.773 379.088 161.618 378.318 160.825C377.548 160.008 376.498 159.6 375.168 159.6C373.815 159.6 372.741 160.008 371.948 160.825C371.178 161.618 370.793 162.773 370.793 164.29V175H365.893V155.61H370.793V157.955C371.423 157.138 372.228 156.497 373.208 156.03C374.211 155.563 375.308 155.33 376.498 155.33C378.015 155.33 379.368 155.657 380.558 156.31C381.748 156.94 382.67 157.85 383.323 159.04C383.953 157.92 384.863 157.022 386.053 156.345C387.266 155.668 388.573 155.33 389.973 155.33ZM407.135 158.41C407.765 157.523 408.628 156.788 409.725 156.205C410.845 155.598 412.116 155.295 413.54 155.295C415.196 155.295 416.69 155.703 418.02 156.52C419.373 157.337 420.435 158.503 421.205 160.02C421.998 161.513 422.395 163.252 422.395 165.235C422.395 167.218 421.998 168.98 421.205 170.52C420.435 172.037 419.373 173.215 418.02 174.055C416.69 174.895 415.196 175.315 413.54 175.315C412.116 175.315 410.856 175.023 409.76 174.44C408.686 173.857 407.811 173.122 407.135 172.235V184.24H402.235V155.61H407.135V158.41ZM417.39 165.235C417.39 164.068 417.145 163.065 416.655 162.225C416.188 161.362 415.558 160.708 414.765 160.265C413.995 159.822 413.155 159.6 412.245 159.6C411.358 159.6 410.518 159.833 409.725 160.3C408.955 160.743 408.325 161.397 407.835 162.26C407.368 163.123 407.135 164.138 407.135 165.305C407.135 166.472 407.368 167.487 407.835 168.35C408.325 169.213 408.955 169.878 409.725 170.345C410.518 170.788 411.358 171.01 412.245 171.01C413.155 171.01 413.995 170.777 414.765 170.31C415.558 169.843 416.188 169.178 416.655 168.315C417.145 167.452 417.39 166.425 417.39 165.235ZM424.362 165.235C424.362 163.275 424.747 161.537 425.517 160.02C426.31 158.503 427.372 157.337 428.702 156.52C430.055 155.703 431.56 155.295 433.217 155.295C434.664 155.295 435.924 155.587 436.997 156.17C438.094 156.753 438.969 157.488 439.622 158.375V155.61H444.557V175H439.622V172.165C438.992 173.075 438.117 173.833 436.997 174.44C435.9 175.023 434.629 175.315 433.182 175.315C431.549 175.315 430.055 174.895 428.702 174.055C427.372 173.215 426.31 172.037 425.517 170.52C424.747 168.98 424.362 167.218 424.362 165.235ZM439.622 165.305C439.622 164.115 439.389 163.1 438.922 162.26C438.455 161.397 437.825 160.743 437.032 160.3C436.239 159.833 435.387 159.6 434.477 159.6C433.567 159.6 432.727 159.822 431.957 160.265C431.187 160.708 430.557 161.362 430.067 162.225C429.6 163.065 429.367 164.068 429.367 165.235C429.367 166.402 429.6 167.428 430.067 168.315C430.557 169.178 431.187 169.843 431.957 170.31C432.75 170.777 433.59 171.01 434.477 171.01C435.387 171.01 436.239 170.788 437.032 170.345C437.825 169.878 438.455 169.225 438.922 168.385C439.389 167.522 439.622 166.495 439.622 165.305ZM459.754 155.33C462.064 155.33 463.931 156.065 465.354 157.535C466.778 158.982 467.489 161.012 467.489 163.625V175H462.589V164.29C462.589 162.75 462.204 161.572 461.434 160.755C460.664 159.915 459.614 159.495 458.284 159.495C456.931 159.495 455.858 159.915 455.064 160.755C454.294 161.572 453.909 162.75 453.909 164.29V175H449.009V155.61H453.909V158.025C454.563 157.185 455.391 156.532 456.394 156.065C457.421 155.575 458.541 155.33 459.754 155.33ZM490.366 155.61L478.361 184.17H473.146L477.346 174.51L469.576 155.61H475.071L480.076 169.155L485.151 155.61H490.366ZM494.844 175.245C493.957 175.245 493.222 174.977 492.639 174.44C492.079 173.88 491.799 173.192 491.799 172.375C491.799 171.558 492.079 170.882 492.639 170.345C493.222 169.785 493.957 169.505 494.844 169.505C495.707 169.505 496.419 169.785 496.979 170.345C497.539 170.882 497.819 171.558 497.819 172.375C497.819 173.192 497.539 173.88 496.979 174.44C496.419 174.977 495.707 175.245 494.844 175.245ZM500.172 165.305C500.172 163.298 500.58 161.548 501.397 160.055C502.214 158.538 503.345 157.372 504.792 156.555C506.239 155.715 507.895 155.295 509.762 155.295C512.165 155.295 514.149 155.902 515.712 157.115C517.299 158.305 518.36 159.985 518.897 162.155H513.612C513.332 161.315 512.854 160.662 512.177 160.195C511.524 159.705 510.707 159.46 509.727 159.46C508.327 159.46 507.219 159.973 506.402 161C505.585 162.003 505.177 163.438 505.177 165.305C505.177 167.148 505.585 168.583 506.402 169.61C507.219 170.613 508.327 171.115 509.727 171.115C511.71 171.115 513.005 170.228 513.612 168.455H518.897C518.36 170.555 517.299 172.223 515.712 173.46C514.125 174.697 512.142 175.315 509.762 175.315C507.895 175.315 506.239 174.907 504.792 174.09C503.345 173.25 502.214 172.083 501.397 170.59C500.58 169.073 500.172 167.312 500.172 165.305ZM530.763 175.315C528.897 175.315 527.217 174.907 525.723 174.09C524.23 173.25 523.052 172.072 522.188 170.555C521.348 169.038 520.928 167.288 520.928 165.305C520.928 163.322 521.36 161.572 522.223 160.055C523.11 158.538 524.312 157.372 525.828 156.555C527.345 155.715 529.037 155.295 530.903 155.295C532.77 155.295 534.462 155.715 535.978 156.555C537.495 157.372 538.685 158.538 539.548 160.055C540.435 161.572 540.878 163.322 540.878 165.305C540.878 167.288 540.423 169.038 539.513 170.555C538.627 172.072 537.413 173.25 535.873 174.09C534.357 174.907 532.653 175.315 530.763 175.315ZM530.763 171.045C531.65 171.045 532.478 170.835 533.248 170.415C534.042 169.972 534.672 169.318 535.138 168.455C535.605 167.592 535.838 166.542 535.838 165.305C535.838 163.462 535.348 162.05 534.368 161.07C533.412 160.067 532.233 159.565 530.833 159.565C529.433 159.565 528.255 160.067 527.298 161.07C526.365 162.05 525.898 163.462 525.898 165.305C525.898 167.148 526.353 168.572 527.263 169.575C528.197 170.555 529.363 171.045 530.763 171.045ZM568.219 155.33C570.599 155.33 572.513 156.065 573.959 157.535C575.429 158.982 576.164 161.012 576.164 163.625V175H571.264V164.29C571.264 162.773 570.879 161.618 570.109 160.825C569.339 160.008 568.289 159.6 566.959 159.6C565.629 159.6 564.568 160.008 563.774 160.825C563.004 161.618 562.619 162.773 562.619 164.29V175H557.719V164.29C557.719 162.773 557.334 161.618 556.564 160.825C555.794 160.008 554.744 159.6 553.414 159.6C552.061 159.6 550.988 160.008 550.194 160.825C549.424 161.618 549.039 162.773 549.039 164.29V175H544.139V155.61H549.039V157.955C549.669 157.138 550.474 156.497 551.454 156.03C552.458 155.563 553.554 155.33 554.744 155.33C556.261 155.33 557.614 155.657 558.804 156.31C559.994 156.94 560.916 157.85 561.569 159.04C562.199 157.92 563.109 157.022 564.299 156.345C565.513 155.668 566.819 155.33 568.219 155.33Z" fill="white"/>
<g clip-path="url(#clip0_209_4258)">
<path d="M1242.22 77.9368H1238.05C1237.71 77.9373 1237.39 77.8348 1237.12 77.6433C1236.85 77.4518 1236.64 77.1809 1236.53 76.8681C1236.21 75.9516 1235.83 75.0564 1235.4 74.1881C1235.25 73.8877 1235.2 73.5477 1235.25 73.2165C1235.31 72.8853 1235.47 72.5797 1235.7 72.3432L1238.67 69.379C1238.98 69.0776 1239.14 68.6689 1239.14 68.2428C1239.14 67.8167 1238.98 67.408 1238.67 67.1065L1232.26 60.7056C1231.96 60.4044 1231.55 60.2352 1231.12 60.2352C1230.69 60.2352 1230.28 60.4044 1229.98 60.7056L1226.96 63.7232C1226.72 63.959 1226.42 64.1155 1226.09 64.1709C1225.76 64.2264 1225.42 64.178 1225.12 64.0324C1224.27 63.6165 1223.39 63.2548 1222.49 62.9497C1222.18 62.8419 1221.9 62.6378 1221.71 62.3659C1221.51 62.094 1221.41 61.7681 1221.41 61.434V57.1591C1221.41 56.9482 1221.37 56.7394 1221.29 56.5445C1221.21 56.3497 1221.09 56.1726 1220.94 56.0235C1220.79 55.8744 1220.61 55.7561 1220.42 55.6754C1220.22 55.5947 1220.01 55.5532 1219.8 55.5532H1210.73C1210.52 55.5532 1210.31 55.5947 1210.11 55.6754C1209.92 55.7561 1209.74 55.8744 1209.59 56.0235C1209.44 56.1726 1209.33 56.3497 1209.24 56.5445C1209.16 56.7394 1209.12 56.9482 1209.12 57.1591V61.434C1209.12 61.7681 1209.02 62.094 1208.82 62.3659C1208.63 62.6378 1208.35 62.8419 1208.04 62.9497C1207.14 63.2548 1206.26 63.6164 1205.41 64.0324C1205.11 64.178 1204.77 64.2264 1204.44 64.1709C1204.11 64.1155 1203.81 63.959 1203.57 63.7232L1200.55 60.7056C1200.25 60.4044 1199.84 60.2353 1199.41 60.2353C1198.98 60.2353 1198.57 60.4044 1198.27 60.7056L1191.86 67.1065C1191.55 67.408 1191.39 67.8167 1191.39 68.2428C1191.39 68.6689 1191.55 69.0776 1191.86 69.379L1194.83 72.3432C1195.06 72.5797 1195.22 72.8853 1195.28 73.2165C1195.33 73.5477 1195.28 73.8877 1195.13 74.1881C1194.7 75.0559 1194.32 75.9512 1194 76.8681C1193.89 77.1809 1193.68 77.4516 1193.41 77.643C1193.14 77.8344 1192.82 77.937 1192.48 77.9368H1188.31C1188.1 77.9367 1187.89 77.9782 1187.69 78.0589C1187.5 78.1396 1187.32 78.2579 1187.17 78.407C1187.02 78.5561 1186.9 78.7332 1186.82 78.9281C1186.74 79.1229 1186.7 79.3318 1186.7 79.5427V88.5986C1186.7 88.8095 1186.74 89.0183 1186.82 89.2132C1186.9 89.4081 1187.02 89.5852 1187.17 89.7343C1187.32 89.8834 1187.5 90.0017 1187.69 90.0824C1187.89 90.1631 1188.1 90.2046 1188.31 90.2045H1192.38C1192.71 90.2042 1193.04 90.3107 1193.32 90.5087C1193.59 90.7067 1193.8 90.9861 1193.9 91.307C1194.22 92.2483 1194.59 93.168 1195.03 94.0602C1195.17 94.3607 1195.22 94.6997 1195.17 95.0299C1195.11 95.3601 1194.96 95.6651 1194.72 95.9024L1191.86 98.7626C1191.71 98.9116 1191.59 99.0885 1191.51 99.2834C1191.43 99.4782 1191.38 99.687 1191.38 99.8979C1191.38 100.109 1191.43 100.318 1191.51 100.512C1191.59 100.707 1191.71 100.884 1191.86 101.033L1198.27 107.436C1198.57 107.737 1198.98 107.906 1199.41 107.906C1199.84 107.906 1200.25 107.737 1200.55 107.436L1203.36 104.632C1203.6 104.394 1203.9 104.237 1204.24 104.183C1204.57 104.129 1204.91 104.182 1205.22 104.333C1206.13 104.786 1207.06 105.177 1208.03 105.503C1208.34 105.611 1208.62 105.816 1208.82 106.088C1209.01 106.361 1209.12 106.689 1209.12 107.025V110.979C1209.12 111.19 1209.16 111.399 1209.24 111.594C1209.32 111.789 1209.44 111.967 1209.59 112.116C1209.74 112.266 1209.92 112.384 1210.11 112.465C1210.31 112.546 1210.52 112.588 1210.73 112.588H1219.8C1220.01 112.588 1220.22 112.546 1220.42 112.465C1220.61 112.384 1220.79 112.266 1220.94 112.116C1221.09 111.967 1221.21 111.789 1221.29 111.594C1221.37 111.399 1221.41 111.19 1221.41 110.979V107.025C1221.41 106.689 1221.51 106.362 1221.71 106.089C1221.91 105.816 1222.18 105.612 1222.5 105.504C1223.47 105.178 1224.4 104.787 1225.31 104.334C1225.61 104.183 1225.96 104.13 1226.29 104.184C1226.62 104.237 1226.93 104.394 1227.17 104.633L1229.98 107.437C1230.28 107.738 1230.69 107.907 1231.12 107.907C1231.55 107.907 1231.96 107.738 1232.26 107.437L1238.67 101.033C1238.82 100.884 1238.94 100.707 1239.02 100.512C1239.1 100.317 1239.14 100.108 1239.14 99.8973C1239.14 99.6864 1239.1 99.4776 1239.02 99.2828C1238.94 99.0879 1238.82 98.911 1238.67 98.762L1235.81 95.9018C1235.57 95.6645 1235.42 95.3595 1235.36 95.0293C1235.31 94.6991 1235.36 94.3601 1235.5 94.0596C1235.94 93.1674 1236.31 92.2477 1236.63 91.3064C1236.73 90.9855 1236.94 90.7061 1237.21 90.5081C1237.49 90.3101 1237.82 90.2036 1238.15 90.2039H1242.22C1242.43 90.204 1242.64 90.1625 1242.84 90.0818C1243.03 90.0011 1243.21 89.8828 1243.36 89.7337C1243.51 89.5846 1243.63 89.4075 1243.71 89.2126C1243.79 89.0177 1243.83 88.8089 1243.83 88.598V79.5427C1243.83 79.3319 1243.79 79.1231 1243.71 78.9283C1243.63 78.7336 1243.51 78.5565 1243.36 78.4074C1243.21 78.2583 1243.03 78.14 1242.84 78.0592C1242.64 77.9785 1242.43 77.9369 1242.22 77.9368ZM1215.27 97.4522C1212.61 97.4524 1210.02 96.6677 1207.82 95.1973C1205.61 93.7268 1203.89 91.6368 1202.88 89.1913C1201.86 86.7459 1201.6 84.055 1202.12 81.4589C1202.63 78.8628 1203.91 76.4781 1205.79 74.6065C1207.66 72.7348 1210.05 71.4602 1212.65 70.9438C1215.25 70.4275 1217.95 70.6926 1220.4 71.7057C1222.85 72.7187 1224.94 74.4342 1226.41 76.6352C1227.89 78.8361 1228.67 81.4237 1228.67 84.0706C1228.67 87.6195 1227.26 91.0229 1224.75 93.5324C1222.23 96.0418 1218.82 97.4518 1215.27 97.4522Z" fill="#F4F4F4"/>
<path d="M1064.54 175.631H1061.47C1061.23 175.632 1060.99 175.557 1060.79 175.416C1060.59 175.275 1060.44 175.076 1060.36 174.846C1060.13 174.173 1059.85 173.516 1059.53 172.878C1059.42 172.657 1059.38 172.407 1059.42 172.164C1059.46 171.921 1059.58 171.696 1059.75 171.522L1061.93 169.345C1062.16 169.123 1062.28 168.823 1062.28 168.51C1062.28 168.197 1062.16 167.897 1061.93 167.675L1057.22 162.974C1057 162.753 1056.7 162.628 1056.39 162.628C1056.07 162.628 1055.77 162.753 1055.55 162.974L1053.33 165.191C1053.16 165.364 1052.93 165.479 1052.69 165.519C1052.45 165.56 1052.2 165.524 1051.98 165.418C1051.36 165.112 1050.71 164.846 1050.05 164.622C1049.82 164.543 1049.62 164.393 1049.47 164.193C1049.33 163.994 1049.25 163.754 1049.25 163.509V160.37C1049.25 160.215 1049.22 160.061 1049.16 159.918C1049.1 159.775 1049.02 159.645 1048.91 159.535C1048.8 159.426 1048.67 159.339 1048.52 159.28C1048.38 159.22 1048.23 159.19 1048.07 159.19H1041.41C1041.25 159.19 1041.1 159.22 1040.96 159.28C1040.81 159.339 1040.68 159.426 1040.57 159.535C1040.46 159.645 1040.38 159.775 1040.32 159.918C1040.26 160.061 1040.23 160.215 1040.23 160.37V163.51C1040.23 163.755 1040.15 163.994 1040.01 164.194C1039.87 164.394 1039.66 164.544 1039.43 164.623C1038.77 164.847 1038.12 165.113 1037.5 165.418C1037.28 165.525 1037.03 165.561 1036.79 165.52C1036.55 165.479 1036.32 165.364 1036.15 165.191L1033.93 162.975C1033.71 162.753 1033.41 162.629 1033.09 162.629C1032.78 162.629 1032.48 162.753 1032.26 162.975L1027.55 167.676C1027.32 167.897 1027.2 168.198 1027.2 168.511C1027.2 168.824 1027.32 169.124 1027.55 169.345L1029.73 171.522C1029.9 171.696 1030.02 171.921 1030.06 172.164C1030.1 172.407 1030.06 172.657 1029.95 172.878C1029.63 173.515 1029.35 174.173 1029.12 174.846C1029.04 175.076 1028.89 175.275 1028.69 175.416C1028.49 175.556 1028.25 175.632 1028.01 175.631H1024.94C1024.78 175.631 1024.63 175.662 1024.49 175.721C1024.34 175.78 1024.21 175.867 1024.1 175.977C1023.99 176.086 1023.91 176.216 1023.85 176.36C1023.79 176.503 1023.76 176.656 1023.76 176.811V183.463C1023.76 183.618 1023.79 183.771 1023.85 183.914C1023.91 184.057 1023.99 184.187 1024.1 184.297C1024.21 184.406 1024.34 184.493 1024.49 184.553C1024.63 184.612 1024.78 184.642 1024.94 184.642H1027.93C1028.17 184.642 1028.42 184.72 1028.62 184.866C1028.82 185.011 1028.97 185.216 1029.05 185.452C1029.28 186.143 1029.55 186.819 1029.87 187.474C1029.98 187.695 1030.02 187.944 1029.98 188.187C1029.94 188.429 1029.82 188.653 1029.65 188.827L1027.55 190.928C1027.44 191.038 1027.35 191.168 1027.29 191.311C1027.23 191.454 1027.2 191.607 1027.2 191.762C1027.2 191.917 1027.23 192.07 1027.29 192.213C1027.35 192.356 1027.44 192.486 1027.55 192.595L1032.26 197.299C1032.48 197.52 1032.78 197.645 1033.09 197.645C1033.41 197.645 1033.71 197.52 1033.93 197.299L1035.99 195.239C1036.17 195.065 1036.4 194.949 1036.64 194.91C1036.89 194.871 1037.14 194.91 1037.36 195.021C1038.03 195.354 1038.72 195.641 1039.42 195.88C1039.66 195.959 1039.86 196.109 1040 196.31C1040.15 196.51 1040.23 196.751 1040.23 196.997V199.902C1040.23 200.057 1040.26 200.211 1040.32 200.354C1040.38 200.497 1040.46 200.628 1040.57 200.737C1040.68 200.847 1040.81 200.934 1040.96 200.994C1041.1 201.053 1041.25 201.083 1041.41 201.083H1048.07C1048.23 201.083 1048.38 201.053 1048.52 200.994C1048.67 200.934 1048.8 200.847 1048.91 200.737C1049.02 200.628 1049.1 200.497 1049.16 200.354C1049.22 200.211 1049.25 200.057 1049.25 199.902V196.997C1049.25 196.751 1049.33 196.51 1049.47 196.31C1049.62 196.109 1049.82 195.959 1050.06 195.88C1050.76 195.641 1051.45 195.354 1052.12 195.021C1052.34 194.91 1052.59 194.871 1052.84 194.91C1053.08 194.949 1053.31 195.065 1053.49 195.239L1055.55 197.299C1055.77 197.52 1056.07 197.645 1056.39 197.645C1056.7 197.645 1057 197.52 1057.22 197.299L1061.93 192.595C1062.04 192.486 1062.13 192.356 1062.19 192.213C1062.25 192.07 1062.28 191.917 1062.28 191.762C1062.28 191.607 1062.25 191.454 1062.19 191.311C1062.13 191.168 1062.04 191.038 1061.93 190.928L1059.83 188.827C1059.66 188.653 1059.54 188.429 1059.5 188.187C1059.46 187.944 1059.5 187.695 1059.61 187.474C1059.93 186.819 1060.2 186.143 1060.43 185.452C1060.51 185.216 1060.66 185.011 1060.86 184.866C1061.06 184.72 1061.31 184.642 1061.55 184.642H1064.54C1064.7 184.642 1064.85 184.612 1064.99 184.553C1065.14 184.493 1065.27 184.406 1065.38 184.297C1065.49 184.187 1065.57 184.057 1065.63 183.914C1065.69 183.771 1065.72 183.618 1065.72 183.463V176.811C1065.72 176.656 1065.69 176.503 1065.63 176.359C1065.57 176.216 1065.49 176.086 1065.38 175.976C1065.27 175.867 1065.14 175.78 1064.99 175.721C1064.85 175.662 1064.7 175.631 1064.54 175.631ZM1044.74 189.966C1042.79 189.966 1040.89 189.389 1039.27 188.309C1037.65 187.229 1036.39 185.694 1035.64 183.898C1034.9 182.102 1034.7 180.125 1035.08 178.218C1035.46 176.312 1036.4 174.56 1037.78 173.185C1039.15 171.811 1040.91 170.875 1042.82 170.495C1044.73 170.116 1046.71 170.311 1048.51 171.055C1050.31 171.799 1051.85 173.059 1052.93 174.675C1054.01 176.292 1054.59 178.192 1054.59 180.136C1054.59 181.427 1054.33 182.705 1053.84 183.898C1053.34 185.09 1052.62 186.174 1051.7 187.087C1050.79 188 1049.7 188.724 1048.51 189.218C1047.31 189.712 1046.03 189.966 1044.74 189.966Z" fill="#F4F4F4"/>
<path d="M1041.53 121.276H1037.35C1037.02 121.277 1036.69 121.174 1036.42 120.983C1036.15 120.791 1035.94 120.521 1035.83 120.208C1035.51 119.291 1035.14 118.396 1034.7 117.527C1034.55 117.227 1034.5 116.887 1034.56 116.556C1034.61 116.225 1034.77 115.919 1035.01 115.683L1037.98 112.718C1038.28 112.417 1038.45 112.008 1038.45 111.582C1038.45 111.156 1038.28 110.747 1037.98 110.446L1031.56 104.045C1031.26 103.744 1030.85 103.575 1030.42 103.575C1030 103.575 1029.59 103.744 1029.28 104.045L1026.26 107.063C1026.03 107.298 1025.72 107.455 1025.39 107.51C1025.06 107.566 1024.73 107.517 1024.43 107.372C1023.57 106.956 1022.69 106.594 1021.8 106.289C1021.48 106.181 1021.2 105.977 1021.01 105.705C1020.81 105.433 1020.71 105.107 1020.71 104.773V100.498C1020.71 100.288 1020.67 100.079 1020.59 99.8838C1020.51 99.689 1020.39 99.5119 1020.24 99.3628C1020.09 99.2136 1019.91 99.0953 1019.72 99.0147C1019.52 98.934 1019.31 98.8925 1019.1 98.8926H1010.03C1009.82 98.8925 1009.61 98.9341 1009.42 99.0147C1009.22 99.0954 1009.04 99.2137 1008.9 99.3629C1008.75 99.512 1008.63 99.6891 1008.55 99.8839C1008.47 100.079 1008.42 100.288 1008.42 100.498V104.773C1008.42 105.107 1008.32 105.433 1008.13 105.705C1007.93 105.977 1007.66 106.181 1007.34 106.289C1006.44 106.594 1005.56 106.956 1004.71 107.372C1004.41 107.517 1004.07 107.566 1003.74 107.51C1003.41 107.455 1003.11 107.298 1002.87 107.063L999.851 104.045C999.549 103.744 999.14 103.575 998.713 103.575C998.286 103.575 997.876 103.744 997.574 104.045L991.159 110.446C990.857 110.747 990.687 111.156 990.687 111.582C990.687 112.008 990.857 112.417 991.159 112.718L994.128 115.683C994.367 115.919 994.525 116.225 994.579 116.556C994.634 116.887 994.583 117.227 994.432 117.527C993.998 118.395 993.62 119.291 993.303 120.208C993.192 120.52 992.986 120.791 992.715 120.983C992.443 121.174 992.119 121.277 991.787 121.276H987.609C987.398 121.276 987.188 121.318 986.993 121.398C986.798 121.479 986.62 121.597 986.471 121.746C986.322 121.896 986.203 122.073 986.122 122.267C986.041 122.462 986 122.671 986 122.882V131.938C986 132.149 986.041 132.358 986.122 132.553C986.203 132.748 986.322 132.925 986.471 133.074C986.62 133.223 986.798 133.341 986.993 133.422C987.188 133.503 987.397 133.544 987.609 133.544H991.677C992.015 133.544 992.345 133.65 992.619 133.848C992.893 134.046 993.098 134.325 993.204 134.646C993.517 135.588 993.893 136.508 994.328 137.4C994.475 137.7 994.525 138.039 994.471 138.369C994.416 138.7 994.26 139.004 994.023 139.242L991.158 142.102C991.009 142.251 990.89 142.428 990.809 142.623C990.728 142.818 990.686 143.026 990.686 143.237C990.686 143.448 990.728 143.657 990.809 143.852C990.89 144.047 991.009 144.224 991.158 144.373L997.573 150.776C997.875 151.077 998.285 151.247 998.712 151.247C999.139 151.247 999.548 151.077 999.85 150.776L1002.66 147.972C1002.9 147.734 1003.21 147.577 1003.54 147.523C1003.87 147.47 1004.22 147.522 1004.52 147.673C1005.43 148.127 1006.37 148.517 1007.33 148.843C1007.65 148.951 1007.92 149.155 1008.12 149.428C1008.32 149.701 1008.42 150.029 1008.42 150.365V154.319C1008.42 154.53 1008.46 154.739 1008.55 154.934C1008.63 155.13 1008.74 155.307 1008.89 155.456C1009.04 155.606 1009.22 155.724 1009.42 155.805C1009.61 155.886 1009.82 155.928 1010.03 155.928H1019.1C1019.31 155.928 1019.52 155.886 1019.72 155.805C1019.91 155.724 1020.09 155.606 1020.24 155.456C1020.39 155.307 1020.51 155.13 1020.59 154.935C1020.67 154.739 1020.71 154.53 1020.71 154.319V150.365C1020.71 150.029 1020.82 149.701 1021.01 149.428C1021.21 149.155 1021.49 148.951 1021.81 148.843C1022.77 148.517 1023.71 148.127 1024.61 147.673C1024.92 147.522 1025.26 147.47 1025.59 147.523C1025.93 147.577 1026.24 147.734 1026.47 147.972L1029.28 150.776C1029.59 151.077 1029.99 151.247 1030.42 151.247C1030.85 151.247 1031.26 151.077 1031.56 150.776L1037.98 144.373C1038.12 144.224 1038.24 144.047 1038.32 143.852C1038.41 143.657 1038.45 143.448 1038.45 143.237C1038.45 143.026 1038.41 142.818 1038.32 142.623C1038.24 142.428 1038.12 142.251 1037.98 142.102L1035.11 139.242C1034.87 139.004 1034.72 138.7 1034.66 138.369C1034.61 138.039 1034.66 137.7 1034.81 137.4C1035.24 136.508 1035.62 135.588 1035.93 134.646C1036.04 134.325 1036.24 134.046 1036.51 133.848C1036.79 133.65 1037.12 133.544 1037.46 133.544H1041.52C1041.74 133.544 1041.95 133.502 1042.14 133.422C1042.34 133.341 1042.51 133.223 1042.66 133.074C1042.81 132.924 1042.93 132.747 1043.01 132.553C1043.09 132.358 1043.13 132.149 1043.13 131.938V122.882C1043.13 122.456 1042.96 122.048 1042.66 121.747C1042.36 121.446 1041.95 121.277 1041.53 121.276ZM1014.57 140.792C1011.92 140.792 1009.32 140.007 1007.12 138.537C1004.91 137.066 1003.2 134.976 1002.18 132.531C1001.17 130.085 1000.9 127.394 1001.42 124.798C1001.94 122.202 1003.21 119.817 1005.09 117.946C1006.96 116.074 1009.35 114.8 1011.95 114.283C1014.55 113.767 1017.25 114.032 1019.7 115.045C1022.15 116.058 1024.24 117.774 1025.72 119.975C1027.19 122.175 1027.97 124.763 1027.97 127.41C1027.97 130.959 1026.56 134.362 1024.05 136.872C1021.53 139.381 1018.12 140.791 1014.57 140.792Z" fill="#F4F4F4"/>
<path d="M1028.3 180.217L1185.67 180.217C1189.53 180.217 1192.67 177.09 1192.67 173.232V58.2178C1192.67 54.3601 1189.53 51.2328 1185.67 51.2328L1028.3 51.2328C1024.43 51.2328 1021.3 54.3601 1021.3 58.2178V173.232C1021.3 177.09 1024.43 180.217 1028.3 180.217Z" fill="white"/>
<path d="M1021.07 173.232V58.2178C1021.07 56.3042 1021.83 54.4696 1023.19 53.1165C1024.54 51.7634 1026.38 51.0022 1028.3 51H1185.67C1187.59 51.0022 1189.43 51.7634 1190.78 53.1165C1192.14 54.4696 1192.9 56.3042 1192.9 58.2178V173.232C1192.9 175.146 1192.14 176.98 1190.78 178.334C1189.43 179.687 1187.59 180.448 1185.67 180.45H1028.3C1026.38 180.448 1024.54 179.687 1023.19 178.334C1021.83 176.98 1021.07 175.146 1021.07 173.232ZM1028.3 51.4658C1026.5 51.4678 1024.78 52.1799 1023.52 53.4458C1022.25 54.7116 1021.53 56.4279 1021.53 58.2181V173.232C1021.53 175.022 1022.25 176.739 1023.52 178.005C1024.78 179.27 1026.5 179.982 1028.3 179.985H1185.67C1187.46 179.982 1189.18 179.27 1190.45 178.005C1191.72 176.739 1192.43 175.022 1192.43 173.232V58.2178C1192.43 56.4276 1191.72 54.7113 1190.45 53.4454C1189.18 52.1795 1187.46 51.4675 1185.67 51.4655L1028.3 51.4658Z" fill="#292A2E"/>
<path d="M1021.3 58.217V65.2456H1192.67V58.217C1192.67 56.3646 1191.93 54.5881 1190.62 53.2782C1189.31 51.9683 1187.53 51.2323 1185.67 51.2319H1028.3C1026.44 51.2319 1024.66 51.9679 1023.35 53.2778C1022.04 54.5878 1021.3 56.3644 1021.3 58.217Z" fill="#292A2E"/>
<path d="M1051.46 129.26C1047.72 129.26 1044.05 128.151 1040.94 126.073C1037.82 123.994 1035.39 121.041 1033.96 117.585C1032.53 114.129 1032.15 110.327 1032.88 106.658C1033.61 102.989 1035.42 99.6193 1038.07 96.9744C1040.72 94.3294 1044.09 92.5282 1047.77 91.7985C1051.44 91.0687 1055.25 91.4433 1058.71 92.8747C1062.18 94.3061 1065.13 96.7302 1067.22 99.8403C1069.3 102.95 1070.41 106.607 1070.41 110.347C1070.4 115.362 1068.41 120.169 1064.85 123.714C1061.3 127.26 1056.49 129.254 1051.46 129.26ZM1051.46 92.0326C1047.83 92.0326 1044.29 93.1068 1041.27 95.1192C1038.25 97.1317 1035.9 99.9921 1034.51 103.339C1033.12 106.685 1032.76 110.368 1033.47 113.921C1034.18 117.473 1035.92 120.737 1038.49 123.298C1041.06 125.859 1044.32 127.604 1047.88 128.31C1051.44 129.017 1055.13 128.654 1058.48 127.268C1061.84 125.882 1064.7 123.535 1066.72 120.523C1068.74 117.511 1069.81 113.97 1069.81 110.347C1069.81 105.492 1067.87 100.836 1064.43 97.4023C1060.99 93.9686 1056.33 92.037 1051.46 92.0314V92.0326Z" fill="#292A2E"/>
<path d="M1106.98 129.26C1103.24 129.26 1099.57 128.151 1096.46 126.073C1093.34 123.994 1090.91 121.041 1089.48 117.585C1088.05 114.129 1087.67 110.327 1088.4 106.658C1089.13 102.989 1090.94 99.6193 1093.59 96.9744C1096.24 94.3294 1099.61 92.5282 1103.29 91.7985C1106.96 91.0687 1110.77 91.4433 1114.23 92.8747C1117.7 94.3061 1120.65 96.7302 1122.74 99.8403C1124.82 102.95 1125.93 106.607 1125.93 110.347C1125.92 115.362 1123.93 120.169 1120.37 123.714C1116.82 127.26 1112.01 129.254 1106.98 129.26ZM1106.98 92.0326C1103.35 92.0326 1099.81 93.1068 1096.79 95.1192C1093.77 97.1317 1091.42 99.9921 1090.03 103.339C1088.64 106.685 1088.28 110.368 1088.99 113.921C1089.7 117.473 1091.44 120.737 1094.01 123.298C1096.58 125.859 1099.84 127.604 1103.4 128.31C1106.96 129.017 1110.65 128.654 1114 127.268C1117.36 125.882 1120.22 123.535 1122.24 120.523C1124.26 117.511 1125.33 113.97 1125.33 110.347C1125.33 105.492 1123.39 100.836 1119.95 97.4023C1116.51 93.9686 1111.85 92.037 1106.98 92.0314V92.0326Z" fill="#292A2E"/>
<path d="M1162.5 129.26C1158.76 129.26 1155.09 128.151 1151.98 126.073C1148.86 123.994 1146.43 121.041 1145 117.585C1143.57 114.129 1143.19 110.327 1143.92 106.658C1144.65 102.989 1146.46 99.6193 1149.11 96.9744C1151.76 94.3294 1155.13 92.5282 1158.81 91.7985C1162.48 91.0687 1166.29 91.4433 1169.75 92.8747C1173.22 94.3061 1176.18 96.7302 1178.26 99.8403C1180.34 102.95 1181.45 106.607 1181.45 110.347C1181.44 115.362 1179.45 120.169 1175.89 123.714C1172.34 127.26 1167.53 129.254 1162.5 129.26ZM1162.5 92.0326C1158.87 92.0326 1155.33 93.1068 1152.31 95.1192C1149.29 97.1317 1146.94 99.9921 1145.55 103.339C1144.16 106.685 1143.8 110.368 1144.51 113.921C1145.22 117.473 1146.96 120.737 1149.53 123.298C1152.1 125.859 1155.36 127.604 1158.92 128.31C1162.48 129.017 1166.17 128.654 1169.52 127.268C1172.88 125.882 1175.74 123.535 1177.76 120.523C1179.78 117.511 1180.85 113.97 1180.85 110.347C1180.85 105.492 1178.91 100.836 1175.47 97.4023C1172.03 93.9686 1167.37 92.037 1162.5 92.0314V92.0326Z" fill="#292A2E"/>
<path opacity="0.6" d="M1174.3 113.072V101.296H1160.69V110.536H1170.75L1174.3 113.072Z" fill="#0CBC8B"/>
<path d="M1150.71 121.629V105.704H1169.12V118.199H1155.51L1150.71 121.629Z" fill="#0CBC8B"/>
<path d="M1154.88 113.666C1155.76 113.666 1156.48 112.953 1156.48 112.074C1156.48 111.194 1155.76 110.481 1154.88 110.481C1154 110.481 1153.29 111.194 1153.29 112.074C1153.29 112.953 1154 113.666 1154.88 113.666Z" fill="white"/>
<path d="M1159.91 113.666C1160.79 113.666 1161.51 112.953 1161.51 112.074C1161.51 111.194 1160.79 110.481 1159.91 110.481C1159.03 110.481 1158.32 111.194 1158.32 112.074C1158.32 112.953 1159.03 113.666 1159.91 113.666Z" fill="white"/>
<path d="M1164.94 113.666C1165.83 113.666 1166.54 112.953 1166.54 112.074C1166.54 111.194 1165.83 110.481 1164.94 110.481C1164.06 110.481 1163.35 111.194 1163.35 112.074C1163.35 112.953 1164.06 113.666 1164.94 113.666Z" fill="white"/>
<path d="M1060.9 116.134C1061.09 116.256 1061.22 116.444 1061.26 116.659C1061.31 116.873 1061.28 117.098 1061.16 117.287L1060.13 119.004C1059.86 119.468 1059.41 119.809 1058.9 119.957C1057.18 120.426 1053.4 120.521 1047.33 114.469C1041.27 108.417 1041.37 104.639 1041.84 102.928C1041.98 102.41 1042.33 101.968 1042.79 101.695L1044.51 100.665C1044.7 100.552 1044.93 100.516 1045.14 100.564C1045.36 100.612 1045.54 100.741 1045.67 100.924L1048.41 105.031C1048.53 105.21 1048.58 105.429 1048.54 105.642C1048.51 105.855 1048.39 106.047 1048.22 106.18L1046.68 107.375C1046.52 107.499 1046.41 107.678 1046.37 107.877C1046.32 108.077 1046.36 108.284 1046.46 108.463C1046.91 109.274 1047.34 110.23 1049.46 112.35C1051.58 114.47 1052.54 114.895 1053.35 115.346C1053.53 115.445 1053.74 115.476 1053.94 115.435C1054.14 115.394 1054.32 115.282 1054.44 115.12L1055.64 113.584C1055.77 113.413 1055.96 113.299 1056.18 113.265C1056.39 113.23 1056.61 113.277 1056.79 113.397L1060.9 116.134Z" fill="#0CBC8B"/>
<path opacity="0.6" d="M1116.75 116.995H1097.3C1097.08 116.996 1096.87 116.91 1096.71 116.757C1096.56 116.603 1096.47 116.394 1096.47 116.176L1096.4 104.539C1096.4 104.443 1096.42 104.347 1096.45 104.258C1096.49 104.169 1096.54 104.087 1096.61 104.019C1096.68 103.95 1096.76 103.896 1096.85 103.858C1096.94 103.821 1097.03 103.802 1097.13 103.801L1116.76 103.701C1116.96 103.7 1117.14 103.776 1117.28 103.913C1117.42 104.049 1117.5 104.236 1117.5 104.43L1117.57 116.167C1117.57 116.275 1117.55 116.383 1117.51 116.483C1117.47 116.583 1117.41 116.674 1117.33 116.751C1117.25 116.828 1117.16 116.889 1117.06 116.931C1116.96 116.973 1116.86 116.994 1116.75 116.995Z" fill="#0CBC8B"/>
<path d="M1117.29 103.92C1116.13 104.772 1107.69 110.968 1107.69 110.974C1107.46 111.103 1107.2 111.167 1106.94 111.162C1106.67 111.157 1106.42 111.082 1106.19 110.945L1096.6 104.034C1096.67 103.961 1096.75 103.903 1096.84 103.862C1096.93 103.822 1097.03 103.801 1097.13 103.801L1116.76 103.699C1116.86 103.699 1116.96 103.718 1117.05 103.756C1117.14 103.794 1117.22 103.85 1117.29 103.92Z" fill="#0CBC8B"/>
<path d="M1197.8 118.274C1201.57 118.274 1204.62 115.225 1204.62 111.465C1204.62 107.704 1201.57 104.656 1197.8 104.656C1194.03 104.656 1190.98 107.704 1190.98 111.465C1190.98 115.225 1194.03 118.274 1197.8 118.274Z" fill="#0E185F"/>
<path d="M1194.6 110.82C1194.43 110.82 1194.25 110.769 1194.11 110.673C1193.96 110.577 1193.85 110.44 1193.78 110.279C1193.65 109.994 1190.8 103.192 1193.9 93.2125C1197.26 82.4031 1208.96 82.2773 1209.08 82.2773C1209.32 82.2773 1209.54 82.3718 1209.71 82.5399C1209.88 82.708 1209.98 82.9359 1209.98 83.1737C1209.98 83.4114 1209.88 83.6394 1209.71 83.8075C1209.54 83.9756 1209.32 84.07 1209.08 84.07C1208.65 84.07 1198.58 84.2107 1195.61 93.7431C1192.71 103.095 1195.4 109.504 1195.42 109.568C1195.48 109.704 1195.51 109.853 1195.49 110.001C1195.48 110.149 1195.43 110.291 1195.35 110.416C1195.27 110.54 1195.16 110.641 1195.03 110.712C1194.89 110.783 1194.75 110.82 1194.6 110.82L1194.6 110.82Z" fill="#0E185F"/>
<path d="M1195.33 118.274C1199.1 118.274 1202.15 115.225 1202.15 111.465C1202.15 107.704 1199.1 104.656 1195.33 104.656C1191.56 104.656 1188.51 107.704 1188.51 111.465C1188.51 115.225 1191.56 118.274 1195.33 118.274Z" fill="#0E185F"/>
<path opacity="0.3" d="M1195.33 118.274C1199.1 118.274 1202.15 115.225 1202.15 111.465C1202.15 107.704 1199.1 104.656 1195.33 104.656C1191.56 104.656 1188.51 107.704 1188.51 111.465C1188.51 115.225 1191.56 118.274 1195.33 118.274Z" fill="white"/>
<path d="M1196.97 118.274C1200.73 118.274 1203.79 115.225 1203.79 111.465C1203.79 107.704 1200.73 104.656 1196.97 104.656C1193.2 104.656 1190.14 107.704 1190.14 111.465C1190.14 115.225 1193.2 118.274 1196.97 118.274Z" fill="#0E185F"/>
<path d="M1229.14 99.2134C1229.14 99.2134 1231.33 109.696 1233.95 112.867C1241.49 121.997 1244.79 132.964 1239.39 139.654C1233.98 146.343 1196.31 151.746 1191.5 138.681C1187.44 127.682 1191.79 125.734 1191.84 116.203C1191.87 111.89 1192.47 102.795 1192.47 102.795" fill="#0A0A0A"/>
<path d="M1197.66 133.135C1197.73 133.126 1198.49 145.782 1213.22 144.679C1223.42 143.917 1227.06 133.116 1227.29 133.116C1226.19 132.883 1224.34 132.544 1223.85 132.284C1222.25 131.423 1220.26 130.527 1219.74 127.414C1219.44 125.621 1219.95 116.442 1219.79 114.626L1204.14 118.114C1204.36 121.947 1205.89 130.834 1200.53 132.407C1199.63 132.669 1198.67 132.908 1197.66 133.135Z" fill="#E98862"/>
<path opacity="0.5" d="M1203.92 128.777C1204.17 127.988 1204.32 127.175 1204.39 126.352C1204.56 124.474 1204.53 122.583 1204.29 120.712C1207.47 120.283 1210.47 118.973 1212.94 116.929C1213.23 118 1214.83 122.682 1214.39 123.7C1213.55 125.625 1209.62 128.777 1203.92 128.777Z" fill="#0C0C0C"/>
<path d="M1206.71 125.997C1212.9 125.764 1220.49 122.257 1221.03 113.907L1221.51 106.372C1222.06 98.0223 1218.1 90.9694 1210.22 90.4609C1202.35 89.953 1196.02 96.3417 1195.48 104.692L1195.26 108.028C1195.06 111.233 1195.65 126.411 1206.71 125.997Z" fill="#E98862"/>
<path opacity="0.1" d="M1209.15 114.822C1210.18 114.806 1211 114.187 1210.99 113.438C1210.97 112.689 1210.14 112.095 1209.11 112.11C1208.09 112.126 1207.27 112.746 1207.28 113.494C1207.29 114.243 1208.13 114.837 1209.15 114.822Z" fill="#0C0C0C"/>
<path opacity="0.1" d="M1198.12 113.306C1198.13 114.053 1197.31 114.673 1196.29 114.69C1196.11 114.692 1195.94 114.676 1195.76 114.643C1195.6 113.772 1195.48 112.928 1195.4 112.143C1195.67 112.036 1195.96 111.98 1196.25 111.978C1197.27 111.961 1198.11 112.555 1198.12 113.306Z" fill="#0C0C0C"/>
<path d="M1197.84 107.681C1198.38 107.681 1198.81 107.248 1198.81 106.714C1198.81 106.18 1198.38 105.747 1197.84 105.747C1197.31 105.747 1196.87 106.18 1196.87 106.714C1196.87 107.248 1197.31 107.681 1197.84 107.681Z" fill="#0C0C0C"/>
<path d="M1207.43 108.396C1207.97 108.396 1208.4 107.963 1208.4 107.429C1208.4 106.895 1207.97 106.462 1207.43 106.462C1206.9 106.462 1206.46 106.895 1206.46 107.429C1206.46 107.963 1206.9 108.396 1207.43 108.396Z" fill="#0C0C0C"/>
<path opacity="0.5" d="M1202.88 114.982H1202.86C1202.54 114.959 1202.22 114.918 1201.91 114.86C1201.44 114.771 1200.82 114.603 1200.84 114.185C1200.87 113.71 1202.51 108.66 1202.7 108.086C1202.72 108.038 1202.75 107.998 1202.8 107.976C1202.85 107.953 1202.9 107.949 1202.95 107.965C1203 107.981 1203.04 108.015 1203.06 108.061C1203.09 108.106 1203.09 108.159 1203.08 108.209C1202.38 110.36 1201.26 113.891 1201.24 114.211C1201.31 114.35 1202.1 114.533 1202.89 114.585C1202.94 114.588 1202.99 114.612 1203.02 114.65C1203.06 114.688 1203.07 114.737 1203.07 114.788C1203.07 114.839 1203.05 114.888 1203.01 114.924C1202.98 114.96 1202.93 114.981 1202.88 114.982L1202.88 114.982Z" fill="#0C0C0C"/>
<path opacity="0.5" d="M1204.45 118.364C1203.18 118.356 1201.92 118.049 1200.78 117.468C1200.76 117.457 1200.74 117.441 1200.72 117.421C1200.71 117.401 1200.69 117.379 1200.68 117.354C1200.67 117.304 1200.67 117.25 1200.69 117.202C1200.72 117.155 1200.76 117.119 1200.81 117.102C1200.86 117.084 1200.91 117.088 1200.96 117.111C1203.41 118.306 1205.69 118.268 1207.56 117C1207.59 116.974 1207.63 116.949 1207.67 116.926C1207.72 116.905 1207.77 116.902 1207.82 116.919C1207.87 116.936 1207.91 116.972 1207.93 117.017C1207.96 117.063 1207.96 117.116 1207.95 117.166C1207.93 117.215 1207.9 117.256 1207.85 117.281C1207.84 117.289 1207.81 117.306 1207.78 117.329C1206.8 117.997 1205.64 118.358 1204.45 118.364Z" fill="#0C0C0C"/>
<path d="M1227.89 108.175L1220.84 107.76C1215.35 106.291 1212.66 97.4552 1212.66 97.4552C1212.66 97.4552 1208.27 104.41 1192.45 102.788C1192.45 102.788 1191.68 80.6883 1215.19 84.4301C1222.75 85.6336 1228.93 92.2625 1229.49 102.194C1229.89 109.154 1227.89 108.175 1227.89 108.175Z" fill="#0A0A0A"/>
<path d="M1220.37 116.419C1222.77 116.574 1224.87 114.143 1225.03 111.754C1225.18 109.364 1223.33 107.922 1220.93 107.767L1219.6 109.288L1218.31 116.287L1220.37 116.419Z" fill="#E98862"/>
<path d="M1200.54 104.527C1199.9 104.194 1199.18 104.035 1198.46 104.068C1198.1 104.082 1197.74 104.15 1197.4 104.271C1197.06 104.391 1196.73 104.553 1196.42 104.754L1196.41 104.76C1196.38 104.781 1196.34 104.788 1196.3 104.779C1196.26 104.77 1196.23 104.747 1196.21 104.713C1196.18 104.68 1196.18 104.639 1196.19 104.6C1196.19 104.562 1196.22 104.527 1196.25 104.505C1196.57 104.277 1196.92 104.09 1197.28 103.949C1197.65 103.805 1198.04 103.717 1198.44 103.688C1199.24 103.625 1200.04 103.778 1200.76 104.13C1200.82 104.157 1200.86 104.205 1200.88 104.262C1200.9 104.32 1200.89 104.382 1200.87 104.437C1200.84 104.491 1200.79 104.532 1200.73 104.551C1200.68 104.57 1200.61 104.566 1200.56 104.539L1200.55 104.536L1200.54 104.527Z" fill="#0C0C0C"/>
<path d="M1206.93 104.548C1207.69 104.288 1208.51 104.236 1209.29 104.398C1209.68 104.476 1210.06 104.611 1210.41 104.8C1210.75 104.986 1211.08 105.214 1211.37 105.48C1211.39 105.507 1211.41 105.543 1211.42 105.583C1211.42 105.622 1211.41 105.661 1211.38 105.691C1211.35 105.721 1211.32 105.74 1211.28 105.744C1211.24 105.749 1211.2 105.737 1211.17 105.713L1211.16 105.706C1210.88 105.469 1210.58 105.267 1210.25 105.105C1209.93 104.943 1209.58 104.831 1209.22 104.772C1208.51 104.65 1207.78 104.718 1207.11 104.969L1207.09 104.976C1207.06 104.987 1207.03 104.992 1207 104.992C1206.97 104.991 1206.94 104.985 1206.92 104.972C1206.89 104.96 1206.86 104.943 1206.84 104.921C1206.82 104.9 1206.81 104.874 1206.8 104.846C1206.79 104.818 1206.78 104.789 1206.78 104.759C1206.78 104.729 1206.79 104.699 1206.8 104.672C1206.81 104.644 1206.83 104.619 1206.85 104.599C1206.87 104.578 1206.9 104.561 1206.93 104.551L1206.93 104.548Z" fill="#0C0C0C"/>
<path opacity="0.52" d="M1204.41 120.25C1204.18 120.252 1203.95 120.235 1203.72 120.198C1203.7 120.194 1203.67 120.185 1203.65 120.171C1203.63 120.157 1203.61 120.139 1203.59 120.118C1203.58 120.097 1203.57 120.073 1203.56 120.048C1203.56 120.023 1203.55 119.996 1203.56 119.97C1203.56 119.945 1203.57 119.92 1203.59 119.898C1203.6 119.875 1203.62 119.856 1203.64 119.841C1203.66 119.825 1203.68 119.814 1203.71 119.808C1203.73 119.802 1203.76 119.801 1203.79 119.805C1205.16 120.023 1205.85 119.427 1205.88 119.401C1205.92 119.366 1205.97 119.348 1206.02 119.35C1206.07 119.353 1206.12 119.376 1206.16 119.416C1206.19 119.455 1206.21 119.506 1206.21 119.559C1206.21 119.612 1206.18 119.661 1206.14 119.696C1205.65 120.075 1205.04 120.271 1204.41 120.25Z" fill="#0C0C0C"/>
<path d="M1220.91 107.655C1216.06 106.56 1214.1 103.581 1213.3 101.274C1212.78 99.7338 1212.59 98.1027 1212.74 96.4849L1212.89 96.5049C1212.75 98.1016 1212.94 99.7112 1213.45 101.231C1214.23 103.499 1216.16 106.429 1220.95 107.509L1220.91 107.655Z" fill="#0C0C0C"/>
<path d="M1146.28 138.007L1141.48 128.967C1141.38 128.768 1141.23 128.594 1141.05 128.455C1140.88 128.315 1140.67 128.214 1140.45 128.158C1140.24 128.102 1140.01 128.092 1139.79 128.128C1139.56 128.164 1139.35 128.247 1139.16 128.369C1138.82 128.606 1138.58 128.962 1138.49 129.366C1138.39 129.771 1138.45 130.196 1138.65 130.559L1139.68 132.497L1133.64 127.885C1132.98 127.361 1131.83 127.14 1131.29 127.921C1131.06 128.208 1130.94 128.564 1130.94 128.929C1130.94 129.295 1131.07 129.65 1131.29 129.936C1131.29 129.941 1131.28 129.947 1131.28 129.953C1131.27 129.958 1131.27 129.965 1131.27 129.97L1130.25 129.16C1130.06 129.01 1129.84 128.904 1129.6 128.85C1129.37 128.796 1129.12 128.796 1128.89 128.848C1128.65 128.9 1128.43 129.005 1128.24 129.153C1128.05 129.302 1127.89 129.491 1127.79 129.707C1127.62 130.05 1127.58 130.438 1127.67 130.808C1127.76 131.177 1127.98 131.504 1128.28 131.734L1128.71 132.079C1128.71 132.096 1128.71 132.114 1128.71 132.131C1128.36 131.967 1127.97 131.931 1127.6 132.031C1127.22 132.13 1126.9 132.359 1126.68 132.675C1126.45 133.028 1126.37 133.454 1126.44 133.869C1126.51 134.283 1126.74 134.655 1127.07 134.911L1128.15 135.765C1128.13 135.764 1128.1 135.768 1128.08 135.778C1128.06 135.788 1128.04 135.802 1128.03 135.821C1128.01 135.844 1128 135.871 1128 135.899C1127.65 135.839 1127.29 135.895 1126.97 136.059C1126.66 136.223 1126.4 136.486 1126.25 136.808C1126.1 137.148 1126.07 137.531 1126.16 137.892C1126.25 138.253 1126.46 138.573 1126.76 138.799L1135.88 146.012C1137.15 147.021 1138.7 147.627 1140.32 147.752C1141.94 147.877 1143.57 147.516 1144.98 146.714C1146.2 146.023 1147.11 144.884 1147.5 143.54C1147.89 142.195 1147.74 140.751 1147.09 139.514L1146.28 138.007Z" fill="#E98862"/>
<g opacity="0.2">
<path opacity="0.2" d="M1137.25 134.531C1137.23 134.561 1137.19 134.581 1137.15 134.585C1137.11 134.59 1137.08 134.579 1137.04 134.556L1131.3 130.162C1131.29 130.15 1131.28 130.135 1131.27 130.118C1131.26 130.101 1131.25 130.083 1131.25 130.063C1131.24 130.044 1131.25 130.024 1131.25 130.005C1131.26 129.986 1131.27 129.968 1131.28 129.953C1131.29 129.937 1131.3 129.924 1131.32 129.914C1131.34 129.904 1131.36 129.898 1131.38 129.895C1131.4 129.893 1131.42 129.894 1131.43 129.899C1131.45 129.904 1131.47 129.913 1131.49 129.925L1137.23 134.319C1137.26 134.343 1137.28 134.378 1137.28 134.418C1137.29 134.457 1137.28 134.496 1137.25 134.528L1137.25 134.531Z" fill="#0C0C0C"/>
</g>
<g opacity="0.2">
<path opacity="0.2" d="M1135.38 137.111C1135.36 137.142 1135.32 137.161 1135.28 137.166C1135.24 137.17 1135.2 137.16 1135.17 137.136L1128.77 132.233C1128.74 132.209 1128.72 132.173 1128.71 132.134C1128.71 132.095 1128.72 132.055 1128.74 132.024C1128.77 131.993 1128.8 131.974 1128.84 131.969C1128.88 131.963 1128.92 131.973 1128.95 131.996L1135.36 136.898C1135.39 136.922 1135.41 136.957 1135.41 136.997C1135.42 137.036 1135.41 137.075 1135.38 137.107L1135.38 137.111Z" fill="#0C0C0C"/>
</g>
<g opacity="0.2">
<path opacity="0.2" d="M1133.37 139.918C1133.35 139.948 1133.31 139.968 1133.27 139.972C1133.23 139.977 1133.19 139.966 1133.16 139.943L1128.05 136.031C1128.02 136.007 1128 135.972 1128 135.932C1127.99 135.893 1128 135.853 1128.03 135.822C1128.05 135.79 1128.08 135.77 1128.12 135.764C1128.16 135.759 1128.2 135.77 1128.24 135.794L1133.34 139.706C1133.38 139.73 1133.4 139.766 1133.4 139.805C1133.41 139.844 1133.4 139.884 1133.37 139.915L1133.37 139.918Z" fill="#0C0C0C"/>
</g>
<path d="M1180.5 138.508L1164.96 165.682L1149.09 136.751L1130.12 147.323L1155.66 192.115C1156.49 193.554 1157.64 194.78 1159.03 195.694C1161.35 197.216 1164.19 197.753 1166.91 197.187C1169.64 196.621 1172.02 194.999 1173.55 192.676L1173.68 192.477L1200.92 150.987L1180.5 138.508Z" fill="#0E185F"/>
<path d="M1146.28 138.007L1141.48 128.966C1141.38 128.768 1141.23 128.593 1141.05 128.454C1140.88 128.315 1140.67 128.214 1140.45 128.158C1140.24 128.102 1140.01 128.091 1139.79 128.128C1139.56 128.164 1139.35 128.246 1139.16 128.369C1138.82 128.606 1138.58 128.961 1138.49 129.366C1138.39 129.771 1138.45 130.196 1138.65 130.559L1139.68 132.497L1141.29 135.997" fill="#E98862"/>
<path d="M1213.5 141.516C1223.7 141.035 1224.13 132.39 1224.13 132.39C1224.13 132.39 1229.19 132.716 1232.55 133.17C1238.05 133.913 1241.68 135.776 1244.57 138.659C1247.26 141.342 1248.89 144.244 1247.16 162.774C1245.91 176.189 1246.79 205.701 1246.79 205.701H1185.21C1185.21 205.701 1181.51 167.02 1181 160.981C1180.02 149.452 1175.99 142.953 1181.62 137.014C1185.7 132.707 1196.22 132.39 1200.46 132.391C1200.53 132.391 1199.6 142.17 1213.5 141.516Z" fill="#0E185F"/>
<path d="M1181.36 159.053C1181.36 159.013 1181.34 158.976 1181.31 158.95C1181.28 158.924 1181.24 158.91 1181.2 158.913C1181.16 158.915 1181.12 158.934 1181.1 158.963C1181.07 158.993 1181.06 159.032 1181.06 159.072L1182.31 179.038C1182.31 179.074 1182.33 179.108 1182.35 179.134C1182.38 179.159 1182.41 179.175 1182.45 179.178C1182.46 179.178 1182.46 179.178 1182.47 179.178C1182.49 179.177 1182.51 179.171 1182.53 179.163C1182.54 179.154 1182.56 179.142 1182.57 179.127C1182.59 179.113 1182.6 179.096 1182.6 179.077C1182.61 179.058 1182.61 179.039 1182.61 179.019" fill="#0C0C0C"/>
<path d="M1194.93 188.199L1184.96 185.783C1184.75 185.73 1184.52 185.723 1184.3 185.763C1184.07 185.802 1183.86 185.887 1183.68 186.013C1183.49 186.138 1183.33 186.301 1183.21 186.491C1183.09 186.681 1183.01 186.894 1182.98 187.116C1182.93 187.529 1183.03 187.945 1183.27 188.283C1183.52 188.622 1183.87 188.859 1184.28 188.949L1186.42 189.468L1178.95 190.916C1178.12 191.062 1177.19 191.774 1177.41 192.696C1177.48 193.056 1177.66 193.385 1177.94 193.627C1178.21 193.869 1178.56 194.012 1178.93 194.031C1178.93 194.039 1178.93 194.047 1178.93 194.055C1178.93 194.061 1178.93 194.066 1178.93 194.073L1177.65 194.298C1177.41 194.34 1177.19 194.435 1176.99 194.575C1176.79 194.715 1176.63 194.897 1176.51 195.108C1176.4 195.319 1176.33 195.553 1176.31 195.794C1176.3 196.034 1176.34 196.275 1176.43 196.499C1176.58 196.849 1176.84 197.136 1177.18 197.315C1177.51 197.493 1177.9 197.55 1178.27 197.477L1178.82 197.381C1178.83 197.395 1178.84 197.408 1178.86 197.418C1178.5 197.569 1178.21 197.84 1178.04 198.184C1177.87 198.527 1177.83 198.921 1177.92 199.294C1178.03 199.699 1178.29 200.048 1178.65 200.269C1179.01 200.491 1179.44 200.569 1179.85 200.489L1181.21 200.25C1181.19 200.267 1181.18 200.287 1181.17 200.31C1181.16 200.333 1181.16 200.357 1181.17 200.38C1181.17 200.408 1181.19 200.433 1181.21 200.453C1180.93 200.675 1180.73 200.981 1180.64 201.326C1180.56 201.67 1180.59 202.033 1180.73 202.36C1180.88 202.699 1181.15 202.977 1181.48 203.148C1181.81 203.319 1182.19 203.372 1182.56 203.3L1194.01 201.283C1195.62 201.001 1197.1 200.248 1198.27 199.12C1199.44 197.992 1200.25 196.541 1200.59 194.952C1200.88 193.582 1200.62 192.152 1199.88 190.967C1199.13 189.781 1197.95 188.933 1196.59 188.602L1194.93 188.199Z" fill="#E98862"/>
<g opacity="0.2">
<path opacity="0.2" d="M1186.32 192.634C1186.33 192.672 1186.32 192.712 1186.3 192.744C1186.28 192.776 1186.24 192.798 1186.21 192.806L1179.1 194.174C1179.08 194.178 1179.06 194.178 1179.04 194.174C1179.03 194.17 1179.01 194.162 1178.99 194.151C1178.97 194.14 1178.96 194.126 1178.95 194.11C1178.94 194.093 1178.93 194.075 1178.93 194.056C1178.92 194.036 1178.92 194.017 1178.93 193.997C1178.93 193.978 1178.94 193.96 1178.95 193.944C1178.96 193.927 1178.98 193.913 1178.99 193.903C1179.01 193.892 1179.03 193.884 1179.05 193.881L1186.15 192.512C1186.17 192.508 1186.19 192.508 1186.21 192.512C1186.23 192.516 1186.24 192.524 1186.26 192.535C1186.28 192.546 1186.29 192.561 1186.3 192.577C1186.31 192.594 1186.32 192.612 1186.32 192.631L1186.32 192.634Z" fill="#0C0C0C"/>
</g>
<g opacity="0.2">
<path opacity="0.2" d="M1187.02 195.744C1187.02 195.783 1187.02 195.822 1186.99 195.854C1186.97 195.886 1186.94 195.908 1186.9 195.916L1178.97 197.443C1178.95 197.447 1178.93 197.446 1178.91 197.442C1178.89 197.438 1178.88 197.431 1178.86 197.419C1178.84 197.408 1178.83 197.394 1178.82 197.378C1178.81 197.361 1178.8 197.343 1178.8 197.323C1178.79 197.285 1178.8 197.245 1178.82 197.212C1178.84 197.18 1178.88 197.157 1178.92 197.149L1186.84 195.621C1186.86 195.618 1186.88 195.618 1186.9 195.622C1186.92 195.626 1186.94 195.634 1186.95 195.645C1186.97 195.656 1186.99 195.67 1187 195.687C1187.01 195.703 1187.01 195.721 1187.02 195.741V195.744Z" fill="#0C0C0C"/>
</g>
<g opacity="0.2">
<path opacity="0.2" d="M1187.78 199.108C1187.79 199.147 1187.78 199.186 1187.76 199.218C1187.74 199.25 1187.7 199.272 1187.66 199.279L1181.34 200.498C1181.32 200.502 1181.3 200.501 1181.28 200.498C1181.26 200.494 1181.25 200.486 1181.23 200.475C1181.21 200.464 1181.2 200.45 1181.19 200.434C1181.18 200.417 1181.17 200.399 1181.17 200.38C1181.16 200.36 1181.16 200.34 1181.17 200.321C1181.17 200.302 1181.18 200.284 1181.19 200.268C1181.2 200.251 1181.21 200.237 1181.23 200.227C1181.25 200.216 1181.27 200.208 1181.28 200.204L1187.61 198.986C1187.63 198.982 1187.65 198.983 1187.67 198.987C1187.69 198.991 1187.7 198.998 1187.72 199.009C1187.74 199.021 1187.75 199.035 1187.76 199.051C1187.77 199.068 1187.78 199.086 1187.78 199.106L1187.78 199.108Z" fill="#0C0C0C"/>
</g>
<path d="M1193.93 205.195L1247.46 205.486C1249.19 205.674 1250.93 205.46 1252.56 204.861C1254.18 204.262 1255.65 203.296 1256.84 202.036C1258.03 200.777 1258.91 199.26 1259.42 197.604C1259.92 195.947 1260.03 194.197 1259.74 192.49L1247.82 144.805C1247.58 143.347 1247.06 141.951 1246.28 140.695C1245.5 139.44 1244.48 138.351 1243.28 137.491C1242.07 136.631 1240.71 136.016 1239.27 135.683C1237.83 135.35 1236.34 135.304 1234.88 135.549C1233.42 135.794 1232.02 136.324 1230.77 137.11C1229.52 137.895 1228.43 138.92 1227.58 140.125C1226.72 141.331 1226.12 142.693 1225.79 144.134C1225.47 145.574 1225.43 147.065 1225.68 148.52L1234.83 184.443L1194.19 185.777L1193.93 205.195Z" fill="#0E185F"/>
<path d="M1241.82 184.293C1241.86 184.292 1241.9 184.278 1241.93 184.252C1241.95 184.227 1241.97 184.192 1241.97 184.154C1241.98 184.117 1241.96 184.08 1241.94 184.05C1241.92 184.021 1241.88 184.001 1241.85 183.996L1234.91 184.247C1234.89 184.244 1234.87 184.244 1234.86 184.249C1234.84 184.254 1234.82 184.262 1234.8 184.274C1234.79 184.285 1234.77 184.3 1234.76 184.317C1234.75 184.334 1234.75 184.353 1234.74 184.372C1234.74 184.411 1234.75 184.451 1234.77 184.483C1234.8 184.515 1234.83 184.536 1234.87 184.542L1241.8 184.291C1241.81 184.292 1241.82 184.293 1241.82 184.293Z" fill="#0C0C0C"/>
<path d="M1245.9 205.701C1245.94 205.703 1245.98 205.69 1246.01 205.664C1246.04 205.638 1246.06 205.601 1246.06 205.561C1246.07 205.522 1246.05 205.483 1246.03 205.453C1246 205.423 1245.96 205.405 1245.92 205.402L1194.25 205.08L1194.47 185.959L1234.87 184.542C1234.89 184.545 1234.91 184.542 1234.93 184.535C1234.96 184.527 1234.98 184.514 1234.99 184.497C1235.01 184.481 1235.02 184.46 1235.03 184.438C1235.04 184.415 1235.04 184.392 1235.03 184.369L1230.63 162.776C1230.63 162.757 1230.62 162.738 1230.61 162.721C1230.6 162.705 1230.58 162.69 1230.57 162.679C1230.55 162.667 1230.53 162.659 1230.51 162.655C1230.5 162.651 1230.48 162.65 1230.46 162.654C1230.42 162.66 1230.38 162.682 1230.36 162.714C1230.34 162.747 1230.33 162.787 1230.33 162.826L1234.7 184.218L1194.36 185.641C1194.34 185.639 1194.32 185.64 1194.3 185.646C1194.28 185.651 1194.26 185.66 1194.25 185.672C1194.23 185.685 1194.22 185.7 1194.21 185.717C1194.2 185.735 1194.19 185.754 1194.19 185.774L1193.93 205.194C1193.93 205.233 1193.94 205.272 1193.96 205.303C1193.99 205.333 1194.02 205.353 1194.06 205.359L1245.88 205.699C1245.89 205.7 1245.9 205.701 1245.9 205.701Z" fill="#0C0C0C"/>
<path d="M1168.72 200.09L1154.08 155.158C1153.82 154.368 1153.32 153.68 1152.65 153.193C1151.97 152.705 1151.16 152.442 1150.33 152.442H1090.67C1090.05 152.442 1089.44 152.589 1088.88 152.871C1088.33 153.152 1087.85 153.561 1087.48 154.064C1087.12 154.566 1086.88 155.147 1086.78 155.76C1086.68 156.374 1086.73 157.001 1086.93 157.591L1101.57 202.524C1101.83 203.314 1102.33 204.002 1103 204.489C1103.67 204.977 1104.48 205.24 1105.32 205.24H1164.97C1165.6 205.24 1166.21 205.093 1166.76 204.811C1167.32 204.529 1167.8 204.121 1168.16 203.618C1168.53 203.116 1168.77 202.534 1168.86 201.921C1168.96 201.308 1168.91 200.681 1168.72 200.09Z" fill="#292A2E"/>
<path d="M1196.71 201.597H1156.77C1155.78 201.597 1154.97 202.402 1154.97 203.395V203.441C1154.97 204.435 1155.78 205.24 1156.77 205.24H1196.71C1197.7 205.24 1198.51 204.435 1198.51 203.441V203.395C1198.51 202.402 1197.7 201.597 1196.71 201.597Z" fill="#292A2E"/>
<path d="M1126.92 186.382C1130.38 186.382 1133.18 183.586 1133.18 180.137C1133.18 176.687 1130.38 173.891 1126.92 173.891C1123.47 173.891 1120.67 176.687 1120.67 180.137C1120.67 183.586 1123.47 186.382 1126.92 186.382Z" fill="white"/>
<path d="M1224.44 110.443C1224.2 110.443 1223.97 110.349 1223.81 110.181C1223.64 110.013 1223.54 109.785 1223.54 109.547V99.3365C1223.54 94.1408 1222.1 90.024 1219.38 87.4313C1216.79 84.9735 1213.09 83.8433 1208.36 84.0695C1208.24 84.0757 1208.13 84.0587 1208.01 84.0192C1207.9 83.9797 1207.8 83.9187 1207.71 83.8395C1207.62 83.7603 1207.55 83.6646 1207.5 83.5578C1207.45 83.4511 1207.42 83.3354 1207.42 83.2174C1207.41 83.0995 1207.43 82.9815 1207.47 82.8704C1207.51 82.7593 1207.57 82.6572 1207.65 82.57C1207.73 82.4828 1207.83 82.4122 1207.93 82.3622C1208.04 82.3123 1208.16 82.2839 1208.28 82.2789C1213.51 82.0264 1217.66 83.3246 1220.62 86.1331C1223.71 89.0727 1225.34 93.6383 1225.34 99.3362V109.547C1225.34 109.664 1225.32 109.781 1225.27 109.89C1225.23 109.999 1225.16 110.098 1225.08 110.181C1224.99 110.264 1224.89 110.33 1224.79 110.375C1224.68 110.42 1224.56 110.443 1224.44 110.443Z" fill="#0E185F"/>
<path d="M1223.1 118.274C1226.87 118.274 1229.92 115.225 1229.92 111.465C1229.92 107.704 1226.87 104.656 1223.1 104.656C1219.33 104.656 1216.28 107.704 1216.28 111.465C1216.28 115.225 1219.33 118.274 1223.1 118.274Z" fill="#0E185F"/>
<path d="M1223.36 116.566C1223.31 116.531 1223.26 116.506 1223.2 116.493C1223.15 116.479 1223.09 116.477 1223.03 116.486C1222.97 116.495 1222.91 116.516 1222.86 116.547C1222.81 116.578 1222.77 116.618 1222.74 116.666L1222.21 117.386C1221.57 118.266 1220.74 118.982 1219.77 119.476C1218.8 119.971 1217.72 120.229 1216.63 120.231H1208.33V120.056C1208.33 119.818 1208.23 119.59 1208.07 119.422C1207.9 119.254 1207.67 119.159 1207.43 119.159H1204.62C1204.38 119.159 1204.15 119.254 1203.98 119.422C1203.82 119.59 1203.72 119.818 1203.72 120.056V121.368C1203.72 121.606 1203.82 121.834 1203.98 122.002C1204.15 122.17 1204.38 122.264 1204.62 122.264H1207.43C1207.67 122.264 1207.9 122.17 1208.07 122.002C1208.23 121.834 1208.33 121.606 1208.33 121.368V121.129H1216.63C1217.86 121.127 1219.08 120.835 1220.17 120.276C1221.27 119.717 1222.22 118.907 1222.94 117.913L1223.46 117.193C1223.5 117.145 1223.52 117.091 1223.54 117.034C1223.55 116.976 1223.55 116.917 1223.54 116.858C1223.53 116.8 1223.51 116.744 1223.48 116.694C1223.45 116.644 1223.41 116.6 1223.36 116.566Z" fill="#0E185F"/>
<path d="M1224.74 118.274C1228.5 118.274 1231.56 115.225 1231.56 111.465C1231.56 107.704 1228.5 104.656 1224.74 104.656C1220.97 104.656 1217.91 107.704 1217.91 111.465C1217.91 115.225 1220.97 118.274 1224.74 118.274Z" fill="#0E185F"/>
<path opacity="0.3" d="M1224.74 118.274C1228.5 118.274 1231.56 115.225 1231.56 111.465C1231.56 107.704 1228.5 104.656 1224.74 104.656C1220.97 104.656 1217.91 107.704 1217.91 111.465C1217.91 115.225 1220.97 118.274 1224.74 118.274Z" fill="white"/>
<path d="M1095.18 206H1260.7C1260.78 206 1260.86 205.968 1260.91 205.912C1260.97 205.856 1261 205.78 1261 205.701C1261 205.622 1260.97 205.546 1260.91 205.49C1260.86 205.434 1260.78 205.402 1260.7 205.402H1095.18C1095.1 205.402 1095.03 205.434 1094.97 205.49C1094.91 205.546 1094.88 205.622 1094.88 205.701C1094.88 205.78 1094.91 205.856 1094.97 205.912C1095.03 205.968 1095.1 206 1095.18 206Z" fill="#292A2E"/>
</g>
<defs>
<clipPath id="clip0_209_4258">
<rect width="275" height="155" fill="white" transform="translate(986 51)"/>
</clipPath>
</defs>
</svg>
