<svg width="953" height="541" viewBox="0 0 953 541" fill="none" xmlns="http://www.w3.org/2000/svg">
<path d="M0 33C0 14.7746 14.7746 0 33 0H920C938.225 0 953 14.7746 953 33V508C953 526.225 938.225 541 920 541H33C14.7746 541 0 526.225 0 508V33Z" fill="#F4F4F4"/>
<path d="M339.256 255.513V260.525H362.39V230.964H339.256V235.114C337.908 235.102 336.572 235.356 335.323 235.863C334.074 236.37 332.938 237.12 331.981 238.068C331.024 239.016 330.264 240.145 329.745 241.389C329.226 242.632 328.959 243.966 328.959 245.314C328.959 246.661 329.226 247.995 329.745 249.239C330.264 250.483 331.024 251.611 331.981 252.56C332.938 253.508 334.074 254.257 335.323 254.764C336.572 255.271 337.908 255.526 339.256 255.513ZM333.263 245.309C333.264 244.523 333.419 243.744 333.721 243.018C334.022 242.292 334.464 241.632 335.02 241.077C335.577 240.521 336.237 240.08 336.964 239.78C337.691 239.48 338.47 239.325 339.256 239.326V251.297C338.469 251.298 337.69 251.143 336.963 250.842C336.236 250.541 335.576 250.1 335.019 249.544C334.463 248.988 334.021 248.328 333.72 247.601C333.419 246.874 333.263 246.096 333.263 245.309Z" fill="#C1D8ED"/>
<path d="M850.342 469H124.205C125.737 448.517 147.076 431.14 167.992 425.986C198.588 418.454 230.966 439.163 261.493 431.375C278.836 426.956 292.49 414.078 306.838 403.385C360.966 363.037 421.57 351.112 485.627 372.467C519.107 383.624 549.614 403.138 583.909 411.431C628.259 422.163 674.636 413.266 720.244 411.797C764.656 410.369 828.297 428.466 850.342 469Z" fill="#F3F5FD"/>
<path d="M587.335 332.449L582.263 333.783L617.832 468.997L622.903 467.663L587.335 332.449Z" fill="#C1D8ED"/>
<path d="M524.296 332.709L503.086 467.923L508.267 468.735L529.476 333.521L524.296 332.709Z" fill="#C1D8ED"/>
<path d="M592.094 203.413C592.094 203.413 635.414 200.678 635.414 238.518C635.414 276.358 629.033 329.244 597.11 335.171C565.186 341.098 518.029 339.31 507.081 337.455C493.629 335.175 487.766 303.978 505.683 301.89C556.526 295.962 531.902 207.517 592.094 203.413Z" fill="#C1D8ED"/>
<path d="M577.345 184.328C577.345 184.328 570.587 180.746 572.096 162.346L558.131 159.762C558.131 159.762 559.7 176.259 552.636 181.496L577.345 184.328Z" fill="#E98862"/>
<g opacity="0.15">
<path opacity="0.15" d="M555.496 178.043L567.095 169.17L557.985 169.076C557.721 172.194 556.876 175.235 555.496 178.043Z" fill="black"/>
</g>
<path d="M580.017 155.212C579.051 160.794 576.004 166.08 571.078 167.882C565.232 170.023 560.901 170.168 554.16 170.168C544.961 170.168 545.265 160.576 545.007 150.911C544.744 141.206 545.519 130.796 549.155 127.414C556.409 120.665 577.711 124.94 580.302 136.23C581.642 142.069 580.937 149.898 580.017 155.212Z" fill="#E98862"/>
<path d="M540.076 133.023C540.076 133.023 536.309 132.181 537.34 128.426C538.024 125.934 541.216 126.487 541.216 126.487C541.216 126.487 538.194 125.934 538.194 123.296C538.194 121.636 539.471 118.819 543.325 120.428C547.847 122.317 553.004 122.074 556.925 121.415C559.144 120.929 561.395 120.611 563.661 120.464H563.673C566.278 120.419 568.875 120.766 571.376 121.494C578.386 123.592 588.994 129.874 586.739 144.12C584.221 160.019 576.76 166.099 573.477 168.049C573.283 168.166 573.065 168.237 572.839 168.258C572.613 168.278 572.385 168.247 572.173 168.166C571.961 168.085 571.771 167.958 571.615 167.793C571.46 167.627 571.344 167.429 571.277 167.213C570.346 164.233 568.742 156.736 569.189 141.276C547.644 140.219 541.445 139.899 541.445 139.899C541.445 139.899 536.372 140.089 536.372 136.384C536.372 132.679 540.076 133.023 540.076 133.023Z" fill="#0F1011"/>
<path d="M558.151 150.912C558.85 150.912 559.417 150.345 559.417 149.646C559.417 148.946 558.85 148.379 558.151 148.379C557.451 148.379 556.884 148.946 556.884 149.646C556.884 150.345 557.451 150.912 558.151 150.912Z" fill="#0F1011"/>
<path d="M548.16 150.093C548.859 150.093 549.426 149.526 549.426 148.827C549.426 148.127 548.859 147.561 548.16 147.561C547.461 147.561 546.894 148.127 546.894 148.827C546.894 149.526 547.461 150.093 548.16 150.093Z" fill="#0F1011"/>
<path d="M545.969 146.13C545.815 146.125 545.669 146.061 545.561 145.951C545.454 145.84 545.393 145.693 545.393 145.539C545.392 145.385 545.45 145.237 545.557 145.125C545.663 145.014 545.808 144.948 545.962 144.941L549.317 144.899C549.473 144.901 549.623 144.964 549.734 145.073C549.846 145.182 549.912 145.33 549.918 145.486C549.919 145.564 549.905 145.642 549.876 145.714C549.847 145.787 549.804 145.853 549.75 145.909C549.695 145.965 549.63 146.009 549.558 146.04C549.486 146.071 549.409 146.087 549.331 146.088L545.976 146.13H545.969Z" fill="#0F1011"/>
<path d="M560.884 147.354C560.837 147.354 560.79 147.348 560.745 147.337L557.436 146.541C557.36 146.524 557.287 146.491 557.223 146.445C557.159 146.4 557.104 146.342 557.063 146.275C557.021 146.208 556.993 146.133 556.981 146.055C556.968 145.978 556.971 145.898 556.99 145.821C557.008 145.745 557.042 145.673 557.088 145.609C557.135 145.546 557.194 145.492 557.261 145.451C557.329 145.41 557.403 145.384 557.481 145.372C557.559 145.361 557.639 145.365 557.715 145.384L561.022 146.18C561.164 146.214 561.288 146.299 561.371 146.418C561.454 146.538 561.491 146.684 561.474 146.828C561.457 146.973 561.388 147.106 561.279 147.203C561.17 147.3 561.03 147.353 560.884 147.354Z" fill="#0F1011"/>
<path d="M564.739 152.744C564.644 154.151 565.107 155.539 566.027 156.608C566.948 157.677 568.252 158.34 569.658 158.455C571.065 158.57 572.459 158.127 573.541 157.222C574.623 156.316 575.305 155.022 575.44 153.618C575.51 152.913 575.437 152.201 575.226 151.525C575.015 150.849 574.671 150.222 574.212 149.682C573.754 149.141 573.192 148.699 572.559 148.381C571.926 148.062 571.235 147.875 570.528 147.829C566.702 147.708 564.981 149.789 564.739 152.744Z" fill="#E98862"/>
<g opacity="0.15">
<path opacity="0.15" d="M552.529 156.668C552.634 156.668 552.735 156.631 552.815 156.562C552.894 156.494 552.946 156.4 552.962 156.296C552.977 156.193 552.955 156.087 552.899 155.998C552.844 155.91 552.758 155.844 552.658 155.814L550.082 155.023L551.883 151.012C551.929 150.907 551.932 150.787 551.89 150.68C551.849 150.573 551.767 150.486 551.662 150.439C551.557 150.392 551.438 150.388 551.33 150.428C551.222 150.469 551.135 150.549 551.086 150.654L549.082 155.115C549.057 155.172 549.043 155.233 549.043 155.295C549.043 155.357 549.057 155.419 549.082 155.475C549.108 155.532 549.145 155.582 549.192 155.623C549.238 155.664 549.293 155.695 549.352 155.713L552.401 156.649C552.442 156.662 552.486 156.668 552.529 156.668Z" fill="black"/>
</g>
<path d="M557.565 159.618C557.565 159.618 552.89 160.111 549.612 158.966C549.612 158.966 549.638 162.043 553.337 162.347C557.036 162.65 557.565 159.618 557.565 159.618Z" fill="white"/>
<path d="M509.285 442.157L490.985 443.567L492.633 464.941L510.933 463.53L509.285 442.157Z" fill="#E98862"/>
<path d="M469.376 468.17C468.882 468.167 468.395 468.063 467.943 467.864C467.492 467.665 467.086 467.374 466.752 467.011C466.417 466.648 466.162 466.22 466 465.754C465.839 465.288 465.775 464.793 465.814 464.301C465.867 463.619 466.114 462.967 466.525 462.42C466.937 461.874 467.496 461.457 468.138 461.217L489.5 454.064C489.914 453.927 490.352 453.881 490.786 453.93C491.219 453.978 491.637 454.119 492.011 454.344C494.947 456.381 498.46 457.422 502.033 457.315C504.816 457.117 507.487 456.142 509.742 454.5C509.941 454.337 510.181 454.234 510.435 454.203C510.69 454.172 510.948 454.213 511.179 454.323C511.411 454.433 511.607 454.607 511.743 454.824C511.88 455.041 511.952 455.292 511.951 455.548V465.992C511.951 466.3 511.89 466.605 511.772 466.89C511.654 467.174 511.48 467.433 511.262 467.65C511.044 467.868 510.785 468.04 510.5 468.157C510.214 468.274 509.909 468.333 509.601 468.332L469.376 468.17Z" fill="#C1D8ED"/>
<path d="M444.493 441.342L440.897 462.715L458.997 465.759L462.593 444.386L444.493 441.342Z" fill="#E98862"/>
<path d="M553.182 278.98V278.923H464.87C460.834 278.923 456.944 280.432 453.964 283.153C450.985 285.875 449.131 289.612 448.767 293.631L434.688 448.629L466.894 451.552L474.462 368.233L482.515 453.852L514.712 450.824L503.113 327.515H545.24V327.42H569.37C573.741 327.42 578.07 326.559 582.109 324.887C586.147 323.214 589.817 320.763 592.908 317.672C595.999 314.582 598.451 310.913 600.124 306.875C601.797 302.837 602.658 298.509 602.658 294.139V278.98H553.182Z" fill="#262626"/>
<path d="M420.167 468.17C419.673 468.168 419.186 468.064 418.734 467.865C418.283 467.665 417.877 467.375 417.543 467.012C417.208 466.649 416.952 466.221 416.791 465.755C416.63 465.288 416.566 464.794 416.605 464.302C416.658 463.62 416.905 462.967 417.316 462.421C417.728 461.875 418.287 461.457 418.928 461.218L440.291 454.064C440.705 453.927 441.143 453.881 441.577 453.929C442.01 453.978 442.427 454.119 442.801 454.344C445.738 456.381 449.251 457.422 452.824 457.315C455.607 457.117 458.278 456.141 460.533 454.499C460.731 454.336 460.971 454.234 461.226 454.203C461.48 454.171 461.738 454.213 461.97 454.323C462.201 454.433 462.397 454.606 462.534 454.823C462.671 455.04 462.743 455.291 462.742 455.548V465.992C462.742 466.3 462.681 466.605 462.563 466.889C462.445 467.174 462.272 467.432 462.053 467.65C461.835 467.867 461.576 468.039 461.291 468.156C461.006 468.273 460.7 468.333 460.392 468.332L420.167 468.17Z" fill="#C1D8ED"/>
<path d="M625.868 203.531C625.868 203.531 625.381 193.045 632.902 193.149C637.649 193.214 660.04 190.845 660.495 192.872C661.621 197.885 641.156 200.332 639.57 205.156L625.868 203.531Z" fill="#E98862"/>
<path d="M630.271 193.642C630.271 193.642 640.496 189.629 643.093 190.086C645.393 190.492 640.883 194.462 640.883 194.462L630.271 193.642Z" fill="#E98862"/>
<path d="M468.164 220.364C468.164 220.364 465.375 210.245 458.255 212.674C453.764 214.207 431.742 218.898 431.937 220.966C432.422 226.081 452.637 222.061 455.641 226.156L468.164 220.364Z" fill="#E98862"/>
<path d="M460.911 212.327C460.911 212.327 449.945 211.683 447.617 212.924C445.556 214.022 451.076 216.398 451.076 216.398L460.911 212.327Z" fill="#E98862"/>
<path d="M624.236 199.227L619.352 223.213L603.882 191.464L603.801 191.503C602.906 189.169 601.525 187.052 599.749 185.292C595.763 181.308 588.859 178.721 580.451 178.712C579.821 183.615 550.044 183.632 549.817 178.826C548.681 178.843 547.798 178.87 547.247 178.887C537.447 179.31 532.42 183.363 530.065 189.476L500.445 236.745L464.366 211.659L453.485 227.3L497.771 258.093C498.83 258.829 500.027 259.343 501.291 259.603C502.554 259.863 503.857 259.864 505.121 259.606C506.384 259.348 507.582 258.835 508.642 258.1C509.702 257.365 510.601 256.423 511.286 255.33L530.372 224.875C530.851 229.156 531.236 233.379 531.281 237.365C531.613 265.738 523.957 271.086 527.733 279.754C531.395 288.169 603.351 291.664 604.313 276.862C604.924 267.442 596.621 259.219 596.621 240.86C596.621 236.016 597.802 230.811 599.283 225.531L614.519 256.803C615.39 258.594 616.801 260.067 618.553 261.014C620.305 261.962 622.31 262.336 624.286 262.086C626.261 261.835 628.109 260.971 629.568 259.616C631.028 258.261 632.026 256.483 632.422 254.531L642.91 203.028L624.236 199.227Z" fill="#0E185F"/>
<path d="M549.819 178.826C550.046 183.632 552.668 190.701 560.726 191.226C571.485 191.942 579.823 183.615 580.452 178.712H580.418C569.842 178.712 555.998 178.73 549.819 178.826Z" fill="#E98862"/>
<path d="M777.055 332.449L771.984 333.782L807.552 468.996L812.624 467.663L777.055 332.449Z" fill="#C1D8ED"/>
<path d="M714.015 332.709L692.805 467.923L697.986 468.735L719.195 333.521L714.015 332.709Z" fill="#C1D8ED"/>
<path d="M781.815 203.413C781.815 203.413 825.134 200.678 825.134 238.518C825.134 276.358 818.754 329.244 786.831 335.171C754.907 341.098 707.75 339.31 696.802 337.455C683.35 335.175 677.486 303.978 695.403 301.89C746.246 295.962 721.623 207.517 781.815 203.413Z" fill="#C1D8ED"/>
<path d="M791.554 148.827C791.687 135.834 786.552 127.782 779.588 123.362C772.716 119 751.169 115.203 742.999 131.038C737.668 141.37 739.773 145.064 738.263 161.614C736.754 178.164 730.951 179.9 725.066 199.959C720.451 215.694 746.304 224.048 768.688 223.326C791.072 222.604 805.265 217.646 806.564 203.413C808.43 182.984 791.291 174.289 791.554 148.827Z" fill="#0F1011"/>
<path d="M778.215 184.753C778.215 184.753 771.49 181.108 773.168 162.724L759.229 160.007C759.229 160.007 760.646 176.517 753.535 181.689L778.215 184.753Z" fill="#E98862"/>
<g opacity="0.15">
<path opacity="0.15" d="M756.428 178.264L768.109 169.498L759 169.323C758.706 172.437 757.834 175.469 756.428 178.264Z" fill="black"/>
</g>
<path d="M781.156 155.655C780.137 161.228 777.043 166.486 772.101 168.244C766.713 170.325 760.898 171.057 755.162 170.374C739.888 168.981 743.231 134.26 750.55 127.577C757.869 120.894 779.13 125.364 781.615 136.677C782.901 142.532 782.123 150.353 781.156 155.655Z" fill="#E98862"/>
<path d="M759.341 151.158C760.041 151.158 760.608 150.591 760.608 149.892C760.608 149.192 760.041 148.625 759.341 148.625C758.642 148.625 758.075 149.192 758.075 149.892C758.075 150.591 758.642 151.158 759.341 151.158Z" fill="#0F1011"/>
<path d="M749.358 150.247C750.057 150.247 750.624 149.68 750.624 148.981C750.624 148.282 750.057 147.715 749.358 147.715C748.658 147.715 748.091 148.282 748.091 148.981C748.091 149.68 748.658 150.247 749.358 150.247Z" fill="#0F1011"/>
<path d="M747.194 146.263C747.041 146.257 746.895 146.192 746.788 146.081C746.682 145.97 746.622 145.822 746.622 145.668C746.622 145.514 746.682 145.366 746.788 145.255C746.895 145.144 747.041 145.079 747.194 145.073L750.55 145.062C750.704 145.068 750.849 145.133 750.956 145.244C751.063 145.355 751.122 145.503 751.122 145.657C751.122 145.811 751.063 145.958 750.956 146.069C750.849 146.18 750.704 146.245 750.55 146.251L747.194 146.263Z" fill="#0F1011"/>
<path d="M762.1 147.623C762.051 147.623 762.003 147.617 761.955 147.605L758.655 146.779C758.502 146.741 758.37 146.643 758.289 146.508C758.208 146.372 758.184 146.21 758.222 146.057C758.26 145.904 758.358 145.772 758.493 145.691C758.629 145.61 758.791 145.585 758.944 145.624L762.245 146.45C762.386 146.485 762.509 146.571 762.592 146.691C762.674 146.81 762.71 146.956 762.692 147.101C762.674 147.245 762.604 147.378 762.495 147.474C762.386 147.57 762.246 147.623 762.1 147.623Z" fill="#0F1011"/>
<path d="M758.664 159.858C758.664 159.858 753.984 160.308 750.718 159.133C750.718 159.133 750.718 162.212 754.413 162.548C758.107 162.885 758.664 159.858 758.664 159.858Z" fill="white"/>
<path d="M771.003 141.101C769.955 154.177 771.265 167.334 774.869 179.947C774.869 179.947 785.706 161.684 787.512 146.404C789.202 132.079 778.708 123.516 771.583 121.855C744.506 115.54 742.626 135.287 742.626 135.287C744.374 142.022 773.935 146.202 773.935 146.202" fill="#0F1011"/>
<path d="M765.686 155.407C765.556 156.825 765.996 158.236 766.907 159.33C767.818 160.424 769.126 161.111 770.544 161.24C771.962 161.369 773.373 160.93 774.468 160.019C775.562 159.108 776.249 157.8 776.378 156.382C776.455 155.678 776.389 154.966 776.184 154.288C775.979 153.61 775.64 152.98 775.187 152.436C774.733 151.891 774.175 151.444 773.545 151.12C772.915 150.796 772.226 150.602 771.52 150.55C767.694 150.39 765.954 152.455 765.686 155.407Z" fill="#E98862"/>
<g opacity="0.15">
<path opacity="0.15" d="M753.659 156.862C753.763 156.862 753.864 156.825 753.943 156.757C754.022 156.689 754.074 156.596 754.09 156.493C754.106 156.39 754.085 156.285 754.03 156.196C753.975 156.108 753.891 156.041 753.792 156.01L751.223 155.195L753.058 151.2C753.103 151.095 753.105 150.978 753.064 150.871C753.023 150.765 752.942 150.679 752.839 150.632C752.736 150.584 752.618 150.579 752.511 150.617C752.404 150.655 752.315 150.733 752.265 150.835L750.22 155.279C750.194 155.335 750.18 155.396 750.179 155.458C750.179 155.52 750.191 155.581 750.216 155.638C750.241 155.694 750.277 155.745 750.323 155.787C750.369 155.828 750.423 155.859 750.482 155.878L753.522 156.84C753.566 156.855 753.612 156.862 753.659 156.862Z" fill="black"/>
</g>
<path d="M656.71 237.031C656.71 237.031 635.043 231.889 625.83 240.974C625.596 241.205 625.437 241.502 625.374 241.826C625.312 242.149 625.348 242.484 625.478 242.786C625.608 243.089 625.827 243.345 626.105 243.521C626.383 243.698 626.708 243.786 627.038 243.775C632.21 243.59 639.252 244.008 643.527 245.932C642.031 246.631 640.509 247.526 640.849 248.116C641.796 249.756 656.719 248.946 656.719 248.946L656.71 237.031Z" fill="#E98862"/>
<path d="M709.321 442.481L691.021 443.892L692.67 465.265L710.97 463.854L709.321 442.481Z" fill="#E98862"/>
<path d="M669.415 468.493C668.944 468.491 668.477 468.396 668.043 468.214C667.608 468.031 667.213 467.765 666.882 467.431C666.55 467.096 666.287 466.699 666.109 466.263C665.93 465.827 665.839 465.36 665.841 464.888C665.841 464.801 665.841 464.714 665.853 464.626C665.906 463.944 666.153 463.292 666.564 462.746C666.976 462.199 667.535 461.782 668.176 461.542L689.539 454.388C689.953 454.252 690.391 454.206 690.825 454.254C691.258 454.302 691.675 454.443 692.049 454.668C694.986 456.706 698.499 457.747 702.072 457.639C704.855 457.441 707.526 456.466 709.781 454.823C709.979 454.661 710.219 454.558 710.474 454.527C710.728 454.496 710.986 454.538 711.217 454.648C711.449 454.758 711.644 454.931 711.781 455.148C711.918 455.364 711.991 455.615 711.99 455.871V466.315C711.99 466.936 711.744 467.531 711.305 467.97C710.866 468.409 710.27 468.655 709.65 468.655H709.64L669.415 468.493Z" fill="#C1D8ED"/>
<path d="M627.052 441.664L623.456 463.037L641.556 466.081L645.152 444.708L627.052 441.664Z" fill="#E98862"/>
<path d="M617.701 451.59L649.26 291.344C650.16 287.881 652.185 284.814 655.016 282.625C657.847 280.435 661.325 279.247 664.904 279.246H753.22V279.303H802.696V294.462C802.696 298.832 801.835 303.16 800.163 307.198C798.49 311.236 796.038 314.905 792.947 317.996C789.856 321.086 786.186 323.538 782.148 325.21C778.109 326.883 773.78 327.744 769.409 327.744H745.278V327.839H703.151L714.751 451.148L682.555 454.175L672.212 339.306L648.999 456.228L617.701 451.59Z" fill="#262626"/>
<path d="M697.822 260.12H729.569C727.696 270.201 725.317 274.438 727.773 280.076C731.435 288.49 803.391 291.986 804.352 277.183C804.964 267.763 796.661 259.532 796.661 241.182C796.661 222.832 813.555 199.378 799.79 185.616C795.805 181.631 788.9 179.044 780.492 179.036C779.863 183.938 750.086 183.955 749.858 179.149C748.722 179.167 747.84 179.193 747.289 179.21C737.028 179.653 731.999 184.074 729.791 190.674L706.456 232.435L655.169 235.737L656.31 252.301L697.825 251.274L697.822 260.12ZM731.32 237.687C731.333 238.857 731.329 239.973 731.32 241.066H723.466L730.721 228.081C731.048 231.369 731.287 234.599 731.323 237.687H731.32Z" fill="#0E185F"/>
<path d="M749.858 179.149C750.085 183.955 752.707 191.024 760.765 191.549C771.524 192.265 779.862 183.938 780.492 179.036H780.457C769.881 179.036 756.037 179.053 749.858 179.149Z" fill="#E98862"/>
<path d="M602.725 468.493C602.254 468.491 601.787 468.396 601.353 468.214C600.918 468.031 600.523 467.765 600.191 467.43C599.86 467.095 599.597 466.698 599.419 466.262C599.241 465.825 599.15 465.358 599.152 464.887C599.152 464.799 599.156 464.712 599.163 464.625C599.216 463.943 599.464 463.29 599.875 462.744C600.287 462.198 600.846 461.78 601.487 461.541L622.849 454.387C623.263 454.25 623.702 454.204 624.135 454.253C624.569 454.301 624.986 454.442 625.36 454.667C628.297 456.704 631.81 457.745 635.382 457.638C638.165 457.44 640.837 456.464 643.092 454.821C643.29 454.659 643.53 454.556 643.785 454.525C644.039 454.494 644.297 454.536 644.528 454.646C644.76 454.756 644.955 454.929 645.092 455.146C645.229 455.363 645.301 455.614 645.3 455.87V466.314C645.3 466.934 645.054 467.53 644.615 467.968C644.176 468.407 643.581 468.654 642.96 468.654H642.95L602.725 468.493Z" fill="#C1D8ED"/>
<path d="M697.829 247.618C697.829 247.618 676.161 242.477 666.948 251.561C666.714 251.793 666.556 252.09 666.493 252.413C666.43 252.736 666.466 253.071 666.597 253.374C666.727 253.676 666.946 253.932 667.224 254.109C667.502 254.285 667.827 254.373 668.156 254.363C673.328 254.176 680.37 254.596 684.646 256.519C683.15 257.218 681.628 258.113 681.968 258.704C682.915 260.343 697.837 259.534 697.837 259.534L697.829 247.618Z" fill="#E98862"/>
<path d="M629.727 56.6885L621.353 61.5225L637.762 89.9377L646.136 85.1037L629.727 56.6885Z" fill="#DEE8F5"/>
<path d="M623.466 56.9077H613.796V89.7188H623.466V56.9077Z" fill="#DEE8F5"/>
<path d="M679.787 48H670.117V89.7188H679.787V48Z" fill="#DEE8F5"/>
<path d="M669.842 56.9077H660.172V89.7188H669.842V56.9077Z" fill="#0CBC8B"/>
<path d="M689.458 52.6904H679.788V89.7186H689.458V52.6904Z" fill="#0CBC8B"/>
<path d="M660.02 51.5356H644.576V89.719H660.02V51.5356Z" fill="#C1D8ED"/>
<path d="M704.949 78.8162C704.949 78.8162 704.902 62.4967 713.101 59.0879C721.3 55.6791 709.025 78.8162 709.025 78.8162H704.949Z" fill="#8DDBE0"/>
<path d="M709.028 78.8162C709.028 78.8162 713.309 48.2622 704.561 48.2622C695.813 48.2622 704.949 78.8162 704.949 78.8162" fill="#8DDBE0"/>
<path d="M706.405 80.162C706.405 80.162 702.297 52.9329 694.977 55.1174C687.656 57.302 703.526 81.021 703.526 81.021L706.405 80.162Z" fill="#8DDBE0"/>
<path d="M714.477 70.627H695.381V89.7191H714.477V70.627Z" fill="#DEE8F5"/>
<path d="M722.257 89.7188H608.961V93.9612H722.257V89.7188Z" fill="#C1D8ED"/>
<path d="M697.097 89.7188H608.961V93.9612H697.097V89.7188Z" fill="#DEE8F5"/>
<path d="M212.064 332.45L176.491 467.663L181.563 468.997L217.136 333.784L212.064 332.45Z" fill="#C1D8ED"/>
<path d="M275.103 332.711L269.922 333.523L291.127 468.738L296.308 467.925L275.103 332.711Z" fill="#C1D8ED"/>
<path d="M207.302 203.413C207.302 203.413 163.981 200.678 163.981 238.518C163.981 276.358 170.366 329.244 202.286 335.171C234.206 341.098 281.366 339.31 292.315 337.455C305.767 335.175 311.63 303.978 293.713 301.89C242.866 295.962 267.494 207.517 207.302 203.413Z" fill="#C1D8ED"/>
<path d="M221.793 184.108C221.793 184.108 228.552 180.525 227.043 162.126L241.007 159.537C241.007 159.537 239.438 176.034 246.501 181.271L221.793 184.108Z" fill="#E98862"/>
<g opacity="0.15">
<path opacity="0.15" d="M243.641 177.823L232.04 168.95L241.151 168.855C241.415 171.974 242.259 175.015 243.641 177.823Z" fill="black"/>
</g>
<path d="M219.121 154.991C220.087 160.573 223.134 165.86 228.059 167.662C233.428 169.792 239.236 170.577 244.978 169.948C260.263 168.695 257.24 133.946 249.983 127.194C242.725 120.442 221.426 124.719 218.836 136.008C217.496 141.848 218.2 149.678 219.121 154.991Z" fill="#E98862"/>
<path d="M255.024 128.391C254.568 127.668 253.929 127.077 253.172 126.68C246.383 122.989 233.804 121.712 227.762 123.519C220.752 125.616 211.963 131.491 214.215 145.737C214.31 146.336 214.412 146.914 214.518 147.484C212.304 147.106 210.029 147.344 207.942 148.173C205.854 149.001 204.035 150.388 202.684 152.182C201.333 153.975 200.501 156.106 200.28 158.34C200.059 160.575 200.458 162.827 201.432 164.85C202.406 166.873 203.919 168.589 205.804 169.81C207.688 171.031 209.873 171.71 212.118 171.772C214.363 171.834 216.582 171.277 218.531 170.162C220.481 169.048 222.086 167.418 223.171 165.452C224.211 166.35 225.334 167.147 226.525 167.831C227.362 168.328 227.564 167.923 227.854 166.995C228.868 163.752 229.865 150.927 229.069 141.615L245.541 141.045L248.411 132.882L250.763 141.045H256.373C257.126 136.623 257.899 131.609 255.024 128.391Z" fill="#0F1011"/>
<path d="M240.986 150.691C241.686 150.691 242.253 150.124 242.253 149.425C242.253 148.726 241.686 148.159 240.986 148.159C240.287 148.159 239.72 148.726 239.72 149.425C239.72 150.124 240.287 150.691 240.986 150.691Z" fill="#0F1011"/>
<path d="M250.978 149.872C251.677 149.872 252.244 149.305 252.244 148.606C252.244 147.906 251.677 147.339 250.978 147.339C250.278 147.339 249.711 147.906 249.711 148.606C249.711 149.305 250.278 149.872 250.978 149.872Z" fill="#0F1011"/>
<path d="M253.171 145.907C253.325 145.902 253.471 145.838 253.579 145.727C253.686 145.617 253.747 145.47 253.747 145.316C253.748 145.162 253.69 145.014 253.583 144.902C253.477 144.791 253.332 144.724 253.178 144.718L249.824 144.676C249.667 144.678 249.518 144.74 249.406 144.849C249.294 144.959 249.228 145.107 249.222 145.263C249.221 145.341 249.235 145.419 249.264 145.491C249.293 145.564 249.336 145.63 249.391 145.686C249.445 145.742 249.51 145.786 249.582 145.817C249.654 145.848 249.731 145.864 249.809 145.865L253.164 145.907H253.171Z" fill="#0F1011"/>
<path d="M238.253 147.13C238.3 147.13 238.347 147.125 238.392 147.114L241.7 146.318C241.851 146.279 241.98 146.182 242.059 146.048C242.139 145.915 242.163 145.755 242.127 145.604C242.091 145.453 241.997 145.322 241.865 145.239C241.733 145.156 241.574 145.129 241.422 145.161L238.114 145.957C237.973 145.991 237.849 146.076 237.765 146.195C237.682 146.315 237.646 146.46 237.663 146.605C237.68 146.75 237.749 146.883 237.858 146.98C237.967 147.076 238.108 147.13 238.253 147.13Z" fill="#0F1011"/>
<path d="M234.398 152.523C234.466 153.231 234.393 153.946 234.182 154.625C233.971 155.304 233.628 155.935 233.171 156.481C232.715 157.026 232.154 157.475 231.522 157.803C230.891 158.13 230.2 158.328 229.491 158.386C228.782 158.444 228.068 158.36 227.392 158.14C226.715 157.92 226.089 157.567 225.55 157.103C225.011 156.639 224.57 156.072 224.252 155.436C223.933 154.8 223.745 154.106 223.697 153.397C223.627 152.692 223.7 151.98 223.911 151.304C224.122 150.628 224.467 150.001 224.925 149.461C225.384 148.921 225.946 148.479 226.579 148.161C227.212 147.842 227.902 147.655 228.609 147.609C232.435 147.487 234.156 149.569 234.398 152.523Z" fill="#E98862"/>
<g opacity="0.15">
<path opacity="0.15" d="M246.608 156.448C246.503 156.448 246.402 156.41 246.322 156.342C246.243 156.274 246.191 156.179 246.175 156.076C246.16 155.972 246.182 155.867 246.238 155.778C246.293 155.689 246.379 155.624 246.479 155.593L249.055 154.802L247.254 150.791C247.228 150.738 247.213 150.681 247.21 150.622C247.207 150.564 247.216 150.505 247.236 150.45C247.256 150.395 247.287 150.345 247.326 150.302C247.366 150.259 247.414 150.225 247.468 150.201C247.521 150.177 247.579 150.164 247.637 150.163C247.696 150.161 247.754 150.172 247.808 150.194C247.863 150.215 247.912 150.248 247.954 150.289C247.995 150.33 248.028 150.379 248.051 150.433L250.056 154.896C250.081 154.952 250.094 155.014 250.094 155.076C250.094 155.138 250.081 155.199 250.055 155.255C250.029 155.312 249.992 155.362 249.945 155.403C249.899 155.444 249.844 155.475 249.785 155.493L246.736 156.429C246.695 156.441 246.651 156.448 246.608 156.448Z" fill="black"/>
</g>
<path d="M241.573 159.397C241.573 159.397 246.247 159.889 249.526 158.745C249.526 158.745 249.501 161.823 245.801 162.126C242.102 162.43 241.573 159.397 241.573 159.397Z" fill="white"/>
<path d="M290.116 442.162L288.468 463.535L306.767 464.945L308.416 443.572L290.116 442.162Z" fill="#E98862"/>
<path d="M330.019 468.17C330.513 468.167 331.001 468.063 331.452 467.864C331.904 467.665 332.31 467.375 332.644 467.012C332.978 466.649 333.234 466.221 333.396 465.754C333.557 465.288 333.62 464.793 333.582 464.301C333.529 463.619 333.282 462.967 332.87 462.42C332.459 461.874 331.9 461.457 331.259 461.217L309.896 454.064C309.482 453.927 309.043 453.881 308.61 453.93C308.177 453.978 307.759 454.119 307.386 454.344C304.449 456.381 300.935 457.422 297.362 457.315C294.58 457.117 291.909 456.142 289.654 454.5C289.456 454.337 289.215 454.234 288.961 454.203C288.706 454.172 288.448 454.214 288.217 454.324C287.985 454.434 287.789 454.607 287.653 454.824C287.516 455.041 287.444 455.292 287.444 455.548V465.992C287.444 466.3 287.505 466.605 287.623 466.89C287.742 467.174 287.915 467.433 288.133 467.65C288.352 467.868 288.611 468.04 288.896 468.157C289.181 468.274 289.486 468.333 289.795 468.332L330.019 468.17Z" fill="#C1D8ED"/>
<path d="M381.121 441.344L363.021 444.388L366.617 465.761L384.717 462.717L381.121 441.344Z" fill="#E98862"/>
<path d="M390.473 446.025L350.175 291.022C349.274 287.558 347.25 284.491 344.419 282.302C341.588 280.112 338.11 278.924 334.53 278.923H246.214V278.98H196.738V294.139C196.738 302.965 200.245 311.431 206.488 317.672C212.731 323.914 221.198 327.42 230.026 327.42H254.157V327.515H296.283L284.684 450.824L316.88 453.852L328.096 334.613L359.175 454.152L390.473 446.025Z" fill="#262626"/>
<path d="M405.449 468.17C405.943 468.167 406.431 468.063 406.882 467.864C407.334 467.665 407.739 467.374 408.074 467.011C408.408 466.648 408.664 466.22 408.825 465.754C408.987 465.288 409.05 464.793 409.012 464.301C408.959 463.619 408.711 462.967 408.3 462.42C407.888 461.874 407.329 461.457 406.688 461.217L385.328 454.064C384.914 453.927 384.476 453.881 384.042 453.93C383.609 453.978 383.191 454.119 382.817 454.344C379.881 456.381 376.368 457.422 372.795 457.315C370.012 457.117 367.341 456.142 365.086 454.5C364.887 454.337 364.647 454.234 364.393 454.203C364.138 454.172 363.88 454.213 363.649 454.323C363.417 454.433 363.221 454.607 363.085 454.824C362.948 455.041 362.876 455.292 362.877 455.548V465.992C362.877 466.3 362.938 466.605 363.056 466.89C363.174 467.174 363.348 467.433 363.566 467.65C363.784 467.868 364.043 468.04 364.328 468.157C364.614 468.274 364.919 468.333 365.227 468.332L405.449 468.17Z" fill="#C1D8ED"/>
<path d="M323.187 204.897C323.187 204.897 323.318 194.402 330.821 194.948C335.554 195.292 358.047 194.249 358.382 196.297C359.21 201.365 338.636 202.604 336.769 207.326L323.187 204.897Z" fill="#E98862"/>
<path d="M328.161 195.284C328.161 195.284 338.605 191.881 341.171 192.488C343.444 193.028 338.707 196.726 338.707 196.726L328.161 195.284Z" fill="#E98862"/>
<path d="M291.199 257.979C289.503 257.978 287.839 257.525 286.377 256.667C284.915 255.809 283.708 254.577 282.88 253.098L251.315 196.609L267.95 187.32L292.979 232.114L322.816 198.553L338.874 207.581L298.321 254.787C297.426 255.791 296.329 256.595 295.102 257.145C293.874 257.696 292.544 257.98 291.199 257.979Z" fill="#0E185F"/>
<path d="M301.195 245.825C303.8 245.825 312.507 244.45 313.13 246.662C313.502 247.988 307.012 249.554 307.012 249.554" fill="#E98862"/>
<path d="M299.828 256.265C299.828 256.265 317.408 263.487 327.507 255.25C327.764 255.04 327.952 254.757 328.045 254.439C328.139 254.121 328.135 253.782 328.033 253.466C327.931 253.15 327.736 252.872 327.473 252.669C327.211 252.466 326.894 252.346 326.562 252.326C319.752 251.926 305.761 250.553 307.4 246.064H296.419" fill="#E98862"/>
<path d="M301.613 240.743H268.117C268.106 239.65 268.101 238.533 268.117 237.363C268.397 213.132 281.14 180.136 252.149 178.887C251.598 178.869 250.716 178.843 249.579 178.826C249.352 183.632 219.575 183.614 218.946 178.712C210.538 178.721 203.633 181.307 199.648 185.292C185.882 199.054 202.777 222.508 202.777 240.858C202.777 259.208 194.474 267.44 195.086 276.86C196.047 291.662 268.003 288.167 271.665 279.752C274.121 274.114 271.741 269.878 269.868 259.796H301.616L301.613 240.743Z" fill="#0E185F"/>
<path d="M249.577 178.826C249.35 183.632 246.728 190.701 238.67 191.225C227.911 191.942 219.573 183.614 218.943 178.712H218.978C229.554 178.712 243.398 178.729 249.577 178.826Z" fill="#E98862"/>
<path d="M145.247 268.266H137.04V468.333H145.247V268.266Z" fill="#DEE8F5"/>
<path d="M831.947 268.266H823.74V468.333H831.947V268.266Z" fill="#DEE8F5"/>
<path d="M855 260.003H115V271.287H855V260.003Z" fill="#DEE8F5"/>
<path d="M163.889 217.24L156.532 215.5L147.308 254.506L154.665 256.246L163.889 217.24Z" fill="#F0F6FF"/>
<path d="M148.44 212.473L144.355 213.226L150.672 247.462L154.757 246.709L148.44 212.473Z" fill="#C1D8ED"/>
<path d="M148.437 212.461L144.357 213.238L145.076 217.014L149.156 216.238L148.437 212.461Z" fill="#DEE8F5"/>
<path d="M161.082 221.177L147.846 254.769L150.114 255.662L163.35 222.07L161.082 221.177Z" fill="#0CBC8B"/>
<path d="M163.982 235.873H144.03V261.368H163.982V235.873Z" fill="#DEE8F5"/>
<path d="M434.325 250.208H388.384V260.608H434.325V250.208Z" fill="#C1D8ED"/>
<path d="M418.648 250.208H370.065V260.608H418.648V250.208Z" fill="#DEE8F5"/>
<path opacity="0.62" d="M414.681 250.208H412.323V260.608H414.681V250.208Z" fill="#C1D8ED"/>
<path opacity="0.62" d="M409.965 250.208H407.607V260.608H409.965V250.208Z" fill="#C1D8ED"/>
<path d="M375.636 258.762C377.488 258.762 378.99 257.26 378.99 255.408C378.99 253.556 377.488 252.054 375.636 252.054C373.783 252.054 372.281 253.556 372.281 255.408C372.281 257.26 373.783 258.762 375.636 258.762Z" fill="#F3F5FD"/>
<path d="M392.13 250.22H438.071V239.82H392.13V250.22Z" fill="#C1D8ED"/>
<path d="M373.812 250.22H422.395V239.82H373.812V250.22Z" fill="#F3F5FD"/>
<path d="M377.779 250.22H380.137V239.82H377.779V250.22Z" fill="#DEE8F5"/>
<path d="M382.495 250.22H384.853V239.82H382.495V250.22Z" fill="#DEE8F5"/>
<path d="M416.825 248.373C418.677 248.373 420.179 246.871 420.179 245.019C420.179 243.167 418.677 241.666 416.825 241.666C414.972 241.666 413.47 243.167 413.47 245.019C413.47 246.871 414.972 248.373 416.825 248.373Z" fill="#DEE8F5"/>
<path d="M409.933 242.471H388.487V247.569H409.933V242.471Z" fill="#DEE8F5"/>
<path d="M664.646 209.657L675.258 254.197C675.547 255.414 675.342 256.696 674.686 257.761C674.03 258.825 672.979 259.587 671.762 259.877C671.406 259.963 671.04 260.006 670.673 260.006H608.105C607.071 260.005 606.066 259.666 605.244 259.039C604.422 258.413 603.829 257.534 603.555 256.537L591.329 211.995C591.137 211.295 591.109 210.56 591.248 209.847C591.386 209.135 591.687 208.464 592.128 207.886C592.568 207.309 593.135 206.841 593.786 206.519C594.437 206.197 595.153 206.029 595.879 206.029H660.059C661.12 206.03 662.15 206.388 662.982 207.047C663.815 207.705 664.401 208.625 664.646 209.657Z" fill="#9EBCEA"/>
<path d="M697.531 260.003H621.914C621.179 260.003 620.473 259.711 619.954 259.191C619.434 258.671 619.142 257.966 619.142 257.231C619.142 256.496 619.434 255.791 619.954 255.271C620.473 254.751 621.179 254.459 621.914 254.459H697.531C698.267 254.459 698.972 254.751 699.492 255.271C700.012 255.791 700.304 256.496 700.304 257.231C700.304 257.966 700.012 258.671 699.492 259.191C698.972 259.711 698.267 260.003 697.531 260.003Z" fill="#9EBCEA"/>
<path d="M630.731 239.974C634.817 239.974 638.13 236.662 638.13 232.576C638.13 228.491 634.817 225.179 630.731 225.179C626.644 225.179 623.332 228.491 623.332 232.576C623.332 236.662 626.644 239.974 630.731 239.974Z" fill="white"/>
<path d="M484.834 245.309C484.832 242.604 483.756 240.01 481.842 238.098C479.928 236.186 477.333 235.113 474.628 235.113V230.963H451.494V260.524H474.628V255.513C475.968 255.513 477.295 255.249 478.534 254.736C479.772 254.223 480.897 253.472 481.845 252.524C482.792 251.577 483.544 250.452 484.057 249.214C484.57 247.976 484.834 246.649 484.834 245.309ZM474.628 251.301V239.329C475.426 239.31 476.221 239.451 476.964 239.743C477.707 240.035 478.384 240.473 478.956 241.03C479.527 241.588 479.981 242.255 480.292 242.99C480.602 243.726 480.761 244.517 480.761 245.315C480.761 246.113 480.602 246.904 480.292 247.64C479.981 248.375 479.527 249.042 478.956 249.6C478.384 250.157 477.707 250.595 476.964 250.887C476.221 251.179 475.426 251.32 474.628 251.301Z" fill="#C1D8ED"/>
<path d="M320.816 102.041C333.646 102.041 344.046 91.6431 344.046 78.8161C344.046 65.9891 333.646 55.5908 320.816 55.5908C307.987 55.5908 297.586 65.9891 297.586 78.8161C297.586 91.6431 307.987 102.041 320.816 102.041Z" fill="#C1D8ED"/>
<path d="M325.551 102.041C338.38 102.041 348.781 91.6431 348.781 78.8161C348.781 65.9891 338.38 55.5908 325.551 55.5908C312.721 55.5908 302.321 65.9891 302.321 78.8161C302.321 91.6431 312.721 102.041 325.551 102.041Z" fill="#DEE8F5"/>
<path d="M325.551 98.6195C336.49 98.6195 345.359 89.7532 345.359 78.8161C345.359 67.879 336.49 59.0127 325.551 59.0127C314.612 59.0127 305.744 67.879 305.744 78.8161C305.744 89.7532 314.612 98.6195 325.551 98.6195Z" fill="#F3F5FD"/>
<path d="M325.552 80.6443C325.389 80.6441 325.229 80.6023 325.088 80.5228L315.531 75.1515C315.422 75.0906 315.327 75.009 315.25 74.9112C315.173 74.8135 315.116 74.7016 315.083 74.5819C315.015 74.3402 315.046 74.0815 315.169 73.8626C315.292 73.6437 315.497 73.4826 315.738 73.4148C315.98 73.3469 316.239 73.3779 316.458 73.5008L324.604 78.0788V65.0649C324.612 64.8188 324.715 64.5853 324.892 64.4138C325.068 64.2424 325.305 64.1465 325.551 64.1465C325.798 64.1465 326.034 64.2424 326.211 64.4138C326.388 64.5853 326.491 64.8188 326.498 65.0649V79.6971C326.498 79.9481 326.398 80.1887 326.221 80.3663C326.043 80.5439 325.803 80.6438 325.552 80.6443Z" fill="#DEE8F5"/>
</svg>
