<svg width="1372" height="389" viewBox="0 0 1372 389" fill="none" xmlns="http://www.w3.org/2000/svg">
<rect x="0.923828" width="1370.32" height="389" rx="33" fill="#0E185F"/>
<path d="M1320.94 154.649L1315.21 169.679L1319.27 171.307L1325 156.277L1320.94 154.649Z" fill="#367CFF"/>
<path d="M963.11 117.792L959.862 120.776L970.359 132.797L973.607 129.814L963.11 117.792Z" fill="#0CBC8B"/>
<path d="M1011.24 171.597L998.646 181.271L1001.26 184.851L1013.85 175.176L1011.24 171.597Z" fill="#367CFF"/>
<path d="M1156.9 60.5767L1153.91 63.8335L1165.37 74.8929L1168.36 71.6362L1156.9 60.5767Z" fill="#367CFF"/>
<path d="M1073.57 64.1731L1065.73 78.1641L1069.51 80.3929L1077.35 66.4019L1073.57 64.1731Z" fill="#0CBC8B"/>
<path d="M1187.45 183.818L1183.77 186.205L1192.16 199.852L1195.85 197.465L1187.45 183.818Z" fill="#0CBC8B"/>
<path d="M1016.47 250.274L1012.57 252.273L1019.6 266.709L1023.5 264.711L1016.47 250.274Z" fill="#0CBC8B"/>
<path d="M959.399 212.29L954.881 227.748L959.057 229.032L963.575 213.574L959.399 212.29Z" fill="#367CFF"/>
<path d="M1232.36 260.459L1219.29 269.447L1221.72 273.161L1234.78 264.173L1232.36 260.459Z" fill="#367CFF"/>
<path d="M1234.31 35.0002L1226.47 48.9907L1230.25 51.2195L1238.09 37.2289L1234.31 35.0002Z" fill="#0CBC8B"/>
<path d="M798.432 149.458L794.371 151.086L800.099 166.117L804.16 164.489L798.432 149.458Z" fill="#0CBC8B"/>
<path d="M1220 130.89L1217.39 134.47L1229.98 144.144L1232.6 140.565L1220 130.89Z" fill="#0CBC8B"/>
<path d="M866.252 64.9528L854.792 76.0122L857.781 79.269L869.24 68.2095L866.252 64.9528Z" fill="#367CFF"/>
<path d="M993.178 51.7829L989.398 54.0117L997.24 68.0027L1001.02 65.7738L993.178 51.7829Z" fill="#367CFF"/>
<path d="M838.993 227.446L830.596 241.094L834.283 243.48L842.68 229.833L838.993 227.446Z" fill="#0CBC8B"/>
<path d="M801.799 264.831L799.371 268.547L812.446 277.536L814.875 273.82L801.799 264.831Z" fill="#367CFF"/>
<path d="M1306.27 86.6126L1302.48 88.8413L1310.33 102.832L1314.11 100.603L1306.27 86.6126Z" fill="#367CFF"/>
<path d="M1142.44 124.741L1131.94 136.762L1135.19 139.745L1145.69 127.724L1142.44 124.741Z" fill="#367CFF"/>
<path d="M1050.28 260.239L1043.25 274.675L1047.15 276.674L1054.18 262.238L1050.28 260.239Z" fill="#0CBC8B"/>
<path d="M1107.35 222.256L1103.17 223.54L1107.69 238.997L1111.87 237.713L1107.35 222.256Z" fill="#367CFF"/>
<path d="M1108.76 231.077L1093.89 219.491C1093.57 219.236 1093.19 219.054 1092.79 218.957C1092.4 218.859 1091.98 218.847 1091.58 218.923C1091.17 218.998 1090.79 219.159 1090.45 219.395C1090.11 219.63 1089.82 219.936 1089.6 220.292C1089.22 220.963 1089.1 221.755 1089.25 222.516C1089.4 223.277 1089.83 223.951 1090.44 224.409L1093.63 226.894L1080.11 223.799C1078.61 223.428 1076.55 223.955 1076.25 225.705C1076.09 226.37 1076.16 227.071 1076.44 227.692C1076.73 228.312 1077.2 228.817 1077.8 229.123C1077.79 229.137 1077.79 229.151 1077.78 229.166C1077.78 229.177 1077.78 229.189 1077.78 229.2L1075.48 228.629C1075.05 228.523 1074.6 228.516 1074.17 228.61C1073.74 228.703 1073.34 228.893 1072.99 229.167C1072.64 229.441 1072.35 229.792 1072.15 230.193C1071.95 230.595 1071.84 231.037 1071.83 231.488C1071.82 232.198 1072.05 232.89 1072.48 233.446C1072.91 234.002 1073.52 234.39 1074.19 234.544L1075.18 234.788C1075.18 234.82 1075.19 234.851 1075.21 234.879C1074.51 234.873 1073.83 235.123 1073.29 235.583C1072.75 236.044 1072.39 236.686 1072.27 237.395C1072.17 238.174 1072.35 238.966 1072.79 239.613C1073.22 240.26 1073.88 240.715 1074.63 240.886L1077.07 241.491C1077.03 241.508 1076.99 241.534 1076.97 241.567C1076.94 241.6 1076.92 241.64 1076.91 241.683C1076.9 241.735 1076.9 241.789 1076.92 241.838C1076.29 242.01 1075.74 242.388 1075.35 242.914C1074.95 243.441 1074.73 244.085 1074.73 244.75C1074.74 245.448 1074.98 246.122 1075.41 246.663C1075.84 247.204 1076.43 247.58 1077.1 247.731L1097.69 252.832C1100.57 253.546 1103.59 253.361 1106.37 252.301C1109.14 251.242 1111.55 249.356 1113.28 246.885C1114.76 244.755 1115.38 242.114 1115 239.523C1114.62 236.932 1113.27 234.595 1111.24 233.009L1108.76 231.077Z" fill="#E98862"/>
<g opacity="0.2">
<path opacity="0.2" d="M1091.16 232.255C1091.15 232.326 1091.1 232.387 1091.04 232.425C1090.98 232.463 1090.91 232.476 1090.84 232.46L1077.99 229.497C1077.95 229.489 1077.92 229.474 1077.89 229.453C1077.86 229.432 1077.84 229.405 1077.82 229.374C1077.8 229.343 1077.79 229.308 1077.78 229.272C1077.77 229.236 1077.77 229.199 1077.78 229.163C1077.79 229.127 1077.81 229.093 1077.83 229.063C1077.85 229.033 1077.87 229.008 1077.9 228.988C1077.93 228.968 1077.97 228.955 1078 228.949C1078.04 228.943 1078.07 228.944 1078.11 228.952L1090.96 231.914C1091 231.922 1091.03 231.937 1091.06 231.959C1091.09 231.98 1091.11 232.007 1091.13 232.038C1091.15 232.069 1091.16 232.104 1091.17 232.14C1091.18 232.177 1091.17 232.214 1091.17 232.25L1091.16 232.255Z" fill="#0C0C0C"/>
</g>
<g opacity="0.2">
<path opacity="0.2" d="M1090.05 238.104C1090.03 238.176 1089.99 238.237 1089.93 238.276C1089.87 238.314 1089.79 238.326 1089.72 238.309L1075.38 235.006C1075.34 234.998 1075.31 234.982 1075.28 234.961C1075.25 234.94 1075.23 234.913 1075.21 234.882C1075.19 234.851 1075.18 234.816 1075.17 234.78C1075.16 234.743 1075.17 234.706 1075.17 234.67C1075.19 234.599 1075.24 234.537 1075.3 234.498C1075.36 234.459 1075.43 234.445 1075.5 234.459L1089.84 237.763C1089.88 237.771 1089.91 237.786 1089.94 237.807C1089.97 237.828 1090 237.855 1090.01 237.886C1090.03 237.917 1090.05 237.952 1090.05 237.989C1090.06 238.025 1090.06 238.062 1090.05 238.098V238.104Z" fill="#0C0C0C"/>
</g>
<g opacity="0.2">
<path opacity="0.2" d="M1088.88 244.447C1088.86 244.518 1088.82 244.579 1088.76 244.617C1088.69 244.655 1088.62 244.668 1088.55 244.652L1077.11 242.017C1077.04 242 1076.98 241.956 1076.94 241.894C1076.9 241.831 1076.89 241.755 1076.91 241.683C1076.92 241.61 1076.96 241.547 1077.03 241.508C1077.09 241.468 1077.16 241.455 1077.23 241.471L1088.67 244.106C1088.71 244.114 1088.74 244.129 1088.77 244.15C1088.8 244.172 1088.82 244.199 1088.84 244.23C1088.86 244.261 1088.88 244.296 1088.88 244.332C1088.89 244.368 1088.89 244.406 1088.88 244.442L1088.88 244.447Z" fill="#0C0C0C"/>
</g>
<path d="M1038.2 151.385L1046.5 134.234C1046.68 133.857 1046.94 133.524 1047.25 133.254C1047.57 132.985 1047.93 132.786 1048.33 132.669C1048.72 132.553 1049.14 132.522 1049.54 132.579C1049.95 132.635 1050.34 132.778 1050.69 132.998C1051.32 133.424 1051.78 134.076 1051.97 134.828C1052.16 135.58 1052.07 136.378 1051.72 137.068L1049.94 140.745L1060.71 131.817C1061.89 130.802 1063.98 130.332 1065 131.765C1065.43 132.29 1065.67 132.949 1065.68 133.634C1065.7 134.318 1065.49 134.988 1065.09 135.535C1065.1 135.544 1065.11 135.554 1065.12 135.565C1065.13 135.575 1065.13 135.585 1065.14 135.596L1066.96 134.031C1067.3 133.741 1067.69 133.533 1068.12 133.42C1068.54 133.307 1068.99 133.294 1069.42 133.38C1069.85 133.466 1070.26 133.65 1070.61 133.918C1070.97 134.186 1071.26 134.532 1071.47 134.93C1071.78 135.564 1071.87 136.289 1071.73 136.984C1071.58 137.679 1071.21 138.301 1070.67 138.748L1069.89 139.413C1069.9 139.445 1069.9 139.478 1069.9 139.511C1070.53 139.186 1071.24 139.1 1071.93 139.267C1072.61 139.435 1073.21 139.846 1073.62 140.426C1074.06 141.075 1074.24 141.868 1074.12 142.647C1074.01 143.426 1073.62 144.133 1073.02 144.627L1071.1 146.28C1071.14 146.276 1071.18 146.283 1071.22 146.3C1071.27 146.317 1071.3 146.343 1071.33 146.377C1071.36 146.42 1071.38 146.47 1071.38 146.523C1072.02 146.392 1072.68 146.479 1073.26 146.77C1073.84 147.061 1074.32 147.54 1074.61 148.134C1074.9 148.764 1074.98 149.477 1074.83 150.157C1074.68 150.838 1074.31 151.446 1073.78 151.884L1057.54 165.833C1055.27 167.785 1052.48 168.996 1049.53 169.312C1046.58 169.628 1043.61 169.033 1041 167.606C1038.74 166.375 1037.04 164.291 1036.26 161.796C1035.48 159.301 1035.68 156.593 1036.82 154.246L1038.2 151.385Z" fill="#E98862"/>
<g opacity="0.2">
<path opacity="0.2" d="M1054.47 144.427C1054.52 144.483 1054.58 144.518 1054.66 144.525C1054.73 144.532 1054.8 144.51 1054.85 144.463L1065.09 135.956C1065.14 135.91 1065.18 135.842 1065.19 135.768C1065.19 135.694 1065.17 135.621 1065.13 135.563C1065.08 135.505 1065.01 135.469 1064.94 135.461C1064.87 135.453 1064.8 135.475 1064.74 135.522L1054.51 144.029C1054.45 144.075 1054.42 144.142 1054.41 144.216C1054.4 144.289 1054.42 144.362 1054.47 144.42L1054.47 144.427Z" fill="#0C0C0C"/>
</g>
<g opacity="0.2">
<path opacity="0.2" d="M1058 149.159C1058.05 149.215 1058.12 149.251 1058.19 149.257C1058.26 149.264 1058.33 149.241 1058.38 149.195L1069.8 139.701C1069.86 139.655 1069.9 139.587 1069.9 139.514C1069.91 139.441 1069.89 139.368 1069.84 139.31C1069.8 139.255 1069.73 139.22 1069.66 139.213C1069.59 139.205 1069.52 139.225 1069.46 139.269L1058.04 148.76C1057.98 148.807 1057.95 148.874 1057.94 148.948C1057.93 149.021 1057.95 149.094 1058 149.152L1058 149.159Z" fill="#0C0C0C"/>
</g>
<g opacity="0.2">
<path opacity="0.2" d="M1061.8 154.306C1061.85 154.362 1061.92 154.398 1061.99 154.405C1062.06 154.411 1062.13 154.389 1062.19 154.342L1071.29 146.77C1071.35 146.723 1071.39 146.655 1071.39 146.582C1071.4 146.508 1071.38 146.434 1071.33 146.376C1071.29 146.319 1071.22 146.282 1071.15 146.274C1071.08 146.267 1071.01 146.289 1070.95 146.335L1061.84 153.908C1061.78 153.955 1061.75 154.022 1061.74 154.095C1061.73 154.168 1061.75 154.242 1061.8 154.299L1061.8 154.306Z" fill="#0C0C0C"/>
</g>
<path d="M851.98 136.68C851.98 136.68 850.81 154.688 846.86 161.22C835.487 180.029 832.192 201.188 843.581 212.243C854.97 223.298 927.61 223.451 933.113 198.025C937.746 176.618 927.804 174.316 925.385 156.659C924.29 148.669 921.279 131.915 921.279 131.915" fill="#0A0A0A"/>
<path d="M914.313 194.297C914.188 194.28 912.796 217.96 885.974 215.895C867.406 214.468 860.785 194.262 860.36 194.262C862.362 193.826 865.733 193.191 866.622 192.704C869.546 191.093 873.162 189.416 874.106 183.593C874.651 180.239 873.728 163.066 874.012 159.668L902.514 166.195C902.115 173.367 899.328 189.994 909.098 192.936C910.723 193.424 912.475 193.872 914.313 194.297Z" fill="#E98862"/>
<path opacity="0.5" d="M902.913 186.142C902.466 184.666 902.179 183.145 902.055 181.605C901.742 178.091 901.805 174.553 902.242 171.053C896.449 170.251 890.992 167.799 886.49 163.975C885.961 165.979 883.05 174.739 883.856 176.644C885.378 180.245 892.536 186.142 902.913 186.142Z" fill="#0C0C0C"/>
<path d="M899.228 178.765C887.991 179.883 873.451 175.27 870.439 159.922L867.722 146.074C864.71 130.726 870.128 116.662 884.218 113.753C898.308 110.847 911.281 121.112 914.293 136.461L915.497 142.592C916.652 148.481 919.278 176.775 899.228 178.765Z" fill="#E98862"/>
<path opacity="0.1" d="M892.086 158.653C893.935 158.427 895.303 157.115 895.141 155.724C894.979 154.333 893.349 153.389 891.5 153.615C889.651 153.841 888.283 155.153 888.444 156.544C888.606 157.935 890.237 158.879 892.086 158.653Z" fill="#0C0C0C"/>
<path opacity="0.1" d="M911.627 153.091C911.79 154.48 913.422 155.423 915.272 155.2C915.591 155.16 915.906 155.087 916.211 154.981C916.297 153.325 916.302 151.732 916.255 150.257C915.741 150.125 915.208 150.093 914.683 150.162C912.834 150.386 911.466 151.697 911.627 153.091Z" fill="#0C0C0C"/>
<path opacity="0.5" d="M903.455 157.385C903.464 157.384 903.473 157.382 903.482 157.38C904.053 157.258 904.617 157.104 905.171 156.918C905.999 156.634 907.079 156.168 906.931 155.4C906.76 154.526 902.571 145.573 902.095 144.556C902.076 144.51 902.048 144.468 902.012 144.434C901.977 144.4 901.935 144.373 901.889 144.355C901.843 144.338 901.795 144.33 901.746 144.332C901.697 144.335 901.649 144.347 901.605 144.369C901.561 144.39 901.522 144.421 901.49 144.458C901.458 144.496 901.433 144.54 901.418 144.587C901.402 144.635 901.397 144.685 901.401 144.735C901.405 144.785 901.418 144.833 901.441 144.878C903.227 148.691 906.104 154.96 906.22 155.548C906.129 155.823 904.757 156.359 903.34 156.652C903.293 156.66 903.248 156.677 903.208 156.702C903.167 156.728 903.132 156.762 903.104 156.801C903.076 156.841 903.056 156.886 903.045 156.933C903.034 156.981 903.033 157.03 903.04 157.078C903.048 157.126 903.064 157.172 903.089 157.214C903.114 157.256 903.147 157.292 903.186 157.32C903.224 157.349 903.268 157.369 903.314 157.381C903.361 157.392 903.409 157.394 903.456 157.386L903.455 157.385Z" fill="#0C0C0C"/>
<path d="M856.479 151.046L869.111 148.515C878.653 144.423 881.36 127.368 881.36 127.368C881.36 127.368 893.137 138.87 921.281 131.914C921.281 131.914 915.168 91.6188 873.609 103.853C860.21 107.797 850.718 121.805 852.129 140.359C853.119 153.358 856.479 151.046 856.479 151.046Z" fill="#0A0A0A"/>
<path d="M872.232 164.418C867.95 165.301 863.557 161.32 862.694 156.927C861.83 152.535 864.828 149.398 869.11 148.513L871.894 151.001L875.912 163.657L872.232 164.418Z" fill="#E98862"/>
<path d="M905.131 137.416C906.202 136.639 907.455 136.167 908.762 136.048C909.419 135.983 910.081 136.021 910.727 136.159C911.378 136.296 912.01 136.515 912.608 136.812L912.627 136.821C912.693 136.851 912.768 136.854 912.836 136.828C912.904 136.802 912.959 136.749 912.99 136.682C913.02 136.615 913.024 136.538 913.001 136.468C912.977 136.398 912.927 136.34 912.863 136.307C912.229 135.963 911.556 135.704 910.859 135.533C910.157 135.358 909.434 135.292 908.713 135.338C907.253 135.42 905.842 135.903 904.625 136.735C904.58 136.767 904.541 136.807 904.511 136.854C904.481 136.901 904.46 136.954 904.45 137.009C904.44 137.064 904.44 137.121 904.451 137.176C904.462 137.231 904.484 137.283 904.515 137.329C904.545 137.376 904.585 137.415 904.631 137.446C904.677 137.477 904.728 137.498 904.782 137.509C904.835 137.519 904.891 137.518 904.944 137.507C904.998 137.495 905.049 137.473 905.094 137.441L905.104 137.435L905.131 137.416Z" fill="#0C0C0C"/>
<path d="M893.592 139.052C892.157 138.759 890.672 138.867 889.292 139.363C888.61 139.604 887.967 139.949 887.385 140.385C886.804 140.817 886.28 141.321 885.822 141.887C885.776 141.943 885.753 142.016 885.758 142.089C885.763 142.162 885.795 142.231 885.848 142.28C885.901 142.33 885.971 142.357 886.042 142.355C886.114 142.353 886.182 142.322 886.232 142.27L886.247 142.254C886.688 141.745 887.19 141.294 887.74 140.913C888.285 140.531 888.883 140.237 889.514 140.039C890.766 139.636 892.1 139.58 893.379 139.877L893.411 139.885C893.519 139.912 893.632 139.894 893.726 139.835C893.821 139.776 893.888 139.681 893.914 139.57C893.94 139.46 893.922 139.344 893.865 139.247C893.807 139.151 893.715 139.081 893.607 139.055L893.592 139.052Z" fill="#0C0C0C"/>
<path d="M869.119 148.302C877.61 145.06 880.428 139.046 881.296 134.571C881.857 131.586 881.805 128.514 881.141 125.551L880.879 125.626C881.532 128.55 881.582 131.581 881.027 134.526C880.17 138.929 877.393 144.846 869.023 148.041L869.119 148.302Z" fill="#0C0C0C"/>
<path d="M936.158 197.113L1016.78 224.754L993.112 235.545L1033.32 150.958L1066.17 166.663L1028.87 252.636C1026.98 256.984 1023.64 260.49 1019.44 262.514C1015.24 264.538 1010.47 264.945 1006 263.661L1005.2 263.428L923.352 239.861L936.158 197.113Z" fill="#367CFF"/>
<path d="M885.474 209.976C866.892 209.077 866.11 192.902 866.11 192.902C866.11 192.902 856.903 193.513 850.783 194.362C840.763 195.752 834.153 199.237 828.892 204.632C823.999 209.651 821.019 215.081 824.172 249.749C826.455 274.851 824.848 330.064 824.848 330.064H938.081C938.081 330.064 945.988 250.296 946.925 238.998C948.714 217.427 953.768 212.665 943.528 201.553C936.102 193.495 916.93 192.902 909.213 192.903C909.087 192.903 910.779 211.199 885.474 209.976Z" fill="#367CFF"/>
<path d="M907.221 160.41C903.57 162.314 899.404 162.916 895.382 162.121C895.243 162.094 895.099 162.109 894.968 162.163C894.836 162.217 894.722 162.308 894.639 162.426C894.556 162.543 894.508 162.683 894.499 162.828C894.491 162.973 894.523 163.118 894.591 163.245C895.791 165.411 898.635 169.114 903.514 167.605C906.664 166.63 907.855 163.306 908.297 161.25C908.327 161.107 908.317 160.959 908.268 160.823C908.219 160.686 908.133 160.567 908.02 160.479C907.907 160.39 907.772 160.337 907.63 160.325C907.489 160.313 907.347 160.342 907.221 160.41Z" fill="white"/>
<path d="M907.45 143.757C908.425 143.757 909.215 142.946 909.215 141.947C909.215 140.948 908.425 140.138 907.45 140.138C906.476 140.138 905.686 140.948 905.686 141.947C905.686 142.946 906.476 143.757 907.45 143.757Z" fill="#0C0C0C"/>
<path d="M890.496 146.801C891.47 146.801 892.26 145.99 892.26 144.991C892.26 143.992 891.47 143.182 890.496 143.182C889.521 143.182 888.731 143.992 888.731 144.991C888.731 145.99 889.521 146.801 890.496 146.801Z" fill="#0C0C0C"/>
<path d="M946.674 246.857C946.662 246.858 946.651 246.858 946.639 246.857C946.568 246.848 946.503 246.81 946.458 246.752C946.414 246.693 946.394 246.619 946.403 246.546L948.156 231.969C948.16 231.932 948.171 231.896 948.188 231.864C948.206 231.832 948.229 231.804 948.258 231.781C948.286 231.758 948.319 231.742 948.353 231.732C948.388 231.723 948.424 231.721 948.46 231.726C948.495 231.73 948.53 231.742 948.561 231.76C948.592 231.778 948.619 231.803 948.641 231.831C948.664 231.86 948.68 231.894 948.689 231.929C948.699 231.964 948.701 232.001 948.697 232.038L946.944 246.615C946.935 246.682 946.903 246.743 946.853 246.788C946.804 246.833 946.74 246.857 946.674 246.857Z" fill="#0C0C0C"/>
<path d="M1233.29 134.376C1233.29 134.376 1226.54 126.596 1227.32 112.027C1227.93 100.747 1236.41 109.87 1236.41 109.87C1236.41 109.87 1236.93 101.751 1242.39 103.684C1247.85 105.617 1249.39 114.569 1249.39 114.569" fill="#0C0C0C"/>
<path d="M1271.25 110.546C1271.25 110.546 1298.53 119.311 1280.93 155.993L1278.43 155.657L1273.35 154.978" fill="#0C0C0C"/>
<path d="M1232.44 194.238C1232.57 194.221 1233.95 217.822 1260.69 215.764C1279.19 214.342 1285.79 194.205 1286.22 194.205C1284.22 193.769 1280.86 193.137 1279.98 192.652C1277.06 191.046 1273.46 189.375 1272.52 183.571C1271.97 180.225 1272.89 163.112 1272.61 159.727L1244.2 166.229C1244.6 173.378 1247.38 189.95 1237.64 192.883C1236.02 193.368 1234.27 193.814 1232.44 194.238Z" fill="#E98862"/>
<path opacity="0.52" d="M1243.8 186.11C1244.25 184.639 1244.54 183.123 1244.66 181.588C1244.97 178.086 1244.91 174.559 1244.47 171.071C1250.25 170.272 1255.69 167.827 1260.17 164.016C1260.7 166.014 1263.6 174.744 1262.8 176.643C1261.28 180.233 1254.15 186.11 1243.8 186.11Z" fill="#0C0C0C"/>
<path d="M1247.21 178.118C1258.4 179.354 1272.94 174.92 1276.1 159.658L1278.96 145.886C1282.12 130.625 1276.87 116.546 1262.86 113.491C1248.84 110.436 1235.81 120.526 1232.64 135.789L1231.38 141.886C1230.98 143.987 1230.72 146.113 1230.61 148.25C1230.26 153.896 1229.75 162.485 1232.29 168.884C1234.69 174.926 1240.06 177.328 1247.21 178.118Z" fill="#E98862"/>
<path d="M1238.32 142.956C1239.3 142.956 1240.09 142.146 1240.09 141.146C1240.09 140.147 1239.3 139.337 1238.32 139.337C1237.35 139.337 1236.56 140.147 1236.56 141.146C1236.56 142.146 1237.35 142.956 1238.32 142.956Z" fill="#0C0C0C"/>
<path d="M1255.08 144.765C1256.06 144.765 1256.85 143.955 1256.85 142.956C1256.85 141.957 1256.06 141.146 1255.08 141.146C1254.11 141.146 1253.32 141.957 1253.32 142.956C1253.32 143.955 1254.11 144.765 1255.08 144.765Z" fill="#0C0C0C"/>
<path d="M1274.27 164.118C1278.53 165.046 1282.95 161.127 1283.85 156.759C1284.76 152.392 1281.8 149.231 1277.55 148.303L1274.74 150.751L1270.61 163.32L1274.27 164.118Z" fill="#E98862"/>
<path d="M1271.39 156.214C1271.39 156.214 1274.16 134.268 1268.02 131.622C1263.93 129.86 1252.38 133.948 1243.17 130.118C1239.14 128.441 1234.95 128.692 1234.16 130.639C1233.84 131.41 1233.47 119.328 1241.74 111.904C1248.32 105.994 1265.8 107.518 1273.13 111.396C1293.43 122.134 1278.24 149.436 1278.24 149.436L1275.83 156.703L1271.39 156.214Z" fill="#0C0C0C"/>
<g opacity="0.52">
<path opacity="0.52" d="M1242.91 157.784L1242.89 157.78C1241.51 157.484 1239.24 156.83 1239.46 155.778C1239.64 154.906 1243.89 145.985 1244.38 144.971C1244.42 144.884 1244.49 144.817 1244.58 144.786C1244.67 144.754 1244.77 144.761 1244.86 144.804C1244.94 144.846 1245.01 144.922 1245.04 145.014C1245.07 145.106 1245.06 145.207 1245.02 145.294C1243.13 149.244 1240.28 155.336 1240.16 155.929C1240.24 156.208 1241.61 156.756 1243.03 157.062C1243.12 157.083 1243.2 157.138 1243.25 157.215C1243.3 157.293 1243.32 157.388 1243.31 157.481C1243.29 157.573 1243.24 157.656 1243.17 157.713C1243.1 157.769 1243.01 157.795 1242.91 157.784Z" fill="#0C0C0C"/>
</g>
<path d="M1242.6 135.486C1241.25 134.788 1239.74 134.476 1238.23 134.582C1237.49 134.63 1236.76 134.792 1236.07 135.061C1235.38 135.325 1234.73 135.677 1234.13 136.108C1234.03 136.173 1233.96 136.277 1233.93 136.396C1233.91 136.515 1233.93 136.64 1233.99 136.744C1234.05 136.848 1234.15 136.923 1234.27 136.952C1234.38 136.981 1234.5 136.962 1234.61 136.9L1234.64 136.882C1235.19 136.531 1235.78 136.253 1236.4 136.054C1237.01 135.854 1237.64 135.751 1238.28 135.746C1239.55 135.727 1240.8 136.051 1241.9 136.686L1241.94 136.711C1242.02 136.758 1242.1 136.789 1242.19 136.802C1242.28 136.816 1242.37 136.811 1242.46 136.788C1242.55 136.765 1242.63 136.724 1242.7 136.669C1242.77 136.613 1242.83 136.544 1242.88 136.464C1242.92 136.385 1242.95 136.297 1242.97 136.205C1242.98 136.114 1242.97 136.021 1242.95 135.932C1242.93 135.843 1242.89 135.759 1242.83 135.686C1242.78 135.612 1242.71 135.551 1242.63 135.505L1242.6 135.486Z" fill="#0C0C0C"/>
<path d="M1252.69 138.283C1253.91 137.961 1255.2 137.976 1256.42 138.327C1257.03 138.5 1257.62 138.768 1258.16 139.122C1258.71 139.477 1259.21 139.902 1259.66 140.385L1259.68 140.411C1259.76 140.494 1259.88 140.541 1259.99 140.542C1260.11 140.543 1260.22 140.497 1260.31 140.414C1260.39 140.332 1260.44 140.219 1260.45 140.099C1260.46 139.979 1260.42 139.862 1260.34 139.771C1259.87 139.196 1259.33 138.685 1258.73 138.249C1258.12 137.806 1257.46 137.457 1256.76 137.216C1255.33 136.715 1253.79 136.618 1252.31 136.936C1252.22 136.956 1252.14 136.993 1252.07 137.045C1251.99 137.098 1251.93 137.165 1251.88 137.242C1251.79 137.398 1251.75 137.587 1251.79 137.769C1251.83 137.95 1251.94 138.108 1252.09 138.208C1252.24 138.309 1252.43 138.343 1252.6 138.303L1252.64 138.294L1252.69 138.283Z" fill="#0C0C0C"/>
<path d="M1240.76 161.17C1244.73 162.188 1248.92 161.819 1252.67 160.121C1252.8 160.063 1252.94 160.044 1253.08 160.067C1253.22 160.089 1253.35 160.152 1253.46 160.248C1253.56 160.343 1253.64 160.468 1253.68 160.608C1253.72 160.747 1253.72 160.895 1253.68 161.035C1252.99 163.422 1251.02 167.687 1245.94 167.333C1242.66 167.107 1240.77 164.14 1239.89 162.237C1239.83 162.105 1239.8 161.958 1239.82 161.813C1239.84 161.668 1239.9 161.532 1239.99 161.42C1240.08 161.307 1240.2 161.224 1240.34 161.18C1240.47 161.136 1240.62 161.132 1240.76 161.17Z" fill="white"/>
<path d="M1256.52 115.032C1258.42 110.46 1257.51 105.682 1254.48 104.359C1251.45 103.036 1247.45 105.669 1245.56 110.24C1243.66 114.812 1244.57 119.59 1247.6 120.913C1250.63 122.236 1254.62 119.603 1256.52 115.032Z" fill="#0C0C0C"/>
<path d="M1261.1 209.976C1279.68 209.077 1280.47 192.902 1280.47 192.902C1280.47 192.902 1289.67 193.513 1295.79 194.362C1305.81 195.752 1312.42 199.237 1317.68 204.632C1322.58 209.651 1325.56 215.081 1322.4 249.749C1320.12 274.851 1321.73 330.064 1321.73 330.064H1208.5C1208.5 330.064 1200.59 250.298 1199.65 238.998C1197.86 217.427 1192.81 212.665 1203.05 201.553C1210.47 193.495 1229.65 192.902 1237.36 192.903C1237.49 192.903 1235.8 211.199 1261.1 209.976Z" fill="#367CFF"/>
<path d="M1199.38 206.549L1170.11 270.202L1112.37 225.675L1089.44 256.949L1165.89 315.909C1166.58 316.431 1167.29 316.908 1168.03 317.34C1170.22 318.595 1172.62 319.397 1175.11 319.699C1177.59 320.001 1180.11 319.799 1182.52 319.102C1184.93 318.405 1187.18 317.229 1189.15 315.639C1191.12 314.05 1192.76 312.079 1193.98 309.838L1194.32 309.233L1238.98 227.47L1199.38 206.549Z" fill="#367CFF"/>
<path d="M1326.07 330.623H810.419C810.274 330.623 810.135 330.564 810.033 330.459C809.931 330.354 809.874 330.212 809.874 330.064C809.874 329.916 809.931 329.773 810.033 329.669C810.135 329.564 810.274 329.505 810.419 329.505H1326.07C1326.22 329.505 1326.36 329.564 1326.46 329.669C1326.56 329.773 1326.62 329.916 1326.62 330.064C1326.62 330.212 1326.56 330.354 1326.46 330.459C1326.36 330.564 1326.22 330.623 1326.07 330.623Z" fill="#292A2E"/>
<path d="M1213.91 246.918H937.787V343.72H1213.91V246.918Z" fill="white"/>
<path d="M1214.19 344H937.514V246.639H1214.19V344ZM938.059 343.441H1213.64V247.198H938.059V343.441Z" fill="#0C0C0C"/>
<path d="M924.149 276.503L941.195 268.695C941.569 268.524 941.974 268.434 942.385 268.432C942.795 268.43 943.201 268.516 943.577 268.683C943.953 268.851 944.291 269.097 944.57 269.406C944.848 269.716 945.06 270.081 945.194 270.478C945.417 271.221 945.364 272.022 945.045 272.726C944.725 273.431 944.162 273.989 943.464 274.291L939.809 275.968L953.659 276.115C955.199 276.103 957.096 277.1 956.995 278.872C956.999 279.557 956.777 280.223 956.365 280.762C955.953 281.301 955.375 281.68 954.725 281.839C954.729 281.854 954.731 281.869 954.732 281.884C954.73 281.896 954.728 281.907 954.725 281.918L957.1 281.901C957.54 281.898 957.974 281.996 958.372 282.187C958.77 282.378 959.122 282.658 959.401 283.006C959.681 283.354 959.881 283.761 959.988 284.199C960.094 284.636 960.104 285.093 960.017 285.534C959.866 286.228 959.486 286.847 958.943 287.288C958.4 287.729 957.725 287.966 957.032 287.958L956.022 287.965C956.008 287.995 955.99 288.022 955.967 288.046C956.651 288.203 957.258 288.605 957.68 289.18C958.101 289.754 958.31 290.463 958.268 291.181C958.2 291.965 957.847 292.694 957.278 293.222C956.709 293.751 955.967 294.04 955.2 294.032L952.689 294.05C952.725 294.075 952.754 294.109 952.774 294.148C952.795 294.186 952.806 294.23 952.807 294.274C952.805 294.327 952.788 294.378 952.758 294.421C953.329 294.735 953.784 295.232 954.053 295.837C954.321 296.442 954.389 297.12 954.244 297.768C954.079 298.445 953.697 299.045 953.158 299.471C952.619 299.897 951.955 300.124 951.275 300.116L930.095 300.271C927.132 300.292 924.23 299.406 921.762 297.726C919.293 296.045 917.37 293.647 916.239 290.838C915.264 288.416 915.248 285.7 916.195 283.266C917.141 280.832 918.975 278.873 921.308 277.804L924.149 276.503Z" fill="#E98862"/>
<g opacity="0.2">
<path opacity="0.2" d="M941.016 281.761C941.017 281.834 941.046 281.905 941.097 281.956C941.148 282.008 941.217 282.037 941.288 282.037L954.46 282.158C954.532 282.159 954.601 282.13 954.653 282.078C954.705 282.026 954.734 281.955 954.735 281.881C954.735 281.807 954.707 281.735 954.656 281.683C954.606 281.63 954.537 281.6 954.465 281.599L941.293 281.477C941.221 281.477 941.151 281.506 941.1 281.559C941.049 281.611 941.021 281.682 941.021 281.757L941.016 281.761Z" fill="#0C0C0C"/>
</g>
<g opacity="0.2">
<path opacity="0.2" d="M940.802 287.719C940.803 287.793 940.832 287.863 940.883 287.915C940.934 287.966 941.003 287.995 941.075 287.995L955.774 288.131C955.846 288.131 955.915 288.101 955.966 288.049C956.018 287.997 956.046 287.926 956.046 287.851C956.044 287.778 956.014 287.708 955.964 287.657C955.913 287.605 955.845 287.574 955.774 287.572L941.075 287.436C941.039 287.436 941.003 287.443 940.969 287.457C940.936 287.47 940.906 287.491 940.88 287.517C940.855 287.543 940.834 287.574 940.82 287.608C940.806 287.642 940.799 287.679 940.799 287.716L940.802 287.719Z" fill="#0C0C0C"/>
</g>
<g opacity="0.2">
<path opacity="0.2" d="M940.538 294.167C940.539 294.24 940.568 294.31 940.619 294.362C940.67 294.413 940.738 294.442 940.81 294.442L952.536 294.551C952.608 294.551 952.677 294.523 952.729 294.471C952.781 294.419 952.81 294.348 952.811 294.274C952.811 294.2 952.783 294.128 952.732 294.075C952.682 294.022 952.613 293.992 952.54 293.992L940.815 293.883C940.743 293.883 940.673 293.913 940.622 293.965C940.571 294.018 940.543 294.089 940.543 294.163L940.538 294.167Z" fill="#0C0C0C"/>
</g>
<path d="M929.031 307.629L834.527 329.662C831.388 330.012 828.212 329.612 825.249 328.492C822.286 327.372 819.616 325.563 817.449 323.207C815.282 320.852 813.676 318.013 812.759 314.914C811.841 311.815 811.636 308.54 812.16 305.346L822.975 216.13C823.874 210.648 826.86 205.756 831.276 202.532C835.692 199.307 841.176 198.014 846.522 198.937C851.868 199.859 856.637 202.922 859.781 207.451C862.925 211.98 864.186 217.604 863.287 223.087L858.079 286.943L923.737 271.704L929.031 307.629Z" fill="#367CFF"/>
<path d="M844.79 289.452C844.721 289.452 844.656 289.425 844.606 289.377C844.556 289.329 844.525 289.263 844.52 289.193C844.515 289.123 844.536 289.054 844.579 288.999C844.621 288.944 844.682 288.908 844.75 288.897L857.919 286.013C857.954 286.007 857.99 286.008 858.025 286.017C858.06 286.026 858.093 286.041 858.122 286.063C858.151 286.085 858.175 286.113 858.193 286.144C858.212 286.176 858.223 286.211 858.228 286.248C858.239 286.321 858.221 286.395 858.178 286.455C858.135 286.514 858.071 286.554 857.999 286.565L844.831 289.449C844.817 289.451 844.803 289.452 844.79 289.452Z" fill="#0C0C0C"/>
<path d="M837.362 330.064C837.29 330.069 837.219 330.044 837.164 329.995C837.11 329.946 837.077 329.877 837.072 329.802C837.067 329.728 837.091 329.655 837.139 329.599C837.187 329.544 837.254 329.51 837.327 329.505L928.437 307.497L923.274 272.112L858.008 286.562C857.966 286.568 857.923 286.563 857.883 286.549C857.843 286.534 857.806 286.511 857.777 286.48C857.747 286.448 857.725 286.41 857.712 286.368C857.699 286.326 857.696 286.282 857.704 286.239L861.365 249.753C861.37 249.717 861.383 249.682 861.401 249.651C861.42 249.619 861.445 249.592 861.474 249.571C861.504 249.549 861.537 249.534 861.572 249.526C861.607 249.518 861.643 249.517 861.679 249.524C861.75 249.536 861.813 249.577 861.855 249.638C861.897 249.698 861.914 249.773 861.902 249.846L858.305 285.957L923.401 271.496C923.436 271.486 923.473 271.483 923.509 271.488C923.545 271.493 923.58 271.505 923.611 271.524C923.642 271.543 923.67 271.568 923.692 271.598C923.713 271.627 923.729 271.661 923.738 271.698L929.032 307.626C929.049 307.696 929.038 307.771 929.002 307.833C928.966 307.896 928.908 307.942 928.84 307.961L837.398 330.061C837.386 330.063 837.374 330.064 837.362 330.064Z" fill="#0C0C0C"/>
<path d="M1222.43 293.273L1205.38 285.465C1205.01 285.294 1204.6 285.204 1204.19 285.202C1203.78 285.2 1203.37 285.286 1203 285.453C1202.62 285.621 1202.28 285.867 1202.01 286.176C1201.73 286.486 1201.51 286.851 1201.38 287.248C1201.16 287.991 1201.21 288.792 1201.53 289.497C1201.85 290.201 1202.41 290.759 1203.11 291.061L1206.77 292.738L1192.92 292.885C1191.38 292.873 1189.48 293.87 1189.58 295.642C1189.58 296.327 1189.8 296.993 1190.21 297.532C1190.62 298.071 1191.2 298.451 1191.85 298.609C1191.85 298.624 1191.84 298.639 1191.84 298.654C1191.84 298.666 1191.85 298.677 1191.85 298.688L1189.48 298.671C1189.04 298.668 1188.6 298.766 1188.2 298.957C1187.8 299.148 1187.45 299.428 1187.17 299.776C1186.89 300.124 1186.69 300.531 1186.59 300.969C1186.48 301.406 1186.47 301.862 1186.56 302.304C1186.71 302.998 1187.09 303.617 1187.63 304.058C1188.18 304.499 1188.85 304.735 1189.54 304.728L1190.55 304.735C1190.57 304.765 1190.59 304.792 1190.61 304.816C1189.92 304.974 1189.32 305.375 1188.9 305.95C1188.47 306.524 1188.27 307.233 1188.31 307.951C1188.38 308.735 1188.73 309.464 1189.3 309.992C1189.87 310.521 1190.61 310.81 1191.38 310.802L1193.89 310.82C1193.85 310.845 1193.82 310.879 1193.8 310.917C1193.78 310.956 1193.77 311 1193.77 311.044C1193.77 311.097 1193.79 311.148 1193.82 311.191C1193.25 311.505 1192.79 312.002 1192.52 312.607C1192.25 313.212 1192.19 313.89 1192.33 314.538C1192.5 315.215 1192.88 315.815 1193.42 316.241C1193.96 316.667 1194.62 316.894 1195.3 316.886L1216.48 317.041C1219.44 317.062 1222.35 316.176 1224.81 314.495C1227.28 312.814 1229.21 310.415 1230.34 307.606C1231.31 305.185 1231.33 302.468 1230.38 300.034C1229.43 297.601 1227.6 295.641 1225.27 294.572L1222.43 293.273Z" fill="#E98862"/>
<g opacity="0.2">
<path opacity="0.2" d="M1205.56 298.531C1205.56 298.604 1205.53 298.675 1205.48 298.726C1205.43 298.778 1205.36 298.807 1205.29 298.807L1192.11 298.928C1192.08 298.928 1192.04 298.921 1192.01 298.908C1191.98 298.894 1191.95 298.874 1191.92 298.848C1191.89 298.822 1191.87 298.791 1191.86 298.758C1191.85 298.724 1191.84 298.688 1191.84 298.651C1191.84 298.614 1191.85 298.578 1191.86 298.544C1191.87 298.51 1191.89 298.479 1191.92 298.453C1191.94 298.426 1191.97 298.406 1192 298.391C1192.04 298.377 1192.07 298.369 1192.11 298.369L1205.28 298.247C1205.35 298.247 1205.42 298.277 1205.47 298.329C1205.52 298.381 1205.55 298.452 1205.55 298.527L1205.56 298.531Z" fill="#0C0C0C"/>
</g>
<g opacity="0.2">
<path opacity="0.2" d="M1205.77 304.489C1205.77 304.562 1205.74 304.632 1205.69 304.684C1205.64 304.735 1205.58 304.764 1205.5 304.765L1190.8 304.901C1190.73 304.901 1190.66 304.871 1190.61 304.819C1190.56 304.767 1190.53 304.696 1190.53 304.621C1190.53 304.548 1190.56 304.478 1190.61 304.426C1190.67 304.374 1190.73 304.344 1190.8 304.342L1205.5 304.206C1205.58 304.206 1205.65 304.236 1205.7 304.288C1205.75 304.34 1205.78 304.411 1205.78 304.486L1205.77 304.489Z" fill="#0C0C0C"/>
</g>
<g opacity="0.2">
<path opacity="0.2" d="M1206.04 310.937C1206.04 311.01 1206.01 311.08 1205.96 311.132C1205.91 311.183 1205.84 311.212 1205.77 311.212L1194.04 311.321C1194.01 311.321 1193.97 311.314 1193.94 311.3C1193.9 311.287 1193.87 311.266 1193.85 311.241C1193.82 311.215 1193.8 311.184 1193.79 311.151C1193.77 311.117 1193.77 311.08 1193.77 311.044C1193.77 311.007 1193.77 310.971 1193.79 310.937C1193.8 310.903 1193.82 310.872 1193.84 310.845C1193.87 310.819 1193.9 310.798 1193.93 310.784C1193.97 310.77 1194 310.762 1194.04 310.762L1205.76 310.653C1205.83 310.653 1205.9 310.683 1205.95 310.735C1206.01 310.788 1206.03 310.859 1206.03 310.933L1206.04 310.937Z" fill="#0C0C0C"/>
</g>
<path d="M1223 324.399L1312.05 329.662C1315.19 330.013 1318.36 329.612 1321.33 328.492C1324.29 327.372 1326.96 325.564 1329.13 323.208C1331.29 320.852 1332.9 318.013 1333.82 314.914C1334.74 311.815 1334.94 308.54 1334.42 305.346L1323.6 216.128C1323.16 213.413 1322.2 210.815 1320.77 208.482C1319.35 206.149 1317.49 204.126 1315.3 202.529C1313.12 200.933 1310.64 199.794 1308.03 199.177C1305.41 198.56 1302.7 198.477 1300.06 198.934C1297.41 199.391 1294.88 200.378 1292.6 201.839C1290.33 203.299 1288.35 205.206 1286.8 207.448C1285.24 209.691 1284.13 212.226 1283.53 214.908C1282.93 217.591 1282.85 220.369 1283.29 223.084L1288.5 290.853L1223.39 288.471L1223 324.399Z" fill="#367CFF"/>
<path d="M1301.78 290.571C1301.85 290.57 1301.92 290.543 1301.97 290.495C1302.02 290.447 1302.05 290.382 1302.05 290.312C1302.06 290.242 1302.04 290.172 1302 290.117C1301.95 290.062 1301.89 290.026 1301.82 290.015L1288.65 289.926C1288.62 289.92 1288.58 289.921 1288.55 289.93C1288.51 289.939 1288.48 289.954 1288.45 289.976C1288.42 289.998 1288.4 290.026 1288.38 290.057C1288.36 290.089 1288.35 290.124 1288.34 290.161C1288.33 290.234 1288.35 290.309 1288.4 290.368C1288.44 290.428 1288.5 290.467 1288.57 290.478L1301.74 290.567C1301.76 290.569 1301.77 290.57 1301.78 290.571Z" fill="#0C0C0C"/>
<path d="M1309.22 330.064C1309.29 330.069 1309.36 330.044 1309.41 329.995C1309.47 329.946 1309.5 329.876 1309.51 329.802C1309.51 329.728 1309.49 329.655 1309.44 329.599C1309.39 329.544 1309.32 329.51 1309.25 329.505L1223.59 324.269L1223.85 288.885L1288.57 290.478C1288.61 290.483 1288.65 290.478 1288.69 290.464C1288.73 290.45 1288.77 290.426 1288.8 290.395C1288.83 290.363 1288.85 290.325 1288.86 290.283C1288.88 290.242 1288.88 290.197 1288.87 290.154L1285.21 249.756C1285.21 249.719 1285.19 249.684 1285.17 249.653C1285.16 249.622 1285.13 249.595 1285.1 249.573C1285.07 249.552 1285.04 249.537 1285 249.529C1284.97 249.521 1284.93 249.52 1284.9 249.526C1284.86 249.532 1284.83 249.546 1284.8 249.565C1284.77 249.584 1284.74 249.61 1284.72 249.64C1284.7 249.67 1284.68 249.703 1284.68 249.739C1284.67 249.775 1284.67 249.812 1284.67 249.848L1288.27 289.872L1223.72 288.268C1223.69 288.258 1223.65 288.255 1223.61 288.26C1223.58 288.265 1223.54 288.277 1223.51 288.296C1223.48 288.315 1223.45 288.34 1223.43 288.37C1223.41 288.4 1223.39 288.434 1223.39 288.47L1223 324.398C1222.98 324.468 1222.99 324.543 1223.03 324.606C1223.06 324.668 1223.12 324.714 1223.19 324.733L1309.18 330.058C1309.19 330.061 1309.2 330.063 1309.22 330.064Z" fill="#0C0C0C"/>
<path d="M998.915 293.72C998.915 294.94 998.635 296.06 998.075 297.08C997.515 298.08 996.655 298.89 995.495 299.51C994.335 300.13 992.895 300.44 991.175 300.44H987.995V308H982.865V286.94H991.175C992.855 286.94 994.275 287.23 995.435 287.81C996.595 288.39 997.465 289.19 998.045 290.21C998.625 291.23 998.915 292.4 998.915 293.72ZM990.785 296.36C991.765 296.36 992.495 296.13 992.975 295.67C993.455 295.21 993.695 294.56 993.695 293.72C993.695 292.88 993.455 292.23 992.975 291.77C992.495 291.31 991.765 291.08 990.785 291.08H987.995V296.36H990.785ZM1000.23 299.6C1000.23 297.88 1000.55 296.37 1001.19 295.07C1001.85 293.77 1002.74 292.77 1003.86 292.07C1004.98 291.37 1006.23 291.02 1007.61 291.02C1008.79 291.02 1009.82 291.26 1010.7 291.74C1011.6 292.22 1012.29 292.85 1012.77 293.63V291.26H1017.9V308H1012.77V305.63C1012.27 306.41 1011.57 307.04 1010.67 307.52C1009.79 308 1008.76 308.24 1007.58 308.24C1006.22 308.24 1004.98 307.89 1003.86 307.19C1002.74 306.47 1001.85 305.46 1001.19 304.16C1000.55 302.84 1000.23 301.32 1000.23 299.6ZM1012.77 299.63C1012.77 298.35 1012.41 297.34 1011.69 296.6C1010.99 295.86 1010.13 295.49 1009.11 295.49C1008.09 295.49 1007.22 295.86 1006.5 296.6C1005.8 297.32 1005.45 298.32 1005.45 299.6C1005.45 300.88 1005.8 301.9 1006.5 302.66C1007.22 303.4 1008.09 303.77 1009.11 303.77C1010.13 303.77 1010.99 303.4 1011.69 302.66C1012.41 301.92 1012.77 300.91 1012.77 299.63ZM1026.41 294.05C1027.01 293.13 1027.76 292.41 1028.66 291.89C1029.56 291.35 1030.56 291.08 1031.66 291.08V296.51H1030.25C1028.97 296.51 1028.01 296.79 1027.37 297.35C1026.73 297.89 1026.41 298.85 1026.41 300.23V308H1021.28V291.26H1026.41V294.05ZM1043.11 303.65V308H1040.5C1038.64 308 1037.19 307.55 1036.15 306.65C1035.11 305.73 1034.59 304.24 1034.59 302.18V295.52H1032.55V291.26H1034.59V287.18H1039.72V291.26H1043.08V295.52H1039.72V302.24C1039.72 302.74 1039.84 303.1 1040.08 303.32C1040.32 303.54 1040.72 303.65 1041.28 303.65H1043.11ZM1055.83 291.08C1057.79 291.08 1059.35 291.72 1060.51 293C1061.69 294.26 1062.28 296 1062.28 298.22V308H1057.18V298.91C1057.18 297.79 1056.89 296.92 1056.31 296.3C1055.73 295.68 1054.95 295.37 1053.97 295.37C1052.99 295.37 1052.21 295.68 1051.63 296.3C1051.05 296.92 1050.76 297.79 1050.76 298.91V308H1045.63V291.26H1050.76V293.48C1051.28 292.74 1051.98 292.16 1052.86 291.74C1053.74 291.3 1054.73 291.08 1055.83 291.08ZM1081.3 299.36C1081.3 299.84 1081.27 300.34 1081.21 300.86H1069.6C1069.68 301.9 1070.01 302.7 1070.59 303.26C1071.19 303.8 1071.92 304.07 1072.78 304.07C1074.06 304.07 1074.95 303.53 1075.45 302.45H1080.91C1080.63 303.55 1080.12 304.54 1079.38 305.42C1078.66 306.3 1077.75 306.99 1076.65 307.49C1075.55 307.99 1074.32 308.24 1072.96 308.24C1071.32 308.24 1069.86 307.89 1068.58 307.19C1067.3 306.49 1066.3 305.49 1065.58 304.19C1064.86 302.89 1064.5 301.37 1064.5 299.63C1064.5 297.89 1064.85 296.37 1065.55 295.07C1066.27 293.77 1067.27 292.77 1068.55 292.07C1069.83 291.37 1071.3 291.02 1072.96 291.02C1074.58 291.02 1076.02 291.36 1077.28 292.04C1078.54 292.72 1079.52 293.69 1080.22 294.95C1080.94 296.21 1081.3 297.68 1081.3 299.36ZM1076.05 298.01C1076.05 297.13 1075.75 296.43 1075.15 295.91C1074.55 295.39 1073.8 295.13 1072.9 295.13C1072.04 295.13 1071.31 295.38 1070.71 295.88C1070.13 296.38 1069.77 297.09 1069.63 298.01H1076.05ZM1088.8 294.05C1089.4 293.13 1090.15 292.41 1091.05 291.89C1091.95 291.35 1092.95 291.08 1094.05 291.08V296.51H1092.64C1091.36 296.51 1090.4 296.79 1089.76 297.35C1089.12 297.89 1088.8 298.85 1088.8 300.23V308H1083.67V291.26H1088.8V294.05ZM1102.98 308.24C1101.52 308.24 1100.22 307.99 1099.08 307.49C1097.94 306.99 1097.04 306.31 1096.38 305.45C1095.72 304.57 1095.35 303.59 1095.27 302.51H1100.34C1100.4 303.09 1100.67 303.56 1101.15 303.92C1101.63 304.28 1102.22 304.46 1102.92 304.46C1103.56 304.46 1104.05 304.34 1104.39 304.1C1104.75 303.84 1104.93 303.51 1104.93 303.11C1104.93 302.63 1104.68 302.28 1104.18 302.06C1103.68 301.82 1102.87 301.56 1101.75 301.28C1100.55 301 1099.55 300.71 1098.75 300.41C1097.95 300.09 1097.26 299.6 1096.68 298.94C1096.1 298.26 1095.81 297.35 1095.81 296.21C1095.81 295.25 1096.07 294.38 1096.59 293.6C1097.13 292.8 1097.91 292.17 1098.93 291.71C1099.97 291.25 1101.2 291.02 1102.62 291.02C1104.72 291.02 1106.37 291.54 1107.57 292.58C1108.79 293.62 1109.49 295 1109.67 296.72H1104.93C1104.85 296.14 1104.59 295.68 1104.15 295.34C1103.73 295 1103.17 294.83 1102.47 294.83C1101.87 294.83 1101.41 294.95 1101.09 295.19C1100.77 295.41 1100.61 295.72 1100.61 296.12C1100.61 296.6 1100.86 296.96 1101.36 297.2C1101.88 297.44 1102.68 297.68 1103.76 297.92C1105 298.24 1106.01 298.56 1106.79 298.88C1107.57 299.18 1108.25 299.68 1108.83 300.38C1109.43 301.06 1109.74 301.98 1109.76 303.14C1109.76 304.12 1109.48 305 1108.92 305.78C1108.38 306.54 1107.59 307.14 1106.55 307.58C1105.53 308.02 1104.34 308.24 1102.98 308.24ZM1122.85 291.08C1124.77 291.08 1126.31 291.72 1127.47 293C1128.63 294.26 1129.21 296 1129.21 298.22V308H1124.11V298.91C1124.11 297.79 1123.82 296.92 1123.24 296.3C1122.66 295.68 1121.88 295.37 1120.9 295.37C1119.92 295.37 1119.14 295.68 1118.56 296.3C1117.98 296.92 1117.69 297.79 1117.69 298.91V308H1112.56V285.8H1117.69V293.51C1118.21 292.77 1118.92 292.18 1119.82 291.74C1120.72 291.3 1121.73 291.08 1122.85 291.08ZM1135.02 289.52C1134.12 289.52 1133.38 289.26 1132.8 288.74C1132.24 288.2 1131.96 287.54 1131.96 286.76C1131.96 285.96 1132.24 285.3 1132.8 284.78C1133.38 284.24 1134.12 283.97 1135.02 283.97C1135.9 283.97 1136.62 284.24 1137.18 284.78C1137.76 285.3 1138.05 285.96 1138.05 286.76C1138.05 287.54 1137.76 288.2 1137.18 288.74C1136.62 289.26 1135.9 289.52 1135.02 289.52ZM1137.57 291.26V308H1132.44V291.26H1137.57ZM1146.09 293.63C1146.59 292.85 1147.28 292.22 1148.16 291.74C1149.04 291.26 1150.07 291.02 1151.25 291.02C1152.63 291.02 1153.88 291.37 1155 292.07C1156.12 292.77 1157 293.77 1157.64 295.07C1158.3 296.37 1158.63 297.88 1158.63 299.6C1158.63 301.32 1158.3 302.84 1157.64 304.16C1157 305.46 1156.12 306.47 1155 307.19C1153.88 307.89 1152.63 308.24 1151.25 308.24C1150.09 308.24 1149.06 308 1148.16 307.52C1147.28 307.04 1146.59 306.42 1146.09 305.66V315.98H1140.96V291.26H1146.09V293.63ZM1153.41 299.6C1153.41 298.32 1153.05 297.32 1152.33 296.6C1151.63 295.86 1150.76 295.49 1149.72 295.49C1148.7 295.49 1147.83 295.86 1147.11 296.6C1146.41 297.34 1146.06 298.35 1146.06 299.63C1146.06 300.91 1146.41 301.92 1147.11 302.66C1147.83 303.4 1148.7 303.77 1149.72 303.77C1150.74 303.77 1151.61 303.4 1152.33 302.66C1153.05 301.9 1153.41 300.88 1153.41 299.6Z" fill="#0E185F"/>
<path d="M71.7935 173.08L62.3535 191.28V201H56.7535V191.28L47.2735 173.08H53.5935L59.5935 185.84L65.5535 173.08H71.7935ZM95.6098 178.84V201H89.9699V198.2C89.2499 199.16 88.3032 199.92 87.1299 200.48C85.9832 201.013 84.7299 201.28 83.3699 201.28C81.6365 201.28 80.1032 200.92 78.7698 200.2C77.4365 199.453 76.3832 198.373 75.6098 196.96C74.8632 195.52 74.4898 193.813 74.4898 191.84V178.84H80.0899V191.04C80.0899 192.8 80.5299 194.16 81.4099 195.12C82.2899 196.053 83.4899 196.52 85.0099 196.52C86.5565 196.52 87.7699 196.053 88.6499 195.12C89.5299 194.16 89.9699 192.8 89.9699 191.04V178.84H95.6098ZM113.922 201L106.402 191.56V201H100.802V171.4H106.402V188.24L113.842 178.84H121.122L111.362 189.96L121.202 201H113.922ZM146.146 201L138.626 191.56V201H133.026V171.4H138.626V188.24L146.066 178.84H153.346L143.586 189.96L153.426 201H146.146ZM165.892 201.36C163.758 201.36 161.838 200.893 160.132 199.96C158.425 199 157.078 197.653 156.092 195.92C155.132 194.187 154.652 192.187 154.652 189.92C154.652 187.653 155.145 185.653 156.132 183.92C157.145 182.187 158.518 180.853 160.252 179.92C161.985 178.96 163.918 178.48 166.052 178.48C168.185 178.48 170.118 178.96 171.852 179.92C173.585 180.853 174.945 182.187 175.932 183.92C176.945 185.653 177.452 187.653 177.452 189.92C177.452 192.187 176.932 194.187 175.892 195.92C174.878 197.653 173.492 199 171.732 199.96C169.998 200.893 168.052 201.36 165.892 201.36ZM165.892 196.48C166.905 196.48 167.852 196.24 168.732 195.76C169.638 195.253 170.358 194.507 170.892 193.52C171.425 192.533 171.692 191.333 171.692 189.92C171.692 187.813 171.132 186.2 170.012 185.08C168.918 183.933 167.572 183.36 165.972 183.36C164.372 183.36 163.025 183.933 161.932 185.08C160.865 186.2 160.332 187.813 160.332 189.92C160.332 192.027 160.852 193.653 161.892 194.8C162.958 195.92 164.292 196.48 165.892 196.48ZM186.826 171.4V201H181.226V171.4H186.826ZM190.586 189.84C190.586 187.6 191.026 185.613 191.906 183.88C192.812 182.147 194.026 180.813 195.546 179.88C197.092 178.947 198.812 178.48 200.706 178.48C202.359 178.48 203.799 178.813 205.026 179.48C206.279 180.147 207.279 180.987 208.026 182V178.84H213.666V201H208.026V197.76C207.306 198.8 206.306 199.667 205.026 200.36C203.772 201.027 202.319 201.36 200.666 201.36C198.799 201.36 197.092 200.88 195.546 199.92C194.026 198.96 192.812 197.613 191.906 195.88C191.026 194.12 190.586 192.107 190.586 189.84ZM208.026 189.92C208.026 188.56 207.759 187.4 207.226 186.44C206.692 185.453 205.972 184.707 205.066 184.2C204.159 183.667 203.186 183.4 202.146 183.4C201.106 183.4 200.146 183.653 199.266 184.16C198.386 184.667 197.666 185.413 197.106 186.4C196.572 187.36 196.306 188.507 196.306 189.84C196.306 191.173 196.572 192.347 197.106 193.36C197.666 194.347 198.386 195.107 199.266 195.64C200.172 196.173 201.132 196.44 202.146 196.44C203.186 196.44 204.159 196.187 205.066 195.68C205.972 195.147 206.692 194.4 207.226 193.44C207.759 192.453 208.026 191.28 208.026 189.92ZM224.402 182.08C225.122 181.013 226.108 180.147 227.362 179.48C228.642 178.813 230.095 178.48 231.722 178.48C233.615 178.48 235.322 178.947 236.842 179.88C238.388 180.813 239.602 182.147 240.482 183.88C241.388 185.587 241.842 187.573 241.842 189.84C241.842 192.107 241.388 194.12 240.482 195.88C239.602 197.613 238.388 198.96 236.842 199.92C235.322 200.88 233.615 201.36 231.722 201.36C230.068 201.36 228.615 201.04 227.362 200.4C226.135 199.733 225.148 198.88 224.402 197.84V201H218.802V171.4H224.402V182.08ZM236.122 189.84C236.122 188.507 235.842 187.36 235.282 186.4C234.748 185.413 234.028 184.667 233.122 184.16C232.242 183.653 231.282 183.4 230.242 183.4C229.228 183.4 228.268 183.667 227.362 184.2C226.482 184.707 225.762 185.453 225.202 186.44C224.668 187.427 224.402 188.587 224.402 189.92C224.402 191.253 224.668 192.413 225.202 193.4C225.762 194.387 226.482 195.147 227.362 195.68C228.268 196.187 229.228 196.44 230.242 196.44C231.282 196.44 232.242 196.173 233.122 195.64C234.028 195.107 234.748 194.347 235.282 193.36C235.842 192.373 236.122 191.2 236.122 189.84ZM255.418 201.36C253.285 201.36 251.365 200.893 249.658 199.96C247.951 199 246.605 197.653 245.618 195.92C244.658 194.187 244.178 192.187 244.178 189.92C244.178 187.653 244.671 185.653 245.658 183.92C246.671 182.187 248.045 180.853 249.778 179.92C251.511 178.96 253.445 178.48 255.578 178.48C257.711 178.48 259.645 178.96 261.378 179.92C263.111 180.853 264.471 182.187 265.458 183.92C266.471 185.653 266.978 187.653 266.978 189.92C266.978 192.187 266.458 194.187 265.418 195.92C264.405 197.653 263.018 199 261.258 199.96C259.525 200.893 257.578 201.36 255.418 201.36ZM255.418 196.48C256.431 196.48 257.378 196.24 258.258 195.76C259.165 195.253 259.885 194.507 260.418 193.52C260.951 192.533 261.218 191.333 261.218 189.92C261.218 187.813 260.658 186.2 259.538 185.08C258.445 183.933 257.098 183.36 255.498 183.36C253.898 183.36 252.551 183.933 251.458 185.08C250.391 186.2 249.858 187.813 249.858 189.92C249.858 192.027 250.378 193.653 251.418 194.8C252.485 195.92 253.818 196.48 255.418 196.48ZM276.352 182.28C277.072 181.107 278.006 180.187 279.152 179.52C280.326 178.853 281.659 178.52 283.152 178.52V184.4H281.672C279.912 184.4 278.579 184.813 277.672 185.64C276.792 186.467 276.352 187.907 276.352 189.96V201H270.752V178.84H276.352V182.28ZM285.151 189.84C285.151 187.6 285.591 185.613 286.471 183.88C287.378 182.147 288.591 180.813 290.111 179.88C291.658 178.947 293.378 178.48 295.271 178.48C296.924 178.48 298.364 178.813 299.591 179.48C300.844 180.147 301.844 180.987 302.591 182V178.84H308.231V201H302.591V197.76C301.871 198.8 300.871 199.667 299.591 200.36C298.338 201.027 296.884 201.36 295.231 201.36C293.364 201.36 291.658 200.88 290.111 199.92C288.591 198.96 287.378 197.613 286.471 195.88C285.591 194.12 285.151 192.107 285.151 189.84ZM302.591 189.92C302.591 188.56 302.324 187.4 301.791 186.44C301.258 185.453 300.538 184.707 299.631 184.2C298.724 183.667 297.751 183.4 296.711 183.4C295.671 183.4 294.711 183.653 293.831 184.16C292.951 184.667 292.231 185.413 291.671 186.4C291.138 187.36 290.871 188.507 290.871 189.84C290.871 191.173 291.138 192.347 291.671 193.36C292.231 194.347 292.951 195.107 293.831 195.64C294.738 196.173 295.698 196.44 296.711 196.44C297.751 196.44 298.724 196.187 299.631 195.68C300.538 195.147 301.258 194.4 301.791 193.44C302.324 192.453 302.591 191.28 302.591 189.92ZM321.847 201.36C320.034 201.36 318.407 201.04 316.967 200.4C315.527 199.733 314.38 198.84 313.527 197.72C312.7 196.6 312.247 195.36 312.167 194H317.807C317.914 194.853 318.327 195.56 319.047 196.12C319.794 196.68 320.714 196.96 321.807 196.96C322.874 196.96 323.7 196.747 324.287 196.32C324.9 195.893 325.207 195.347 325.207 194.68C325.207 193.96 324.834 193.427 324.087 193.08C323.367 192.707 322.207 192.307 320.607 191.88C318.954 191.48 317.594 191.067 316.527 190.64C315.487 190.213 314.58 189.56 313.807 188.68C313.06 187.8 312.687 186.613 312.687 185.12C312.687 183.893 313.034 182.773 313.727 181.76C314.447 180.747 315.46 179.947 316.767 179.36C318.1 178.773 319.66 178.48 321.447 178.48C324.087 178.48 326.194 179.147 327.767 180.48C329.34 181.787 330.207 183.56 330.367 185.8H325.007C324.927 184.92 324.554 184.227 323.887 183.72C323.247 183.187 322.38 182.92 321.287 182.92C320.274 182.92 319.487 183.107 318.927 183.48C318.394 183.853 318.127 184.373 318.127 185.04C318.127 185.787 318.5 186.36 319.247 186.76C319.994 187.133 321.154 187.52 322.727 187.92C324.327 188.32 325.647 188.733 326.687 189.16C327.727 189.587 328.62 190.253 329.367 191.16C330.14 192.04 330.54 193.213 330.567 194.68C330.567 195.96 330.207 197.107 329.487 198.12C328.794 199.133 327.78 199.933 326.447 200.52C325.14 201.08 323.607 201.36 321.847 201.36ZM337.67 176.2C336.684 176.2 335.857 175.893 335.19 175.28C334.55 174.64 334.23 173.853 334.23 172.92C334.23 171.987 334.55 171.213 335.19 170.6C335.857 169.96 336.684 169.64 337.67 169.64C338.657 169.64 339.47 169.96 340.11 170.6C340.777 171.213 341.11 171.987 341.11 172.92C341.11 173.853 340.777 174.64 340.11 175.28C339.47 175.893 338.657 176.2 337.67 176.2ZM340.43 178.84V201H334.83V178.84H340.43ZM360.428 182.08C361.148 181.013 362.135 180.147 363.388 179.48C364.668 178.813 366.121 178.48 367.748 178.48C369.641 178.48 371.348 178.947 372.868 179.88C374.415 180.813 375.628 182.147 376.508 183.88C377.415 185.587 377.868 187.573 377.868 189.84C377.868 192.107 377.415 194.12 376.508 195.88C375.628 197.613 374.415 198.96 372.868 199.92C371.348 200.88 369.641 201.36 367.748 201.36C366.095 201.36 364.641 201.04 363.388 200.4C362.161 199.733 361.175 198.88 360.428 197.84V201H354.828V171.4H360.428V182.08ZM372.148 189.84C372.148 188.507 371.868 187.36 371.308 186.4C370.775 185.413 370.055 184.667 369.148 184.16C368.268 183.653 367.308 183.4 366.268 183.4C365.255 183.4 364.295 183.667 363.388 184.2C362.508 184.707 361.788 185.453 361.228 186.44C360.695 187.427 360.428 188.587 360.428 189.92C360.428 191.253 360.695 192.413 361.228 193.4C361.788 194.387 362.508 195.147 363.388 195.68C364.295 196.187 365.255 196.44 366.268 196.44C367.308 196.44 368.268 196.173 369.148 195.64C370.055 195.107 370.775 194.347 371.308 193.36C371.868 192.373 372.148 191.2 372.148 189.84ZM380.164 189.84C380.164 187.6 380.604 185.613 381.484 183.88C382.391 182.147 383.604 180.813 385.124 179.88C386.671 178.947 388.391 178.48 390.284 178.48C391.937 178.48 393.377 178.813 394.604 179.48C395.857 180.147 396.857 180.987 397.604 182V178.84H403.244V201H397.604V197.76C396.884 198.8 395.884 199.667 394.604 200.36C393.351 201.027 391.897 201.36 390.244 201.36C388.377 201.36 386.671 200.88 385.124 199.92C383.604 198.96 382.391 197.613 381.484 195.88C380.604 194.12 380.164 192.107 380.164 189.84ZM397.604 189.92C397.604 188.56 397.337 187.4 396.804 186.44C396.271 185.453 395.551 184.707 394.644 184.2C393.737 183.667 392.764 183.4 391.724 183.4C390.684 183.4 389.724 183.653 388.844 184.16C387.964 184.667 387.244 185.413 386.684 186.4C386.151 187.36 385.884 188.507 385.884 189.84C385.884 191.173 386.151 192.347 386.684 193.36C387.244 194.347 387.964 195.107 388.844 195.64C389.751 196.173 390.711 196.44 391.724 196.44C392.764 196.44 393.737 196.187 394.644 195.68C395.551 195.147 396.271 194.4 396.804 193.44C397.337 192.453 397.604 191.28 397.604 189.92ZM413.98 182.28C414.7 181.107 415.633 180.187 416.78 179.52C417.953 178.853 419.287 178.52 420.78 178.52V184.4H419.3C417.54 184.4 416.207 184.813 415.3 185.64C414.42 186.467 413.98 187.907 413.98 189.96V201H408.38V178.84H413.98V182.28ZM444.818 189.44C444.818 190.24 444.765 190.96 444.658 191.6H428.458C428.592 193.2 429.152 194.453 430.138 195.36C431.125 196.267 432.338 196.72 433.778 196.72C435.858 196.72 437.338 195.827 438.218 194.04H444.258C443.618 196.173 442.392 197.933 440.578 199.32C438.765 200.68 436.538 201.36 433.898 201.36C431.765 201.36 429.845 200.893 428.138 199.96C426.458 199 425.138 197.653 424.178 195.92C423.245 194.187 422.778 192.187 422.778 189.92C422.778 187.627 423.245 185.613 424.178 183.88C425.112 182.147 426.418 180.813 428.098 179.88C429.778 178.947 431.712 178.48 433.898 178.48C436.005 178.48 437.885 178.933 439.538 179.84C441.218 180.747 442.512 182.04 443.418 183.72C444.352 185.373 444.818 187.28 444.818 189.44ZM439.018 187.84C438.992 186.4 438.472 185.253 437.458 184.4C436.445 183.52 435.205 183.08 433.738 183.08C432.352 183.08 431.178 183.507 430.218 184.36C429.285 185.187 428.712 186.347 428.498 187.84H439.018ZM460.853 178.52C463.493 178.52 465.626 179.36 467.253 181.04C468.879 182.693 469.693 185.013 469.693 188V201H464.093V188.76C464.093 187 463.653 185.653 462.773 184.72C461.893 183.76 460.693 183.28 459.173 183.28C457.626 183.28 456.399 183.76 455.493 184.72C454.613 185.653 454.173 187 454.173 188.76V201H448.573V178.84H454.173V181.6C454.919 180.64 455.866 179.893 457.013 179.36C458.186 178.8 459.466 178.52 460.853 178.52ZM483.365 178.48C485.018 178.48 486.471 178.813 487.725 179.48C488.978 180.12 489.965 180.96 490.685 182V178.84H496.325V201.16C496.325 203.213 495.911 205.04 495.085 206.64C494.258 208.267 493.018 209.547 491.365 210.48C489.711 211.44 487.711 211.92 485.365 211.92C482.218 211.92 479.631 211.187 477.605 209.72C475.605 208.253 474.471 206.253 474.205 203.72H479.765C480.058 204.733 480.685 205.533 481.645 206.12C482.631 206.733 483.818 207.04 485.205 207.04C486.831 207.04 488.151 206.547 489.165 205.56C490.178 204.6 490.685 203.133 490.685 201.16V197.72C489.965 198.76 488.965 199.627 487.685 200.32C486.431 201.013 484.991 201.36 483.365 201.36C481.498 201.36 479.791 200.88 478.245 199.92C476.698 198.96 475.471 197.613 474.565 195.88C473.685 194.12 473.245 192.107 473.245 189.84C473.245 187.6 473.685 185.613 474.565 183.88C475.471 182.147 476.685 180.813 478.205 179.88C479.751 178.947 481.471 178.48 483.365 178.48ZM490.685 189.92C490.685 188.56 490.418 187.4 489.885 186.44C489.351 185.453 488.631 184.707 487.725 184.2C486.818 183.667 485.845 183.4 484.805 183.4C483.765 183.4 482.805 183.653 481.925 184.16C481.045 184.667 480.325 185.413 479.765 186.4C479.231 187.36 478.965 188.507 478.965 189.84C478.965 191.173 479.231 192.347 479.765 193.36C480.325 194.347 481.045 195.107 481.925 195.64C482.831 196.173 483.791 196.44 484.805 196.44C485.845 196.44 486.818 196.187 487.725 195.68C488.631 195.147 489.351 194.4 489.885 193.44C490.418 192.453 490.685 191.28 490.685 189.92ZM541.099 173.08V201H535.499V182.84L528.019 201H523.779L516.259 182.84V201H510.659V173.08H517.019L525.899 193.84L534.779 173.08H541.099ZM567.222 178.84V201H561.582V198.2C560.862 199.16 559.915 199.92 558.742 200.48C557.595 201.013 556.342 201.28 554.982 201.28C553.249 201.28 551.715 200.92 550.382 200.2C549.049 199.453 547.995 198.373 547.222 196.96C546.475 195.52 546.102 193.813 546.102 191.84V178.84H551.702V191.04C551.702 192.8 552.142 194.16 553.022 195.12C553.902 196.053 555.102 196.52 556.622 196.52C558.169 196.52 559.382 196.053 560.262 195.12C561.142 194.16 561.582 192.8 561.582 191.04V178.84H567.222ZM570.974 189.84C570.974 187.6 571.414 185.613 572.294 183.88C573.2 182.147 574.427 180.813 575.974 179.88C577.52 178.947 579.24 178.48 581.134 178.48C582.574 178.48 583.947 178.8 585.254 179.44C586.56 180.053 587.6 180.88 588.374 181.92V171.4H594.054V201H588.374V197.72C587.68 198.813 586.707 199.693 585.454 200.36C584.2 201.027 582.747 201.36 581.094 201.36C579.227 201.36 577.52 200.88 575.974 199.92C574.427 198.96 573.2 197.613 572.294 195.88C571.414 194.12 570.974 192.107 570.974 189.84ZM588.414 189.92C588.414 188.56 588.147 187.4 587.614 186.44C587.08 185.453 586.36 184.707 585.454 184.2C584.547 183.667 583.574 183.4 582.534 183.4C581.494 183.4 580.534 183.653 579.654 184.16C578.774 184.667 578.054 185.413 577.494 186.4C576.96 187.36 576.694 188.507 576.694 189.84C576.694 191.173 576.96 192.347 577.494 193.36C578.054 194.347 578.774 195.107 579.654 195.64C580.56 196.173 581.52 196.44 582.534 196.44C583.574 196.44 584.547 196.187 585.454 195.68C586.36 195.147 587.08 194.4 587.614 193.44C588.147 192.453 588.414 191.28 588.414 189.92ZM597.75 189.84C597.75 187.6 598.19 185.613 599.07 183.88C599.977 182.147 601.19 180.813 602.71 179.88C604.257 178.947 605.977 178.48 607.87 178.48C609.523 178.48 610.963 178.813 612.19 179.48C613.443 180.147 614.443 180.987 615.19 182V178.84H620.83V201H615.19V197.76C614.47 198.8 613.47 199.667 612.19 200.36C610.937 201.027 609.483 201.36 607.83 201.36C605.963 201.36 604.257 200.88 602.71 199.92C601.19 198.96 599.977 197.613 599.07 195.88C598.19 194.12 597.75 192.107 597.75 189.84ZM615.19 189.92C615.19 188.56 614.923 187.4 614.39 186.44C613.857 185.453 613.137 184.707 612.23 184.2C611.323 183.667 610.35 183.4 609.31 183.4C608.27 183.4 607.31 183.653 606.43 184.16C605.55 184.667 604.83 185.413 604.27 186.4C603.737 187.36 603.47 188.507 603.47 189.84C603.47 191.173 603.737 192.347 604.27 193.36C604.83 194.347 605.55 195.107 606.43 195.64C607.337 196.173 608.297 196.44 609.31 196.44C610.35 196.44 611.323 196.187 612.23 195.68C613.137 195.147 613.857 194.4 614.39 193.44C614.923 192.453 615.19 191.28 615.19 189.92ZM656.406 173.08V201H650.806V182.84L643.326 201H639.086L631.566 182.84V201H625.966V173.08H632.326L641.206 193.84L650.086 173.08H656.406ZM682.529 178.84V201H676.889V198.2C676.169 199.16 675.222 199.92 674.049 200.48C672.902 201.013 671.649 201.28 670.289 201.28C668.556 201.28 667.022 200.92 665.689 200.2C664.356 199.453 663.302 198.373 662.529 196.96C661.782 195.52 661.409 193.813 661.409 191.84V178.84H667.009V191.04C667.009 192.8 667.449 194.16 668.329 195.12C669.209 196.053 670.409 196.52 671.929 196.52C673.476 196.52 674.689 196.053 675.569 195.12C676.449 194.16 676.889 192.8 676.889 191.04V178.84H682.529ZM686.281 189.84C686.281 187.6 686.721 185.613 687.601 183.88C688.508 182.147 689.734 180.813 691.281 179.88C692.828 178.947 694.548 178.48 696.441 178.48C697.881 178.48 699.254 178.8 700.561 179.44C701.868 180.053 702.908 180.88 703.681 181.92V171.4H709.361V201H703.681V197.72C702.988 198.813 702.014 199.693 700.761 200.36C699.508 201.027 698.054 201.36 696.401 201.36C694.534 201.36 692.828 200.88 691.281 199.92C689.734 198.96 688.508 197.613 687.601 195.88C686.721 194.12 686.281 192.107 686.281 189.84ZM703.721 189.92C703.721 188.56 703.454 187.4 702.921 186.44C702.388 185.453 701.668 184.707 700.761 184.2C699.854 183.667 698.881 183.4 697.841 183.4C696.801 183.4 695.841 183.653 694.961 184.16C694.081 184.667 693.361 185.413 692.801 186.4C692.268 187.36 692.001 188.507 692.001 189.84C692.001 191.173 692.268 192.347 692.801 193.36C693.361 194.347 694.081 195.107 694.961 195.64C695.868 196.173 696.828 196.44 697.841 196.44C698.881 196.44 699.854 196.187 700.761 195.68C701.668 195.147 702.388 194.4 702.921 193.44C703.454 192.453 703.721 191.28 703.721 189.92ZM735.097 189.44C735.097 190.24 735.044 190.96 734.937 191.6H718.737C718.87 193.2 719.43 194.453 720.417 195.36C721.404 196.267 722.617 196.72 724.057 196.72C726.137 196.72 727.617 195.827 728.497 194.04H734.537C733.897 196.173 732.67 197.933 730.857 199.32C729.044 200.68 726.817 201.36 724.177 201.36C722.044 201.36 720.124 200.893 718.417 199.96C716.737 199 715.417 197.653 714.457 195.92C713.524 194.187 713.057 192.187 713.057 189.92C713.057 187.627 713.524 185.613 714.457 183.88C715.39 182.147 716.697 180.813 718.377 179.88C720.057 178.947 721.99 178.48 724.177 178.48C726.284 178.48 728.164 178.933 729.817 179.84C731.497 180.747 732.79 182.04 733.697 183.72C734.63 185.373 735.097 187.28 735.097 189.44ZM729.297 187.84C729.27 186.4 728.75 185.253 727.737 184.4C726.724 183.52 725.484 183.08 724.017 183.08C722.63 183.08 721.457 183.507 720.497 184.36C719.564 185.187 718.99 186.347 718.777 187.84H729.297ZM746.091 172.6L745.451 191.92H740.731L740.051 172.6H746.091ZM743.211 201.28C742.198 201.28 741.358 200.973 740.691 200.36C740.051 199.72 739.731 198.933 739.731 198C739.731 197.067 740.051 196.293 740.691 195.68C741.358 195.04 742.198 194.72 743.211 194.72C744.198 194.72 745.011 195.04 745.651 195.68C746.291 196.293 746.611 197.067 746.611 198C746.611 198.933 746.291 199.72 745.651 200.36C745.011 200.973 744.198 201.28 743.211 201.28ZM65.3835 225C66.4668 225 67.4335 225.225 68.2835 225.675C69.1502 226.125 69.8252 226.792 70.3085 227.675C70.8085 228.558 71.0585 229.625 71.0585 230.875V239H68.2335V231.3C68.2335 230.067 67.9252 229.125 67.3085 228.475C66.6918 227.808 65.8502 227.475 64.7835 227.475C63.7168 227.475 62.8668 227.808 62.2335 228.475C61.6168 229.125 61.3085 230.067 61.3085 231.3V239H58.4835V231.3C58.4835 230.067 58.1752 229.125 57.5585 228.475C56.9418 227.808 56.1002 227.475 55.0335 227.475C53.9668 227.475 53.1168 227.808 52.4835 228.475C51.8668 229.125 51.5585 230.067 51.5585 231.3V239H48.7085V225.225H51.5585V226.8C52.0252 226.233 52.6168 225.792 53.3335 225.475C54.0502 225.158 54.8168 225 55.6335 225C56.7335 225 57.7168 225.233 58.5835 225.7C59.4502 226.167 60.1168 226.842 60.5835 227.725C61.0002 226.892 61.6502 226.233 62.5335 225.75C63.4168 225.25 64.3668 225 65.3835 225ZM86.8267 225.225V239H83.9767V237.375C83.5267 237.942 82.9351 238.392 82.2017 238.725C81.4851 239.042 80.7184 239.2 79.9017 239.2C78.8184 239.2 77.8434 238.975 76.9767 238.525C76.1267 238.075 75.4517 237.408 74.9517 236.525C74.4684 235.642 74.2267 234.575 74.2267 233.325V225.225H77.0517V232.9C77.0517 234.133 77.3601 235.083 77.9767 235.75C78.5934 236.4 79.4351 236.725 80.5017 236.725C81.5684 236.725 82.4101 236.4 83.0267 235.75C83.6601 235.083 83.9767 234.133 83.9767 232.9V225.225H86.8267ZM89.3037 232.05C89.3037 230.667 89.5871 229.442 90.1537 228.375C90.7371 227.308 91.5204 226.483 92.5037 225.9C93.5037 225.3 94.6121 225 95.8287 225C96.7287 225 97.6121 225.2 98.4787 225.6C99.3621 225.983 100.062 226.5 100.579 227.15V220.5H103.454V239H100.579V236.925C100.112 237.592 99.4621 238.142 98.6287 238.575C97.8121 239.008 96.8704 239.225 95.8037 239.225C94.6037 239.225 93.5037 238.925 92.5037 238.325C91.5204 237.708 90.7371 236.858 90.1537 235.775C89.5871 234.675 89.3037 233.433 89.3037 232.05ZM100.579 232.1C100.579 231.15 100.379 230.325 99.9787 229.625C99.5954 228.925 99.0871 228.392 98.4537 228.025C97.8204 227.658 97.1371 227.475 96.4037 227.475C95.6704 227.475 94.9871 227.658 94.3537 228.025C93.7204 228.375 93.2037 228.9 92.8037 229.6C92.4204 230.283 92.2287 231.1 92.2287 232.05C92.2287 233 92.4204 233.833 92.8037 234.55C93.2037 235.267 93.7204 235.817 94.3537 236.2C95.0037 236.567 95.6871 236.75 96.4037 236.75C97.1371 236.75 97.8204 236.567 98.4537 236.2C99.0871 235.833 99.5954 235.3 99.9787 234.6C100.379 233.883 100.579 233.05 100.579 232.1ZM105.914 232.05C105.914 230.667 106.197 229.442 106.764 228.375C107.347 227.308 108.13 226.483 109.114 225.9C110.114 225.3 111.214 225 112.414 225C113.497 225 114.439 225.217 115.239 225.65C116.055 226.067 116.705 226.592 117.189 227.225V225.225H120.064V239H117.189V236.95C116.705 237.6 116.047 238.142 115.214 238.575C114.38 239.008 113.43 239.225 112.364 239.225C111.18 239.225 110.097 238.925 109.114 238.325C108.13 237.708 107.347 236.858 106.764 235.775C106.197 234.675 105.914 233.433 105.914 232.05ZM117.189 232.1C117.189 231.15 116.989 230.325 116.589 229.625C116.205 228.925 115.697 228.392 115.064 228.025C114.43 227.658 113.747 227.475 113.014 227.475C112.28 227.475 111.597 227.658 110.964 228.025C110.33 228.375 109.814 228.9 109.414 229.6C109.03 230.283 108.839 231.1 108.839 232.05C108.839 233 109.03 233.833 109.414 234.55C109.814 235.267 110.33 235.817 110.964 236.2C111.614 236.567 112.297 236.75 113.014 236.75C113.747 236.75 114.43 236.567 115.064 236.2C115.697 235.833 116.205 235.3 116.589 234.6C116.989 233.883 117.189 233.05 117.189 232.1ZM140.149 225C141.232 225 142.199 225.225 143.049 225.675C143.915 226.125 144.59 226.792 145.074 227.675C145.574 228.558 145.824 229.625 145.824 230.875V239H142.999V231.3C142.999 230.067 142.69 229.125 142.074 228.475C141.457 227.808 140.615 227.475 139.549 227.475C138.482 227.475 137.632 227.808 136.999 228.475C136.382 229.125 136.074 230.067 136.074 231.3V239H133.249V231.3C133.249 230.067 132.94 229.125 132.324 228.475C131.707 227.808 130.865 227.475 129.799 227.475C128.732 227.475 127.882 227.808 127.249 228.475C126.632 229.125 126.324 230.067 126.324 231.3V239H123.474V225.225H126.324V226.8C126.79 226.233 127.382 225.792 128.099 225.475C128.815 225.158 129.582 225 130.399 225C131.499 225 132.482 225.233 133.349 225.7C134.215 226.167 134.882 226.842 135.349 227.725C135.765 226.892 136.415 226.233 137.299 225.75C138.182 225.25 139.132 225 140.149 225ZM161.592 225.225V239H158.742V237.375C158.292 237.942 157.7 238.392 156.967 238.725C156.25 239.042 155.484 239.2 154.667 239.2C153.584 239.2 152.609 238.975 151.742 238.525C150.892 238.075 150.217 237.408 149.717 236.525C149.234 235.642 148.992 234.575 148.992 233.325V225.225H151.817V232.9C151.817 234.133 152.125 235.083 152.742 235.75C153.359 236.4 154.2 236.725 155.267 236.725C156.334 236.725 157.175 236.4 157.792 235.75C158.425 235.083 158.742 234.133 158.742 232.9V225.225H161.592ZM164.069 232.05C164.069 230.667 164.352 229.442 164.919 228.375C165.502 227.308 166.286 226.483 167.269 225.9C168.269 225.3 169.377 225 170.594 225C171.494 225 172.377 225.2 173.244 225.6C174.127 225.983 174.827 226.5 175.344 227.15V220.5H178.219V239H175.344V236.925C174.877 237.592 174.227 238.142 173.394 238.575C172.577 239.008 171.636 239.225 170.569 239.225C169.369 239.225 168.269 238.925 167.269 238.325C166.286 237.708 165.502 236.858 164.919 235.775C164.352 234.675 164.069 233.433 164.069 232.05ZM175.344 232.1C175.344 231.15 175.144 230.325 174.744 229.625C174.361 228.925 173.852 228.392 173.219 228.025C172.586 227.658 171.902 227.475 171.169 227.475C170.436 227.475 169.752 227.658 169.119 228.025C168.486 228.375 167.969 228.9 167.569 229.6C167.186 230.283 166.994 231.1 166.994 232.05C166.994 233 167.186 233.833 167.569 234.55C167.969 235.267 168.486 235.817 169.119 236.2C169.769 236.567 170.452 236.75 171.169 236.75C171.902 236.75 172.586 236.567 173.219 236.2C173.852 235.833 174.361 235.3 174.744 234.6C175.144 233.883 175.344 233.05 175.344 232.1ZM194.254 231.775C194.254 232.292 194.221 232.758 194.154 233.175H183.629C183.712 234.275 184.121 235.158 184.854 235.825C185.587 236.492 186.487 236.825 187.554 236.825C189.087 236.825 190.171 236.183 190.804 234.9H193.879C193.462 236.167 192.704 237.208 191.604 238.025C190.521 238.825 189.171 239.225 187.554 239.225C186.237 239.225 185.054 238.933 184.004 238.35C182.971 237.75 182.154 236.917 181.554 235.85C180.971 234.767 180.679 233.517 180.679 232.1C180.679 230.683 180.962 229.442 181.529 228.375C182.112 227.292 182.921 226.458 183.954 225.875C185.004 225.292 186.204 225 187.554 225C188.854 225 190.012 225.283 191.029 225.85C192.046 226.417 192.837 227.217 193.404 228.25C193.971 229.267 194.254 230.442 194.254 231.775ZM191.279 230.875C191.262 229.825 190.887 228.983 190.154 228.35C189.421 227.717 188.512 227.4 187.429 227.4C186.446 227.4 185.604 227.717 184.904 228.35C184.204 228.967 183.787 229.808 183.654 230.875H191.279ZM209.55 222.85C211.45 222.85 213.092 223.2 214.475 223.9C215.859 224.6 216.909 225.583 217.625 226.85C218.359 228.1 218.725 229.558 218.725 231.225C218.725 232.558 218.492 233.833 218.025 235.05C217.575 236.267 216.917 237.258 216.05 238.025C215.2 238.792 214.192 239.175 213.025 239.175C212.175 239.175 211.509 238.992 211.025 238.625C210.542 238.242 210.242 237.708 210.125 237.025C209.609 237.692 208.959 238.217 208.175 238.6C207.392 238.983 206.575 239.175 205.725 239.175C204.442 239.175 203.434 238.792 202.7 238.025C201.984 237.242 201.625 236.183 201.625 234.85C201.625 233.583 201.884 232.4 202.4 231.3C202.934 230.2 203.675 229.325 204.625 228.675C205.575 228.008 206.642 227.675 207.825 227.675C209.275 227.675 210.292 228.167 210.875 229.15L211.1 227.9H213.575L212.325 235.05C212.275 235.4 212.25 235.708 212.25 235.975C212.25 236.408 212.334 236.733 212.5 236.95C212.684 237.167 213 237.275 213.45 237.275C214.084 237.275 214.625 236.967 215.075 236.35C215.525 235.717 215.859 234.942 216.075 234.025C216.309 233.108 216.425 232.217 216.425 231.35C216.425 229.233 215.809 227.617 214.575 226.5C213.342 225.383 211.55 224.825 209.2 224.825C207.234 224.825 205.467 225.292 203.9 226.225C202.35 227.158 201.134 228.442 200.25 230.075C199.367 231.708 198.925 233.525 198.925 235.525C198.925 237.658 199.559 239.283 200.825 240.4C202.092 241.517 203.9 242.075 206.25 242.075C207.834 242.075 209.217 241.783 210.4 241.2L210.775 243.1C209.259 243.75 207.559 244.075 205.675 244.075C203.859 244.075 202.267 243.733 200.9 243.05C199.534 242.367 198.475 241.392 197.725 240.125C196.975 238.875 196.6 237.417 196.6 235.75C196.6 233.367 197.15 231.192 198.25 229.225C199.367 227.258 200.909 225.708 202.875 224.575C204.842 223.425 207.067 222.85 209.55 222.85ZM206.6 236.975C207.3 236.975 207.934 236.775 208.5 236.375C209.084 235.958 209.542 235.417 209.875 234.75C210.209 234.067 210.375 233.342 210.375 232.575C210.375 231.775 210.15 231.125 209.7 230.625C209.267 230.108 208.65 229.85 207.85 229.85C207.134 229.85 206.5 230.075 205.95 230.525C205.417 230.958 205 231.525 204.7 232.225C204.417 232.925 204.275 233.658 204.275 234.425C204.275 235.208 204.467 235.833 204.85 236.3C205.234 236.75 205.817 236.975 206.6 236.975ZM221.077 232.1C221.077 230.683 221.36 229.442 221.927 228.375C222.51 227.292 223.31 226.458 224.327 225.875C225.344 225.292 226.51 225 227.827 225C229.494 225 230.869 225.4 231.952 226.2C233.052 226.983 233.794 228.108 234.177 229.575H231.102C230.852 228.892 230.452 228.358 229.902 227.975C229.352 227.592 228.66 227.4 227.827 227.4C226.66 227.4 225.727 227.817 225.027 228.65C224.344 229.467 224.002 230.617 224.002 232.1C224.002 233.583 224.344 234.742 225.027 235.575C225.727 236.408 226.66 236.825 227.827 236.825C229.477 236.825 230.569 236.1 231.102 234.65H234.177C233.777 236.05 233.027 237.167 231.927 238C230.827 238.817 229.46 239.225 227.827 239.225C226.51 239.225 225.344 238.933 224.327 238.35C223.31 237.75 222.51 236.917 221.927 235.85C221.36 234.767 221.077 233.517 221.077 232.1ZM242.659 239.225C241.359 239.225 240.184 238.933 239.134 238.35C238.084 237.75 237.259 236.917 236.659 235.85C236.059 234.767 235.759 233.517 235.759 232.1C235.759 230.7 236.067 229.458 236.684 228.375C237.3 227.292 238.142 226.458 239.209 225.875C240.275 225.292 241.467 225 242.784 225C244.1 225 245.292 225.292 246.359 225.875C247.425 226.458 248.267 227.292 248.884 228.375C249.5 229.458 249.809 230.7 249.809 232.1C249.809 233.5 249.492 234.742 248.859 235.825C248.225 236.908 247.359 237.75 246.259 238.35C245.175 238.933 243.975 239.225 242.659 239.225ZM242.659 236.75C243.392 236.75 244.075 236.575 244.709 236.225C245.359 235.875 245.884 235.35 246.284 234.65C246.684 233.95 246.884 233.1 246.884 232.1C246.884 231.1 246.692 230.258 246.309 229.575C245.925 228.875 245.417 228.35 244.784 228C244.15 227.65 243.467 227.475 242.734 227.475C242 227.475 241.317 227.65 240.684 228C240.067 228.35 239.575 228.875 239.209 229.575C238.842 230.258 238.659 231.1 238.659 232.1C238.659 233.583 239.034 234.733 239.784 235.55C240.55 236.35 241.509 236.75 242.659 236.75ZM268.968 225C270.051 225 271.018 225.225 271.868 225.675C272.734 226.125 273.409 226.792 273.893 227.675C274.393 228.558 274.643 229.625 274.643 230.875V239H271.818V231.3C271.818 230.067 271.509 229.125 270.893 228.475C270.276 227.808 269.434 227.475 268.368 227.475C267.301 227.475 266.451 227.808 265.818 228.475C265.201 229.125 264.893 230.067 264.893 231.3V239H262.068V231.3C262.068 230.067 261.759 229.125 261.143 228.475C260.526 227.808 259.684 227.475 258.618 227.475C257.551 227.475 256.701 227.808 256.068 228.475C255.451 229.125 255.143 230.067 255.143 231.3V239H252.293V225.225H255.143V226.8C255.609 226.233 256.201 225.792 256.918 225.475C257.634 225.158 258.401 225 259.218 225C260.318 225 261.301 225.233 262.168 225.7C263.034 226.167 263.701 226.842 264.168 227.725C264.584 226.892 265.234 226.233 266.118 225.75C267.001 225.25 267.951 225 268.968 225ZM280.786 227.25C281.269 226.617 281.928 226.083 282.761 225.65C283.594 225.217 284.536 225 285.586 225C286.786 225 287.878 225.3 288.861 225.9C289.861 226.483 290.644 227.308 291.211 228.375C291.778 229.442 292.061 230.667 292.061 232.05C292.061 233.433 291.778 234.675 291.211 235.775C290.644 236.858 289.861 237.708 288.861 238.325C287.878 238.925 286.786 239.225 285.586 239.225C284.536 239.225 283.603 239.017 282.786 238.6C281.969 238.167 281.303 237.633 280.786 237V245.55H277.936V225.225H280.786V227.25ZM289.161 232.05C289.161 231.1 288.961 230.283 288.561 229.6C288.178 228.9 287.661 228.375 287.011 228.025C286.378 227.658 285.694 227.475 284.961 227.475C284.244 227.475 283.561 227.658 282.911 228.025C282.278 228.392 281.761 228.925 281.361 229.625C280.978 230.325 280.786 231.15 280.786 232.1C280.786 233.05 280.978 233.883 281.361 234.6C281.761 235.3 282.278 235.833 282.911 236.2C283.561 236.567 284.244 236.75 284.961 236.75C285.694 236.75 286.378 236.567 287.011 236.2C287.661 235.817 288.178 235.267 288.561 234.55C288.961 233.833 289.161 233 289.161 232.05ZM293.596 232.05C293.596 230.667 293.879 229.442 294.446 228.375C295.029 227.308 295.813 226.483 296.796 225.9C297.796 225.3 298.896 225 300.096 225C301.179 225 302.121 225.217 302.921 225.65C303.738 226.067 304.388 226.592 304.871 227.225V225.225H307.746V239H304.871V236.95C304.388 237.6 303.729 238.142 302.896 238.575C302.063 239.008 301.113 239.225 300.046 239.225C298.863 239.225 297.779 238.925 296.796 238.325C295.813 237.708 295.029 236.858 294.446 235.775C293.879 234.675 293.596 233.433 293.596 232.05ZM304.871 232.1C304.871 231.15 304.671 230.325 304.271 229.625C303.888 228.925 303.379 228.392 302.746 228.025C302.113 227.658 301.429 227.475 300.696 227.475C299.963 227.475 299.279 227.658 298.646 228.025C298.013 228.375 297.496 228.9 297.096 229.6C296.713 230.283 296.521 231.1 296.521 232.05C296.521 233 296.713 233.833 297.096 234.55C297.496 235.267 298.013 235.817 298.646 236.2C299.296 236.567 299.979 236.75 300.696 236.75C301.429 236.75 302.113 236.567 302.746 236.2C303.379 235.833 303.888 235.3 304.271 234.6C304.671 233.883 304.871 233.05 304.871 232.1ZM318.106 225C319.189 225 320.156 225.225 321.006 225.675C321.873 226.125 322.548 226.792 323.031 227.675C323.514 228.558 323.756 229.625 323.756 230.875V239H320.931V231.3C320.931 230.067 320.623 229.125 320.006 228.475C319.389 227.808 318.548 227.475 317.481 227.475C316.414 227.475 315.564 227.808 314.931 228.475C314.314 229.125 314.006 230.067 314.006 231.3V239H311.156V225.225H314.006V226.8C314.473 226.233 315.064 225.792 315.781 225.475C316.514 225.158 317.289 225 318.106 225ZM339.458 225.225L331.008 245.475H328.058L330.858 238.775L325.433 225.225H328.608L332.483 235.725L336.508 225.225H339.458ZM342.426 239.175C341.909 239.175 341.476 239 341.126 238.65C340.776 238.3 340.601 237.867 340.601 237.35C340.601 236.833 340.776 236.4 341.126 236.05C341.476 235.7 341.909 235.525 342.426 235.525C342.926 235.525 343.351 235.7 343.701 236.05C344.051 236.4 344.226 236.833 344.226 237.35C344.226 237.867 344.051 238.3 343.701 238.65C343.351 239 342.926 239.175 342.426 239.175ZM346.023 232.1C346.023 230.683 346.306 229.442 346.873 228.375C347.456 227.292 348.256 226.458 349.273 225.875C350.289 225.292 351.456 225 352.773 225C354.439 225 355.814 225.4 356.898 226.2C357.998 226.983 358.739 228.108 359.123 229.575H356.048C355.798 228.892 355.398 228.358 354.848 227.975C354.298 227.592 353.606 227.4 352.773 227.4C351.606 227.4 350.673 227.817 349.973 228.65C349.289 229.467 348.948 230.617 348.948 232.1C348.948 233.583 349.289 234.742 349.973 235.575C350.673 236.408 351.606 236.825 352.773 236.825C354.423 236.825 355.514 236.1 356.048 234.65H359.123C358.723 236.05 357.973 237.167 356.873 238C355.773 238.817 354.406 239.225 352.773 239.225C351.456 239.225 350.289 238.933 349.273 238.35C348.256 237.75 347.456 236.917 346.873 235.85C346.306 234.767 346.023 233.517 346.023 232.1ZM367.604 239.225C366.304 239.225 365.129 238.933 364.079 238.35C363.029 237.75 362.204 236.917 361.604 235.85C361.004 234.767 360.704 233.517 360.704 232.1C360.704 230.7 361.013 229.458 361.629 228.375C362.246 227.292 363.088 226.458 364.154 225.875C365.221 225.292 366.413 225 367.729 225C369.046 225 370.238 225.292 371.304 225.875C372.371 226.458 373.213 227.292 373.829 228.375C374.446 229.458 374.754 230.7 374.754 232.1C374.754 233.5 374.438 234.742 373.804 235.825C373.171 236.908 372.304 237.75 371.204 238.35C370.121 238.933 368.921 239.225 367.604 239.225ZM367.604 236.75C368.338 236.75 369.021 236.575 369.654 236.225C370.304 235.875 370.829 235.35 371.229 234.65C371.629 233.95 371.829 233.1 371.829 232.1C371.829 231.1 371.638 230.258 371.254 229.575C370.871 228.875 370.363 228.35 369.729 228C369.096 227.65 368.413 227.475 367.679 227.475C366.946 227.475 366.263 227.65 365.629 228C365.013 228.35 364.521 228.875 364.154 229.575C363.788 230.258 363.604 231.1 363.604 232.1C363.604 233.583 363.979 234.733 364.729 235.55C365.496 236.35 366.454 236.75 367.604 236.75ZM393.913 225C394.997 225 395.963 225.225 396.813 225.675C397.68 226.125 398.355 226.792 398.838 227.675C399.338 228.558 399.588 229.625 399.588 230.875V239H396.763V231.3C396.763 230.067 396.455 229.125 395.838 228.475C395.222 227.808 394.38 227.475 393.313 227.475C392.247 227.475 391.397 227.808 390.763 228.475C390.147 229.125 389.838 230.067 389.838 231.3V239H387.013V231.3C387.013 230.067 386.705 229.125 386.088 228.475C385.472 227.808 384.63 227.475 383.563 227.475C382.497 227.475 381.647 227.808 381.013 228.475C380.397 229.125 380.088 230.067 380.088 231.3V239H377.238V225.225H380.088V226.8C380.555 226.233 381.147 225.792 381.863 225.475C382.58 225.158 383.347 225 384.163 225C385.263 225 386.247 225.233 387.113 225.7C387.98 226.167 388.647 226.842 389.113 227.725C389.53 226.892 390.18 226.233 391.063 225.75C391.947 225.25 392.897 225 393.913 225Z" fill="white"/>
</svg>
