<svg width="387" height="415" viewBox="0 0 387 415" fill="none" xmlns="http://www.w3.org/2000/svg">
<g clip-path="url(#clip0_221_615)">
<path d="M230.58 12.3622L13.1133 125.805L156.894 401.44L374.361 287.997L230.58 12.3622Z" fill="#292A2E"/>
<path opacity="0.58" d="M230.58 12.3622L13.1133 125.805L156.894 401.44L374.361 287.997L230.58 12.3622Z" fill="white"/>
<path d="M220.152 11.3778L9.04199 135.422L166.311 403.101L377.421 279.057L220.152 11.3778Z" fill="white"/>
<path d="M220.078 11.6665L377.134 278.982L166.385 402.813L9.33028 135.497L220.079 11.6658L220.078 11.6665ZM220.228 11.0896L8.75365 135.347L166.235 403.39L377.709 279.132L220.228 11.0896Z" fill="black"/>
<path d="M214.648 38.2024L118.292 94.8198L122.386 101.789L218.743 45.1717L214.648 38.2024Z" fill="#292A2E"/>
<path d="M225.87 57.1377L129.464 113.752L129.677 114.115L226.083 57.5011L225.87 57.1377Z" fill="black"/>
<path d="M233.39 69.9365L136.984 126.551L137.197 126.914L233.603 70.3L233.39 69.9365Z" fill="black"/>
<path d="M240.91 82.7353L144.503 139.35L144.717 139.713L241.123 83.0988L240.91 82.7353Z" fill="black"/>
<path d="M248.429 95.5337L152.022 152.148L152.236 152.511L248.642 95.8971L248.429 95.5337Z" fill="black"/>
<path d="M202.844 139.528L159.547 164.954L159.76 165.318L203.058 139.891L202.844 139.528Z" fill="black"/>
<path d="M267.822 128.705L88.3252 234.174L92.4199 241.143L271.917 135.674L267.822 128.705Z" fill="#292A2E"/>
<path d="M228.312 278.596L155.036 321.627L155.25 321.991L228.526 278.96L228.312 278.596Z" fill="black"/>
<path d="M237.162 293.658L163.886 336.689L164.099 337.053L237.375 294.022L237.162 293.658Z" fill="black"/>
<path d="M246.012 308.721L172.736 351.752L172.949 352.115L246.226 309.084L246.012 308.721Z" fill="black"/>
<path d="M254.862 323.783L181.585 366.814L181.799 367.178L255.075 324.147L254.862 323.783Z" fill="black"/>
<path d="M148.889 329.186C151.105 328.118 152.036 325.456 150.968 323.239C149.9 321.022 147.238 320.09 145.021 321.158C142.805 322.225 141.874 324.888 142.942 327.105C144.01 329.322 146.672 330.254 148.889 329.186Z" fill="#292A2E"/>
<path d="M176.019 375.362C178.235 374.295 179.166 371.632 178.098 369.415C177.03 367.198 174.368 366.266 172.151 367.334C169.935 368.402 169.003 371.064 170.071 373.281C171.139 375.498 173.802 376.43 176.019 375.362Z" fill="#292A2E"/>
<path d="M167.172 360.305C169.389 359.238 170.32 356.575 169.252 354.358C168.184 352.141 165.521 351.209 163.305 352.277C161.088 353.344 160.157 356.007 161.225 358.224C162.293 360.441 164.956 361.373 167.172 360.305Z" fill="#292A2E"/>
<path d="M158.03 344.746C160.247 343.678 161.178 341.015 160.11 338.798C159.042 336.581 156.379 335.649 154.163 336.717C151.946 337.785 151.015 340.448 152.083 342.665C153.151 344.882 155.814 345.813 158.03 344.746Z" fill="#292A2E"/>
<path d="M323.219 222.83L249.943 265.861L250.156 266.225L323.433 223.193L323.219 222.83Z" fill="black"/>
<path d="M332.07 237.892L258.793 280.924L259.007 281.287L332.283 238.256L332.07 237.892Z" fill="black"/>
<path d="M340.919 252.955L267.643 295.986L267.856 296.35L341.132 253.318L340.919 252.955Z" fill="black"/>
<path d="M349.769 268.017L276.493 311.049L276.706 311.412L349.982 268.381L349.769 268.017Z" fill="black"/>
<path d="M243.761 273.441C245.977 272.373 246.908 269.71 245.84 267.493C244.772 265.276 242.11 264.344 239.893 265.412C237.677 266.48 236.746 269.142 237.814 271.36C238.882 273.577 241.544 274.508 243.761 273.441Z" fill="#292A2E"/>
<path d="M270.891 319.617C273.107 318.55 274.038 315.887 272.97 313.67C271.902 311.453 269.24 310.521 267.023 311.589C264.807 312.656 263.876 315.319 264.944 317.536C266.011 319.753 268.674 320.685 270.891 319.617Z" fill="#292A2E"/>
<path d="M262.045 304.561C264.261 303.493 265.192 300.83 264.124 298.613C263.057 296.396 260.394 295.464 258.177 296.532C255.961 297.6 255.03 300.263 256.098 302.48C257.166 304.697 259.828 305.628 262.045 304.561Z" fill="#292A2E"/>
<path d="M252.903 289.001C255.12 287.933 256.051 285.27 254.983 283.053C253.915 280.836 251.252 279.904 249.036 280.972C246.819 282.04 245.888 284.703 246.956 286.92C248.024 289.137 250.687 290.068 252.903 289.001Z" fill="#292A2E"/>
<path d="M93.5653 160.544C100.861 157.029 103.926 148.264 100.411 140.966C96.8952 133.669 88.1309 130.602 80.835 134.116C73.539 137.631 70.4743 146.396 73.9897 153.694C77.505 160.991 86.2693 164.058 93.5653 160.544Z" fill="#0E185F"/>
<path d="M135.993 163.995C135.078 170.392 132.734 176.501 129.135 181.867C125.536 187.233 120.775 191.719 115.204 194.992C109.633 198.266 103.397 200.242 96.9578 200.774C90.5185 201.306 84.0418 200.38 78.0087 198.066C78.7608 191.591 81.0044 185.378 84.5631 179.917C88.1219 174.456 92.8988 169.896 98.5183 166.594C104.138 163.292 110.447 161.339 116.949 160.888C123.451 160.437 129.97 161.501 135.992 163.996L135.993 163.995Z" fill="#0E185F"/>
<path d="M74.9552 119.476C84.8629 114.716 96.2272 113.971 106.673 117.397C117.118 120.822 125.837 128.152 131.006 137.855C136.175 147.559 137.395 158.884 134.41 169.464C131.426 180.044 124.468 189.06 114.991 194.628C113.97 195.228 112.916 195.79 111.856 196.301C101.948 201.061 90.5836 201.806 80.138 198.38C69.6924 194.955 60.9739 187.625 55.8047 177.922C50.6356 168.219 49.4158 156.893 52.4004 146.313C55.385 135.733 62.3429 126.717 71.8199 121.149C72.8403 120.549 73.8941 119.987 74.9556 119.476L74.9552 119.476ZM74.7727 119.096C73.7048 119.611 72.6474 120.174 71.6073 120.785C66.7357 123.647 62.4757 127.441 59.0705 131.95C55.6652 136.459 53.1815 141.594 51.761 147.064C50.3405 152.533 50.0112 158.229 50.7917 163.826C51.5723 169.423 53.4475 174.812 56.3103 179.684C61.7772 188.99 70.5399 195.901 80.8613 199.05C91.1828 202.198 102.309 201.353 112.036 196.682C113.104 196.167 114.159 195.604 115.201 194.992C120.073 192.13 124.332 188.337 127.737 183.828C131.142 179.319 133.626 174.183 135.046 168.714C136.466 163.245 136.795 157.549 136.015 151.952C135.234 146.355 133.359 140.967 130.496 136.094C125.029 126.789 116.266 119.877 105.945 116.729C95.6234 113.581 84.4967 114.426 74.7705 119.097L74.7727 119.096Z" fill="black"/>
<path d="M280.12 149.472L100.531 254.935L100.744 255.299L280.333 149.835L280.12 149.472Z" fill="black"/>
<path d="M287.527 162.245L108.016 267.689L108.229 268.052L287.74 162.608L287.527 162.245Z" fill="black"/>
<path d="M295.045 175.039L115.533 280.483L115.746 280.846L295.258 175.402L295.045 175.039Z" fill="black"/>
<path d="M302.561 187.833L123.05 293.277L123.263 293.64L302.775 188.196L302.561 187.833Z" fill="black"/>
<path d="M173.917 280.721L130.619 306.147L130.833 306.511L174.13 281.085L173.917 280.721Z" fill="black"/>
<path d="M27.0114 108.948C28.5447 108.469 30.2037 108.6 31.643 109.314C33.0823 110.027 34.191 111.269 34.7383 112.779L43.085 135.183C43.5271 136.356 43.4855 137.657 42.9694 138.799C42.4534 139.941 41.505 140.832 40.3327 141.275C39.1884 141.677 37.932 141.615 36.8332 141.101C35.7344 140.587 34.8807 139.663 34.4555 138.526L25.8742 115.491C25.5973 114.773 25.5964 113.978 25.8717 113.259C26.1471 112.541 26.6791 111.95 27.3648 111.602C27.747 111.416 28.1637 111.313 28.5882 111.297C29.0127 111.282 29.4358 111.356 29.8302 111.514C30.2247 111.671 30.5819 111.91 30.879 112.214C31.1761 112.517 31.4065 112.88 31.5556 113.278L37.5795 129.447C37.652 129.642 37.6442 129.857 37.5578 130.046C37.4715 130.235 37.3136 130.382 37.119 130.455C37.0225 130.491 36.9199 130.507 36.817 130.503C36.7141 130.5 36.613 130.476 36.5194 130.433C36.4258 130.39 36.3416 130.329 36.2715 130.253C36.2015 130.178 36.1471 130.089 36.1113 129.993L30.1111 113.887C29.9859 113.532 29.7341 113.236 29.4041 113.055C29.0741 112.875 28.6891 112.822 28.3228 112.908C28.1226 112.961 27.9357 113.055 27.7741 113.184C27.6124 113.314 27.4797 113.476 27.3843 113.659C27.2889 113.843 27.2331 114.045 27.2204 114.252C27.2076 114.458 27.2383 114.665 27.3103 114.86L35.892 137.896C36.1532 138.623 36.6748 139.227 37.3559 139.592C38.0369 139.956 38.8289 140.055 39.5786 139.87C39.9909 139.76 40.3756 139.565 40.7081 139.297C41.0406 139.03 41.3136 138.696 41.5095 138.317C41.7055 137.938 41.8201 137.522 41.846 137.096C41.8719 136.67 41.8086 136.243 41.6601 135.843L33.2612 113.298C32.833 112.135 31.9607 111.189 30.8359 110.668C29.7111 110.148 28.4257 110.095 27.2623 110.522C26.1464 110.961 25.2472 111.82 24.758 112.915C24.2688 114.01 24.2286 115.253 24.6461 116.378L31.8512 135.719C31.8871 135.816 31.9037 135.918 31.9 136.021C31.8963 136.124 31.8724 136.225 31.8296 136.318C31.7869 136.412 31.7261 136.496 31.6508 136.566C31.5755 136.636 31.4872 136.691 31.3908 136.726C31.2945 136.762 31.192 136.779 31.0892 136.775C30.9864 136.772 30.8853 136.748 30.7918 136.705C30.6982 136.662 30.614 136.601 30.544 136.526C30.4739 136.451 30.4194 136.362 30.3835 136.266L23.178 116.924C22.8906 116.15 22.7621 115.325 22.8003 114.5C22.8384 113.675 23.0425 112.866 23.4003 112.121C23.7581 111.377 24.2623 110.712 24.8827 110.167C25.5032 109.622 26.2271 109.207 27.0114 108.948Z" fill="#0E185F"/>
</g>
<g filter="url(#filter0_d_221_615)">
<path fill-rule="evenodd" clip-rule="evenodd" d="M280 60C244.655 60 216 88.6545 216 124C216 159.345 244.655 188 280 188C315.345 188 344 159.345 344 124C344 88.6545 315.345 60 280 60ZM307.741 113.178C308.252 112.594 308.641 111.914 308.885 111.178C309.129 110.441 309.223 109.664 309.162 108.89C309.101 108.117 308.886 107.363 308.53 106.674C308.173 105.985 307.683 105.374 307.087 104.878C306.491 104.381 305.802 104.009 305.059 103.782C304.317 103.556 303.538 103.48 302.766 103.56C301.994 103.639 301.246 103.872 300.566 104.245C299.885 104.618 299.287 105.123 298.804 105.731L273.786 135.747L260.841 122.796C259.743 121.736 258.274 121.149 256.748 121.163C255.223 121.176 253.763 121.788 252.685 122.867C251.606 123.945 250.994 125.405 250.981 126.93C250.968 128.456 251.554 129.925 252.614 131.023L270.068 148.477C270.64 149.048 271.324 149.494 272.078 149.787C272.832 150.079 273.638 150.211 274.445 150.174C275.253 150.137 276.043 149.933 276.767 149.574C277.491 149.214 278.133 148.708 278.65 148.087L307.741 113.178Z" fill="#8CBE7B"/>
</g>
<defs>
<filter id="filter0_d_221_615" x="212" y="60" width="136" height="136" filterUnits="userSpaceOnUse" color-interpolation-filters="sRGB">
<feFlood flood-opacity="0" result="BackgroundImageFix"/>
<feColorMatrix in="SourceAlpha" type="matrix" values="0 0 0 0 0 0 0 0 0 0 0 0 0 0 0 0 0 0 127 0" result="hardAlpha"/>
<feOffset dy="4"/>
<feGaussianBlur stdDeviation="2"/>
<feComposite in2="hardAlpha" operator="out"/>
<feColorMatrix type="matrix" values="0 0 0 0 0 0 0 0 0 0 0 0 0 0 0 0 0 0 0.25 0"/>
<feBlend mode="normal" in2="BackgroundImageFix" result="effect1_dropShadow_221_615"/>
<feBlend mode="normal" in="SourceGraphic" in2="effect1_dropShadow_221_615" result="shape"/>
</filter>
<clipPath id="clip0_221_615">
<rect width="270" height="330" fill="white" transform="translate(0 117.175) rotate(-25.7206)"/>
</clipPath>
</defs>
</svg>
